<svg class="ethara-mark-animation" viewBox="0 0 218 216" xmlns="http://www.w3.org/2000/svg" role="img" aria-label="Ethara.AI logo" width="218" height="216">
  <defs>
    <style><![CDATA[
.ethara-mark-animation { display: block; background: transparent; pointer-events: none; user-select: none; }
.ln { fill: none; stroke: #f7f8ff; stroke-width: 1.4; stroke-linejoin: round; stroke-linecap: round; stroke-dasharray: 1; stroke-dashoffset: 1; }
.fill { fill: #f7f8ff; fill-opacity: 0; }
.mk { animation: draw 1.45s ease forwards, vanish .65s ease forwards; animation-delay: calc(.28s + var(--i) * .105s), 2.52s; }
.markfill { animation: fillin .85s ease forwards; animation-delay: 2.12s; }
.wd { animation: draw 1.05s ease forwards, vanish .55s ease forwards; animation-delay: calc(2.85s + var(--j) * .18s), 5.25s; }
.wordfill { animation: fillin .85s ease forwards; animation-delay: 4.78s; }
@keyframes draw { to { stroke-dashoffset: 0; } }
@keyframes vanish { to { stroke-opacity: 0; } }
@keyframes fillin { to { fill-opacity: 1; } }
@media (prefers-reduced-motion: reduce) {
  .ln { stroke-dashoffset: 0; stroke-opacity: 0; }
  .fill { fill-opacity: 1; }
  .mk, .wd, .markfill, .wordfill { animation: none; }
}
]]></style>
  </defs>
    <path class="ln mk" pathLength="1" style="--i:0" d="M99.95,3.19 C98.56,3.27 96.80,3.47 96.05,3.66 C95.30,3.83 93.88,4.07 92.87,4.17 C91.87,4.27 90.58,4.51 89.99,4.70 C89.41,4.88 88.22,5.11 87.35,5.19 C86.51,5.27 85.47,5.48 85.06,5.61 C84.65,5.75 83.65,5.99 82.80,6.12 C81.97,6.28 80.71,6.58 80.04,6.80 C79.36,7.04 78.68,7.23 78.51,7.23 C78.35,7.24 77.91,7.36 77.54,7.50 C77.17,7.65 76.25,7.94 75.50,8.16 C74.75,8.37 73.77,8.71 73.29,8.89 C72.84,9.08 72.07,9.35 71.60,9.52 C69.73,10.15 68.62,10.61 66.91,11.44 C65.91,11.93 64.99,12.32 64.85,12.32 C64.74,12.32 64.34,12.51 64.02,12.73 C63.68,12.97 63.19,13.21 62.94,13.27 C62.51,13.38 61.83,13.71 58.78,15.29 C58.42,15.48 57.99,15.75 57.82,15.91 C57.64,16.06 57.21,16.28 56.87,16.38 C56.53,16.50 56.16,16.70 56.02,16.86 C55.91,17.01 55.50,17.26 55.12,17.45 C54.50,17.74 53.44,18.32 51.98,19.20 C51.68,19.39 51.17,19.74 50.88,20.00 C50.57,20.27 50.25,20.47 50.17,20.47 C50.08,20.47 49.76,20.69 49.44,20.98 C49.11,21.25 48.76,21.48 48.65,21.49 C48.57,21.49 48.33,21.63 48.14,21.81 C47.96,21.98 47.47,22.36 47.06,22.61 C46.67,22.88 46.14,23.24 45.90,23.39 C45.67,23.55 45.27,23.84 45.04,24.02 C43.88,24.96 43.47,25.26 42.63,25.89 C42.12,26.26 41.42,26.77 41.06,27.05 C40.69,27.30 40.20,27.72 39.96,27.96 C39.70,28.20 38.60,29.18 37.50,30.14 C33.49,33.63 28.48,39.00 26.09,42.38 C25.66,42.99 25.08,43.79 24.80,44.16 C24.03,45.18 22.50,47.41 21.79,48.54 C21.64,48.80 21.11,49.55 20.63,50.17 C20.18,50.82 19.51,51.79 19.19,52.31 C18.87,52.84 18.44,53.52 18.24,53.81 C18.04,54.11 17.66,54.72 17.43,55.20 C17.19,55.66 16.73,56.47 16.41,56.98 C16.08,57.49 15.74,58.10 15.63,58.34 C15.22,59.24 14.93,59.82 14.45,60.63 C14.18,61.09 13.84,61.75 13.69,62.08 C13.54,62.40 13.18,63.11 12.91,63.64 C12.64,64.17 12.42,64.73 12.42,64.86 C12.42,65.02 12.20,65.58 11.91,66.10 C11.63,66.63 11.40,67.19 11.40,67.34 C11.40,67.49 11.21,67.90 10.97,68.24 C10.75,68.58 10.48,69.19 10.38,69.58 C10.26,69.99 10.04,70.53 9.87,70.82 C9.70,71.09 9.48,71.76 9.39,72.27 C9.29,72.78 9.02,73.62 8.78,74.13 C8.54,74.64 8.34,75.20 8.34,75.37 C8.34,75.54 8.15,76.05 7.92,76.53 C7.68,76.99 7.39,77.82 7.30,78.35 C7.20,78.87 6.98,79.59 6.80,79.92 C6.63,80.26 6.40,81.06 6.30,81.71 C6.20,82.34 5.96,83.29 5.79,83.83 C5.61,84.36 5.39,85.70 5.28,86.80 C5.18,87.92 4.98,89.35 4.84,90.01 C4.69,90.66 4.50,91.85 4.42,92.64 C4.18,94.73 3.96,96.01 3.69,97.03 C2.86,99.98 2.96,116.08 3.84,120.15 C3.98,120.85 4.18,122.23 4.28,123.21 C4.37,124.20 4.59,125.60 4.77,126.35 C4.94,127.10 5.18,128.47 5.30,129.41 C5.40,130.34 5.64,131.48 5.83,131.92 C6.00,132.38 6.22,133.33 6.32,134.04 C6.42,134.76 6.64,135.62 6.83,135.98 C7.02,136.35 7.25,137.07 7.34,137.61 C7.44,138.14 7.66,138.83 7.83,139.17 C8.00,139.51 8.22,140.23 8.32,140.77 C8.43,141.33 8.66,142.03 8.85,142.35 C9.04,142.67 9.24,143.25 9.29,143.64 C9.36,144.03 9.58,144.67 9.80,145.05 C10.02,145.44 10.28,146.12 10.38,146.58 C10.48,147.04 10.70,147.61 10.87,147.85 C11.06,148.09 11.26,148.55 11.36,148.87 C11.45,149.19 11.72,149.75 11.97,150.11 C12.21,150.47 12.42,150.92 12.42,151.13 C12.42,151.33 12.60,151.77 12.84,152.11 C13.06,152.45 13.33,153.05 13.42,153.44 C13.50,153.83 13.77,154.42 14.01,154.78 C14.25,155.12 14.45,155.49 14.45,155.58 C14.45,155.75 14.93,156.54 15.74,157.75 C16.22,158.45 16.92,159.67 17.51,160.82 C17.99,161.76 18.39,162.49 19.29,163.97 C19.48,164.27 19.84,164.78 20.09,165.07 C20.36,165.37 20.57,165.70 20.57,165.78 C20.57,165.88 20.80,166.24 21.08,166.60 C21.37,166.95 21.59,167.31 21.59,167.41 C21.59,167.50 21.77,167.80 22.03,168.11 C23.18,169.54 23.62,170.13 23.62,170.25 C23.62,170.42 25.39,172.64 26.10,173.37 C26.31,173.56 26.56,173.92 26.68,174.15 C27.65,176.01 33.01,181.95 36.44,184.99 C37.57,185.97 38.64,186.92 38.82,187.09 C39.37,187.59 41.69,189.47 42.54,190.12 C43.44,190.80 44.56,191.66 45.19,192.17 C45.82,192.68 46.75,193.31 47.23,193.55 C47.47,193.67 47.92,193.99 48.26,194.28 C48.91,194.80 49.62,195.31 50.61,195.94 C50.93,196.15 51.51,196.52 51.88,196.79 C52.27,197.05 52.92,197.42 53.34,197.61 C53.77,197.81 54.33,198.15 54.58,198.37 C54.85,198.59 55.16,198.78 55.28,198.78 C55.40,198.78 55.79,199.00 56.14,199.29 C56.50,199.56 56.87,199.80 56.99,199.80 C57.11,199.80 57.38,199.95 57.62,200.12 C57.86,200.31 58.44,200.61 58.93,200.80 C59.42,200.98 59.96,201.24 60.12,201.38 C60.27,201.51 60.68,201.71 61.02,201.82 C61.36,201.94 61.81,202.16 62.04,202.33 C62.26,202.50 62.73,202.73 63.11,202.85 C63.48,202.97 63.97,203.21 64.19,203.38 C64.41,203.57 64.68,203.70 64.79,203.70 C64.91,203.70 65.52,203.97 66.18,204.30 C66.82,204.62 67.47,204.89 67.61,204.89 C67.74,204.89 68.32,205.13 68.88,205.40 C69.44,205.67 70.05,205.91 70.24,205.91 C70.42,205.91 71.04,206.15 71.60,206.42 C72.16,206.69 72.73,206.93 72.87,206.93 C73.01,206.93 73.53,207.12 74.04,207.35 C74.53,207.59 75.26,207.83 75.65,207.90 C76.03,207.95 76.74,208.18 77.23,208.39 C77.71,208.61 78.63,208.86 79.27,208.97 C79.92,209.05 80.80,209.29 81.24,209.48 C81.70,209.68 82.74,209.90 83.60,210.00 C84.45,210.09 85.62,210.31 86.20,210.48 C86.79,210.66 87.83,210.88 88.54,210.99 C89.24,211.09 90.17,211.29 90.61,211.43 C91.04,211.58 92.53,211.85 93.89,212.02 C95.27,212.19 97.12,212.48 98.00,212.65 C100.65,213.14 114.93,213.11 117.79,212.58 C118.91,212.38 120.52,212.12 121.35,212.02 C122.20,211.92 123.58,211.65 124.41,211.43 C125.26,211.21 126.43,210.97 127.02,210.92 C127.63,210.85 128.55,210.65 129.06,210.46 C129.59,210.29 130.61,210.07 131.32,209.97 C132.03,209.88 133.19,209.63 133.87,209.41 C134.55,209.19 135.55,208.95 136.09,208.88 C136.63,208.83 137.48,208.59 137.96,208.35 C138.45,208.13 139.03,207.95 139.27,207.95 C139.50,207.95 140.18,207.71 140.76,207.44 C141.36,207.15 142.02,206.93 142.22,206.93 C142.44,206.93 142.99,206.72 143.43,206.49 C143.89,206.25 144.62,205.99 145.07,205.91 C145.53,205.81 146.13,205.59 146.40,205.40 C146.67,205.21 147.23,205.01 147.67,204.94 C148.11,204.89 148.73,204.67 149.05,204.45 C149.35,204.23 149.95,203.97 150.34,203.87 C150.75,203.75 151.22,203.53 151.41,203.36 C151.59,203.19 152.07,202.97 152.44,202.87 C152.83,202.77 153.24,202.56 153.36,202.43 C153.46,202.31 153.92,202.05 154.35,201.90 C154.79,201.73 155.30,201.48 155.48,201.31 C155.67,201.15 156.13,200.93 156.50,200.83 C156.88,200.73 157.45,200.46 157.78,200.22 C158.10,199.98 158.44,199.80 158.56,199.80 C158.66,199.80 159.03,199.56 159.39,199.29 C159.75,199.00 160.12,198.78 160.24,198.78 C160.36,198.78 160.73,198.54 161.09,198.27 C161.44,197.98 161.82,197.76 161.94,197.76 C162.06,197.76 162.43,197.52 162.79,197.25 C163.14,196.96 163.57,196.74 163.72,196.74 C163.87,196.74 164.28,196.54 164.62,196.26 C164.94,196.01 165.43,195.67 165.71,195.52 C165.96,195.35 166.49,195.01 166.88,194.75 C167.25,194.48 167.83,194.11 168.15,193.90 C169.29,193.19 169.88,192.73 171.07,191.71 C171.75,191.15 172.69,190.41 173.14,190.05 C173.62,189.71 174.45,188.98 175.01,188.45 C175.57,187.93 177.07,186.52 178.32,185.34 C181.94,181.97 185.23,178.62 188.04,175.50 C190.79,172.42 191.62,171.44 192.84,169.74 C194.81,167.01 195.70,165.73 195.81,165.43 C195.88,165.22 196.26,164.58 196.65,163.97 C197.02,163.35 197.53,162.49 197.78,162.03 C198.02,161.57 198.58,160.71 199.02,160.08 C199.45,159.47 200.11,158.34 200.47,157.60 C200.82,156.85 201.20,156.09 201.30,155.90 C201.52,155.47 201.71,155.08 202.54,153.35 C202.90,152.60 203.32,151.79 203.49,151.54 C203.80,151.09 203.98,150.64 204.90,147.99 C205.12,147.37 205.44,146.58 205.65,146.22 C205.85,145.85 206.00,145.42 206.00,145.29 C206.00,145.15 206.19,144.64 206.43,144.18 C206.65,143.71 206.85,143.27 206.85,143.20 C206.85,143.13 207.07,142.47 207.34,141.75 C207.97,140.12 208.99,136.34 209.14,135.10 C209.21,134.59 209.40,133.82 209.59,133.40 C209.76,132.97 209.98,132.07 210.08,131.40 C210.18,130.70 210.40,129.87 210.57,129.53 C210.74,129.19 211.01,128.02 211.17,126.95 C211.32,125.88 211.56,124.57 211.69,124.06 C211.83,123.55 212.03,121.97 212.12,120.58 C212.22,119.17 212.42,116.81 212.57,115.31 C212.98,111.58 212.98,102.43 212.59,99.52 C212.44,98.40 212.27,96.79 212.20,95.96 C212.08,94.34 211.67,91.85 211.42,91.17 C211.34,90.95 211.20,90.08 211.10,89.25 C211.00,88.42 210.77,87.35 210.61,86.90 C210.42,86.45 210.20,85.48 210.10,84.76 C209.99,84.05 209.77,83.19 209.59,82.83 C209.42,82.49 209.18,81.62 209.08,80.93 C208.96,80.23 208.69,79.11 208.47,78.43 C208.23,77.77 208.04,77.04 208.04,76.82 C208.04,76.60 207.87,76.09 207.68,75.66 C207.48,75.24 207.19,74.41 207.02,73.79 C206.67,72.50 205.87,70.57 205.34,69.72 C205.15,69.40 204.98,68.97 204.98,68.79 C204.98,68.60 204.75,67.99 204.47,67.43 C204.20,66.87 203.97,66.25 203.97,66.05 C203.97,65.85 203.78,65.42 203.54,65.08 C203.32,64.74 203.05,64.17 202.95,63.81 C202.86,63.44 202.64,62.96 202.47,62.74 C202.28,62.52 202.06,62.08 201.96,61.77 C201.86,61.47 201.62,61.01 201.45,60.75 C201.28,60.50 201.04,60.04 200.94,59.73 C200.84,59.43 200.60,58.97 200.43,58.72 C200.25,58.46 200.04,58.07 199.97,57.83 C199.82,57.34 198.77,55.54 198.34,55.03 C198.19,54.84 197.94,54.42 197.78,54.10 C197.63,53.77 197.24,53.08 196.92,52.57 C196.60,52.06 196.17,51.31 195.98,50.94 C195.80,50.55 195.53,50.14 195.37,50.00 C195.24,49.88 194.97,49.51 194.78,49.19 C194.59,48.85 194.22,48.27 193.93,47.90 C193.66,47.52 193.17,46.83 192.84,46.37 C191.38,44.23 187.36,39.31 185.98,37.96 C185.74,37.73 185.20,37.15 184.78,36.69 C183.62,35.43 178.17,30.25 177.39,29.66 C177.02,29.39 176.13,28.61 175.44,27.95 C174.74,27.28 173.96,26.62 173.70,26.48 C173.43,26.35 173.23,26.18 173.23,26.11 C173.23,26.04 172.97,25.84 172.69,25.65 C172.38,25.48 171.62,24.91 170.99,24.40 C170.38,23.87 169.61,23.28 169.29,23.05 C168.98,22.85 168.46,22.48 168.13,22.26 C167.81,22.02 167.22,21.70 166.84,21.51 C166.45,21.32 166.11,21.10 166.08,21.02 C166.01,20.86 164.91,20.10 164.06,19.61 C163.80,19.47 163.35,19.15 163.04,18.89 C162.75,18.64 162.40,18.44 162.28,18.44 C162.14,18.44 161.77,18.20 161.46,17.93 C161.14,17.64 160.76,17.42 160.63,17.42 C160.48,17.42 160.09,17.18 159.73,16.91 C159.37,16.62 159.00,16.40 158.88,16.40 C158.76,16.40 158.39,16.16 158.03,15.89 C157.67,15.60 157.25,15.38 157.10,15.38 C156.93,15.38 156.60,15.23 156.37,15.04 C156.13,14.85 155.65,14.58 155.33,14.44 C155.01,14.31 154.46,14.00 154.11,13.77 C153.77,13.53 153.31,13.34 153.12,13.34 C152.92,13.34 152.49,13.15 152.17,12.92 C151.85,12.68 151.29,12.41 150.92,12.31 C150.56,12.20 150.05,11.97 149.79,11.80 C149.54,11.61 149.01,11.37 148.62,11.29 C148.23,11.20 147.69,10.96 147.42,10.78 C147.16,10.57 146.57,10.35 146.13,10.27 C145.67,10.18 145.07,9.96 144.82,9.76 C144.56,9.57 143.95,9.35 143.46,9.27 C142.97,9.20 142.19,8.93 141.75,8.69 C141.29,8.45 140.69,8.25 140.42,8.25 C140.15,8.25 139.40,8.03 138.79,7.75 C138.16,7.48 137.25,7.21 136.74,7.16 C136.23,7.09 135.53,6.89 135.17,6.70 C134.82,6.53 133.93,6.29 133.20,6.19 C132.49,6.09 131.59,5.85 131.22,5.67 C130.76,5.43 129.99,5.27 128.84,5.17 C127.89,5.11 126.67,4.88 126.12,4.70 C125.56,4.49 124.26,4.26 123.15,4.17 C122.06,4.07 120.54,3.85 119.74,3.66 C117.07,3.05 106.51,2.80 99.95,3.19 Z"/>
    <path class="ln mk" pathLength="1" style="--i:1" d="M109.62,102.36 C110.13,103.04 111.82,104.90 113.40,106.52 C118.28,111.49 118.19,111.36 116.94,112.83 C116.51,113.33 116.17,113.79 116.17,113.85 C116.17,114.02 114.69,115.53 113.47,116.59 C111.76,118.08 110.57,120.09 110.57,121.51 C110.57,122.19 112.74,124.18 113.68,124.33 C114.03,124.40 114.64,124.65 115.03,124.91 C115.56,125.27 116.05,125.42 116.94,125.49 C118.09,125.60 118.16,125.59 119.65,124.84 C121.22,124.08 121.84,123.53 123.25,121.80 C124.22,120.60 124.71,120.32 125.90,120.32 C126.63,120.32 126.97,120.43 127.57,120.83 C127.97,121.10 128.40,121.34 128.50,121.34 C128.60,121.34 128.91,121.51 129.18,121.72 C129.72,122.16 130.45,122.63 131.79,123.38 C133.19,124.16 133.95,124.64 134.29,124.93 C134.70,125.28 136.69,126.37 137.23,126.52 C137.47,126.59 137.92,126.83 138.25,127.05 C138.57,127.27 138.94,127.46 139.10,127.46 C139.23,127.46 139.81,127.69 140.37,127.97 C140.93,128.24 141.49,128.47 141.61,128.47 C141.73,128.47 142.27,128.70 142.83,128.98 C143.39,129.26 144.09,129.49 144.39,129.49 C144.70,129.49 145.41,129.73 145.97,130.00 C146.53,130.27 147.23,130.51 147.50,130.51 C147.79,130.51 148.56,130.72 149.20,130.95 C152.24,132.04 164.08,132.09 166.83,131.00 C167.29,130.82 168.24,130.60 168.92,130.51 C169.61,130.43 170.39,130.24 170.68,130.09 C170.95,129.95 171.70,129.71 172.33,129.56 C172.96,129.43 173.72,129.15 174.01,128.97 C174.30,128.80 174.94,128.58 175.42,128.47 C175.90,128.39 176.49,128.15 176.76,127.97 C177.02,127.78 177.59,127.56 178.03,127.47 C178.49,127.39 179.02,127.17 179.22,126.98 C179.43,126.79 179.89,126.56 180.23,126.45 C180.58,126.33 180.92,126.17 180.97,126.06 C181.04,125.98 181.55,125.67 182.13,125.38 C183.76,124.60 184.50,124.18 185.03,123.75 C185.29,123.55 185.59,123.38 185.71,123.38 C185.83,123.38 186.19,123.18 186.53,122.90 C186.85,122.65 187.34,122.31 187.61,122.14 C188.77,121.43 191.57,119.03 194.01,116.67 C195.42,115.30 197.82,112.39 198.28,111.51 C198.94,110.19 199.11,110.03 199.53,110.46 C199.89,110.81 200.13,111.70 200.13,112.68 C200.11,114.14 199.74,117.08 199.47,117.69 C199.31,118.06 199.04,119.29 198.85,120.41 C198.67,121.53 198.41,122.79 198.28,123.21 C198.16,123.63 197.95,124.59 197.85,125.35 C197.75,126.10 197.53,127.08 197.36,127.56 C197.19,128.02 196.95,129.12 196.85,130.02 C196.75,130.92 196.51,132.01 196.32,132.45 C196.12,132.87 195.92,133.64 195.87,134.13 C195.81,134.60 195.54,135.42 195.29,135.93 C195.02,136.44 194.80,137.05 194.80,137.29 C194.80,137.53 194.56,138.22 194.29,138.80 C194.00,139.39 193.78,140.02 193.78,140.17 C193.78,140.34 193.57,140.85 193.34,141.30 C193.10,141.75 192.84,142.50 192.74,142.98 C192.66,143.45 192.44,144.05 192.25,144.28 C192.08,144.54 191.87,144.96 191.81,145.22 C191.70,145.69 190.94,147.43 190.45,148.34 C190.33,148.58 189.99,149.24 189.72,149.80 C189.45,150.38 189.14,150.91 189.04,150.96 C188.94,151.03 188.77,151.40 188.67,151.79 C188.56,152.18 188.29,152.71 188.07,152.98 C187.85,153.25 187.66,153.56 187.66,153.66 C187.66,153.78 187.44,154.18 187.19,154.56 C186.93,154.95 186.58,155.53 186.39,155.83 C186.20,156.15 185.86,156.71 185.63,157.09 C185.39,157.46 185.05,158.02 184.86,158.34 C183.33,160.93 176.57,168.97 172.72,172.78 C170.36,175.14 165.18,179.71 163.38,181.03 C163.01,181.30 162.17,181.97 161.53,182.48 C160.88,182.98 160.14,183.54 159.88,183.70 C159.61,183.87 159.05,184.22 158.63,184.51 C158.20,184.78 157.56,185.18 157.18,185.38 C156.81,185.58 156.28,185.92 156.03,186.14 C155.76,186.36 155.45,186.55 155.33,186.55 C155.21,186.55 154.82,186.79 154.46,187.06 C154.11,187.35 153.75,187.57 153.65,187.57 C153.55,187.57 153.24,187.74 152.95,187.96 C152.66,188.18 151.75,188.67 150.90,189.08 C150.07,189.49 149.25,189.88 149.12,189.96 C148.39,190.41 143.70,192.66 143.51,192.66 C143.39,192.66 142.90,192.85 142.43,193.09 C141.05,193.75 139.45,194.36 138.16,194.74 C137.52,194.91 136.91,195.13 136.80,195.21 C136.70,195.30 136.09,195.50 135.45,195.64 C134.82,195.79 134.02,196.04 133.68,196.21 C133.34,196.38 132.73,196.59 132.30,196.65 C131.88,196.72 130.74,196.94 129.76,197.16 C127.94,197.57 123.63,198.20 119.23,198.69 C117.87,198.85 116.09,199.12 115.24,199.29 C114.41,199.46 112.61,199.66 111.26,199.71 C109.29,199.81 108.73,199.90 108.26,200.17 C107.63,200.54 106.03,200.37 100.80,199.37 C99.60,199.13 97.83,198.86 96.90,198.78 C94.95,198.57 94.44,198.51 92.91,198.18 C92.30,198.06 90.92,197.86 89.85,197.76 C88.78,197.64 87.44,197.40 86.86,197.23 C86.30,197.05 85.21,196.82 84.45,196.74 C83.69,196.65 82.77,196.43 82.38,196.23 C82.01,196.04 81.24,195.79 80.71,195.70 C80.19,195.60 79.53,195.38 79.24,195.21 C78.97,195.04 78.22,194.77 77.57,194.63 C76.95,194.48 76.27,194.26 76.05,194.12 C75.84,194.01 75.30,193.80 74.82,193.70 C74.36,193.58 73.82,193.34 73.63,193.17 C73.45,193.00 72.94,192.77 72.50,192.68 C72.05,192.58 71.43,192.31 71.07,192.07 C70.73,191.83 70.32,191.65 70.17,191.65 C70.02,191.65 69.56,191.41 69.13,191.14 C68.71,190.86 68.22,190.63 68.05,190.63 C67.86,190.63 67.37,190.41 66.94,190.13 C66.52,189.86 65.98,189.59 65.74,189.52 C65.50,189.45 65.16,189.27 64.97,189.10 C64.79,188.94 64.38,188.72 64.07,188.62 C63.75,188.52 63.28,188.23 62.99,187.99 C62.71,187.76 62.38,187.57 62.26,187.57 C62.12,187.57 61.76,187.35 61.46,187.08 C61.15,186.82 60.71,186.53 60.47,186.47 C60.24,186.40 59.83,186.16 59.57,185.94 C59.30,185.72 59.00,185.53 58.88,185.53 C58.76,185.53 58.52,185.36 58.33,185.18 C58.16,184.97 57.71,184.67 57.33,184.50 C56.96,184.33 56.31,183.90 55.89,183.58 C55.46,183.26 54.90,182.83 54.61,182.66 C53.68,182.07 52.97,181.54 52.34,181.03 C52.00,180.74 51.54,180.39 51.30,180.23 C51.07,180.10 50.15,179.33 49.27,178.54 C48.38,177.74 47.43,176.91 47.18,176.68 C43.51,173.53 34.95,164.14 32.79,160.91 C32.56,160.55 31.79,159.40 31.08,158.34 C29.75,156.36 29.24,155.54 28.65,154.44 C28.45,154.08 28.02,153.37 27.70,152.84 C26.78,151.35 26.22,150.36 25.83,149.53 C25.63,149.11 25.27,148.39 25.05,147.94 C24.83,147.46 24.64,146.97 24.64,146.80 C24.64,146.64 24.47,146.27 24.25,145.95 C23.81,145.27 22.60,142.87 22.60,142.64 C22.60,142.55 22.42,142.11 22.18,141.67 C21.94,141.23 21.65,140.43 21.57,139.90 C21.47,139.36 21.25,138.66 21.08,138.32 C20.91,138.00 20.69,137.27 20.57,136.71 C20.45,136.15 20.21,135.42 20.04,135.08 C19.87,134.74 19.65,134.01 19.57,133.47 C19.48,132.91 19.24,132.18 19.06,131.82 C18.87,131.45 18.67,130.73 18.60,130.21 C18.55,129.66 18.31,128.47 18.09,127.54 C17.87,126.61 17.61,124.79 17.51,123.50 C17.41,122.21 17.19,120.53 17.00,119.76 C16.56,117.91 16.24,114.11 16.47,113.48 C16.58,113.23 16.76,113.02 16.90,113.02 C17.19,113.02 20.06,115.81 21.43,117.42 C22.42,118.57 25.08,120.93 25.92,121.41 C26.20,121.56 26.77,121.95 27.19,122.28 C27.61,122.62 28.17,123.01 28.45,123.18 C28.70,123.33 29.24,123.67 29.64,123.92 C30.01,124.18 30.42,124.40 30.54,124.40 C30.64,124.40 30.96,124.59 31.23,124.82 C31.52,125.06 32.01,125.37 32.32,125.50 C32.64,125.62 33.00,125.86 33.12,126.00 C33.24,126.15 33.61,126.30 33.97,126.37 C34.30,126.42 34.93,126.69 35.36,126.96 C35.78,127.23 36.29,127.46 36.46,127.46 C36.65,127.46 37.17,127.64 37.65,127.88 C38.11,128.10 38.82,128.41 39.25,128.56 C39.65,128.70 40.11,128.93 40.27,129.07 C40.42,129.20 41.00,129.41 41.54,129.51 C42.10,129.61 42.90,129.87 43.32,130.09 C43.75,130.29 44.49,130.51 44.99,130.58 C45.50,130.65 46.29,130.85 46.77,131.04 C47.33,131.26 48.37,131.45 49.69,131.55 C50.81,131.63 52.20,131.79 52.76,131.87 C55.58,132.33 63.80,131.75 66.21,130.94 C66.89,130.70 67.64,130.51 67.88,130.51 C68.11,130.51 68.83,130.27 69.47,130.00 C70.12,129.71 70.78,129.49 70.97,129.49 C71.14,129.49 71.65,129.31 72.07,129.07 C72.50,128.85 73.18,128.58 73.57,128.47 C73.96,128.37 74.48,128.13 74.72,127.95 C74.96,127.78 75.52,127.56 75.96,127.47 C76.40,127.40 77.00,127.13 77.28,126.88 C77.57,126.64 77.91,126.44 78.03,126.44 C78.15,126.44 78.54,126.20 78.90,125.93 C79.25,125.64 79.63,125.42 79.75,125.42 C79.87,125.42 80.24,125.18 80.60,124.91 C80.95,124.62 81.33,124.40 81.45,124.40 C81.56,124.40 81.94,124.16 82.29,123.89 C82.65,123.60 83.08,123.38 83.23,123.38 C83.40,123.38 83.70,123.24 83.92,123.06 C84.15,122.89 84.64,122.60 85.01,122.40 C85.38,122.21 85.84,121.90 86.01,121.70 C86.20,121.50 86.40,121.34 86.49,121.34 C86.57,121.34 86.91,121.14 87.25,120.88 C87.71,120.53 88.08,120.41 88.90,120.36 C89.95,120.29 89.95,120.29 90.95,121.14 C91.52,121.61 92.62,122.70 93.42,123.58 C94.22,124.45 95.30,125.62 95.83,126.18 C99.67,130.24 99.78,130.48 98.48,131.70 C98.07,132.07 97.71,132.38 97.66,132.38 C97.48,132.40 87.97,141.89 86.86,143.16 C84.59,145.80 84.71,145.59 84.81,146.64 C85.05,149.04 87.59,152.47 89.63,153.10 C91.14,153.57 91.89,153.28 93.21,151.77 C93.74,151.14 94.64,150.19 95.20,149.65 C95.76,149.09 97.07,147.82 98.09,146.81 C99.12,145.80 100.07,144.91 100.23,144.83 C100.40,144.76 101.43,143.81 102.57,142.74 C103.71,141.67 104.95,140.53 105.35,140.23 C107.92,138.22 107.92,138.22 109.60,139.83 C111.64,141.77 116.92,147.19 117.67,148.09 C118.87,149.57 120.76,151.31 122.35,152.44 C123.83,153.47 125.44,153.15 127.46,151.37 C128.36,150.57 129.08,150.04 130.05,149.45 C131.62,148.50 131.61,148.53 130.88,147.10 C129.88,145.15 129.77,145.07 122.13,137.39 C118.12,133.37 114.54,129.70 114.17,129.24 C113.79,128.76 112.78,127.66 111.91,126.76 C111.03,125.86 110.19,124.98 110.04,124.81 C109.89,124.62 109.48,124.25 109.12,123.97 C107.63,122.79 106.48,121.70 104.54,119.68 C103.42,118.49 101.77,116.79 100.89,115.89 C98.60,113.58 97.19,111.95 97.07,111.48 C96.93,110.86 97.48,110.12 98.88,109.00 C99.56,108.45 101.01,107.13 102.08,106.04 C103.76,104.33 105.17,103.07 107.12,101.53 C108.04,100.79 108.56,100.98 109.62,102.36 Z"/>
    <path class="ln mk" pathLength="1" style="--i:2" d="M109.23,15.96 C109.63,16.09 110.86,16.30 111.93,16.40 C113.00,16.50 114.64,16.70 115.58,16.84 C116.51,16.98 118.67,17.20 120.37,17.35 C122.37,17.50 123.81,17.71 124.53,17.94 C125.10,18.13 126.39,18.35 127.38,18.45 C128.60,18.57 129.47,18.76 130.11,19.03 C130.66,19.27 131.40,19.45 131.83,19.45 C132.32,19.45 132.88,19.61 133.42,19.90 C133.88,20.13 134.72,20.41 135.28,20.51 C135.84,20.59 136.52,20.80 136.80,20.97 C137.08,21.15 137.70,21.37 138.20,21.48 C138.67,21.58 139.32,21.80 139.64,21.98 C139.95,22.17 140.52,22.38 140.93,22.44 C141.32,22.49 141.92,22.73 142.26,22.95 C142.58,23.17 143.05,23.39 143.31,23.46 C143.56,23.51 144.26,23.80 144.87,24.07 C145.48,24.36 146.55,24.85 147.25,25.18 C149.22,26.09 150.53,26.77 150.90,27.10 C151.09,27.25 151.99,27.74 152.89,28.18 C153.80,28.62 154.58,29.07 154.65,29.15 C154.70,29.24 155.13,29.52 155.60,29.78 C157.62,30.88 159.20,31.88 159.39,32.21 C159.46,32.31 159.76,32.50 160.09,32.63 C160.39,32.77 161.43,33.46 162.36,34.18 C163.31,34.91 164.26,35.62 164.47,35.76 C164.65,35.89 165.52,36.59 166.35,37.30 C167.20,38.01 168.08,38.69 168.32,38.83 C170.10,39.78 178.07,48.36 180.28,51.74 C180.46,52.01 181.04,52.77 181.55,53.42 C182.93,55.15 183.59,56.07 183.59,56.25 C183.59,56.34 183.74,56.56 183.94,56.75 C184.15,56.92 184.49,57.41 184.73,57.83 C185.34,58.97 185.86,59.80 186.17,60.16 C186.30,60.33 186.59,60.80 186.80,61.23 C187.00,61.65 187.37,62.37 187.65,62.84 C187.92,63.30 188.27,63.96 188.43,64.29 C188.60,64.61 188.82,65.07 188.95,65.30 C189.07,65.54 189.41,66.19 189.70,66.75 C189.99,67.31 190.33,67.95 190.45,68.19 C190.96,69.11 191.72,70.86 191.82,71.32 C191.87,71.60 192.08,72.03 192.25,72.27 C192.44,72.52 192.66,73.10 192.76,73.54 C192.86,73.98 193.13,74.68 193.35,75.07 C193.59,75.46 193.78,75.92 193.78,76.10 C193.78,76.27 194.01,76.89 194.29,77.45 C194.56,78.01 194.80,78.67 194.80,78.91 C194.80,79.14 194.98,79.72 195.22,80.18 C195.46,80.64 195.73,81.54 195.83,82.18 C195.93,82.83 196.15,83.69 196.34,84.10 C196.51,84.51 196.73,85.39 196.82,86.09 C196.90,86.77 197.12,87.67 197.31,88.11 C197.50,88.53 197.70,89.49 197.77,90.22 C197.84,90.95 198.07,92.17 198.29,92.95 C198.53,93.73 198.79,95.11 198.87,96.01 C198.97,96.91 199.23,98.57 199.45,99.69 C199.70,100.95 199.91,102.63 199.96,104.11 C200.01,105.41 200.11,106.86 200.16,107.33 C200.25,108.11 200.21,108.25 199.70,108.90 C199.16,109.61 199.16,109.61 197.68,108.30 C196.87,107.59 195.90,106.72 195.53,106.40 C195.15,106.08 194.15,105.19 193.32,104.45 C191.87,103.16 191.55,102.92 189.99,102.02 C189.62,101.80 189.09,101.46 188.83,101.25 C188.56,101.05 188.07,100.66 187.71,100.40 C187.36,100.15 186.78,99.71 186.41,99.44 C186.05,99.15 185.66,98.93 185.54,98.93 C185.42,98.93 185.05,98.69 184.69,98.42 C184.33,98.13 183.98,97.91 183.88,97.91 C183.77,97.91 183.35,97.69 182.93,97.42 C182.50,97.14 181.92,96.87 181.65,96.82 C181.36,96.75 180.96,96.55 180.72,96.38 C180.46,96.21 179.95,95.99 179.58,95.89 C179.19,95.79 178.68,95.55 178.46,95.36 C178.22,95.19 177.68,94.95 177.25,94.85 C176.83,94.77 176.23,94.55 175.91,94.36 C175.61,94.17 174.98,93.93 174.50,93.82 C174.04,93.70 173.33,93.44 172.94,93.22 C172.55,93.02 171.75,92.80 171.16,92.73 C170.56,92.68 169.48,92.44 168.73,92.22 C167.20,91.76 163.36,91.44 159.63,91.47 C156.47,91.49 155.48,91.12 155.89,90.05 C156.08,89.59 157.90,87.35 158.57,86.77 C158.80,86.58 159.12,86.22 159.27,85.97 C159.42,85.73 159.90,85.09 160.32,84.54 C161.60,82.90 162.99,80.71 163.21,79.99 C163.33,79.62 163.57,79.13 163.72,78.89 C163.89,78.65 164.08,78.28 164.14,78.04 C164.21,77.80 164.43,77.31 164.65,76.94 C164.86,76.56 165.16,75.83 165.33,75.32 C165.50,74.81 165.74,74.24 165.86,74.05 C165.96,73.86 166.18,73.15 166.33,72.45 C166.49,71.77 166.74,70.98 166.90,70.69 C167.05,70.38 167.22,69.38 167.30,68.26 C167.39,67.21 167.59,66.05 167.73,65.69 C168.10,64.81 168.34,60.38 168.24,55.93 C168.12,50.85 168.13,50.87 163.07,50.87 C159.98,50.87 155.38,51.23 154.21,51.57 C153.89,51.65 152.94,51.87 152.09,52.06 C149.29,52.64 147.01,53.26 146.16,53.69 C145.69,53.91 145.14,54.10 144.92,54.10 C144.70,54.10 144.09,54.28 143.55,54.50 C143.02,54.72 142.29,55.00 141.93,55.12 C141.58,55.22 140.71,55.62 139.98,56.00 C138.13,56.98 136.87,57.65 136.38,57.90 C136.14,58.04 135.65,58.27 135.29,58.44 C133.95,59.09 133.39,59.39 132.98,59.79 C132.63,60.11 131.66,60.55 131.30,60.55 C131.25,60.55 131.18,59.05 131.18,57.24 C131.17,55.42 131.06,53.45 130.96,52.87 C130.84,52.28 130.66,51.23 130.52,50.53 C130.28,49.21 129.81,47.66 129.21,46.20 C129.03,45.72 128.74,45.01 128.59,44.59 C128.43,44.16 128.18,43.64 128.02,43.40 C127.87,43.16 127.65,42.63 127.55,42.21 C127.43,41.78 127.21,41.26 127.04,41.02 C126.87,40.78 126.65,40.26 126.53,39.83 C126.43,39.41 126.19,38.91 126.00,38.73 C125.83,38.52 125.60,38.12 125.49,37.79 C125.31,37.27 124.87,36.47 123.90,34.91 C123.69,34.58 123.29,33.92 123.00,33.45 C122.69,32.97 122.45,32.53 122.45,32.45 C122.45,32.38 122.27,32.09 122.01,31.78 C120.57,30.00 119.42,28.54 118.89,27.86 C118.21,26.96 116.12,24.70 113.95,22.53 C113.15,21.73 112.03,20.52 111.45,19.84 C110.87,19.18 110.23,18.57 110.02,18.52 C109.80,18.45 109.23,18.20 108.72,17.98 C107.12,17.23 105.20,17.77 103.79,19.35 C103.45,19.73 102.62,20.59 101.96,21.27 C101.28,21.95 100.19,23.21 99.53,24.07 C98.87,24.94 97.92,26.14 97.39,26.76 C96.27,28.10 94.95,29.90 94.95,30.12 C94.95,30.19 94.72,30.56 94.44,30.93 C94.16,31.29 93.93,31.68 93.93,31.78 C93.93,31.88 93.79,32.16 93.60,32.38 C93.08,33.06 91.07,36.38 90.95,36.81 C90.89,37.03 90.67,37.51 90.45,37.88 C90.24,38.25 89.97,38.86 89.85,39.22 C89.73,39.59 89.49,40.12 89.34,40.41 C89.17,40.70 88.95,41.33 88.85,41.80 C88.76,42.28 88.48,43.04 88.24,43.48 C88.00,43.94 87.81,44.54 87.81,44.82 C87.81,45.11 87.64,45.69 87.46,46.12 C87.25,46.54 87.03,47.56 86.95,48.41 C86.85,49.24 86.61,50.85 86.40,51.97 C85.98,54.30 85.93,57.03 86.27,58.99 C86.61,60.92 86.59,62.23 86.23,62.50 C85.72,62.88 84.65,62.38 83.41,61.23 C82.82,60.67 82.28,60.21 82.21,60.21 C82.14,60.21 81.82,60.01 81.48,59.73 C81.16,59.48 80.66,59.14 80.39,58.99 C80.14,58.82 79.58,58.43 79.15,58.09 C78.73,57.76 78.17,57.37 77.88,57.22 C77.61,57.07 77.22,56.81 77.03,56.64 C76.84,56.47 76.35,56.24 75.93,56.13 C75.50,56.02 74.94,55.79 74.65,55.62 C74.38,55.45 73.77,55.20 73.29,55.06 C72.84,54.91 72.14,54.64 71.77,54.45 C71.41,54.25 70.90,54.10 70.66,54.10 C70.42,54.10 69.85,53.91 69.39,53.69 C68.91,53.48 68.00,53.20 67.35,53.08 C66.69,52.96 65.40,52.69 64.46,52.47 C63.53,52.26 62.19,52.04 61.49,51.97 C60.80,51.92 59.45,51.72 58.52,51.55 C54.77,50.82 47.94,50.68 47.31,51.33 C46.92,51.70 46.50,53.40 46.50,54.52 C46.53,59.99 47.06,66.03 47.62,67.10 C47.75,67.38 47.96,68.16 48.06,68.84 C48.16,69.53 48.40,70.36 48.57,70.70 C48.74,71.04 48.98,71.77 49.10,72.32 C49.20,72.88 49.44,73.56 49.61,73.85 C49.79,74.15 50.01,74.75 50.10,75.19 C50.20,75.63 50.47,76.26 50.71,76.61 C50.95,76.95 51.13,77.33 51.13,77.45 C51.13,77.72 52.39,80.18 52.71,80.57 C52.85,80.72 53.05,81.13 53.15,81.47 C53.27,81.81 53.48,82.18 53.63,82.32 C53.78,82.44 54.04,82.85 54.22,83.22 C54.39,83.59 54.72,84.17 54.95,84.49 C55.53,85.31 55.96,85.94 56.69,87.04 C57.03,87.55 57.74,88.47 58.27,89.08 C59.35,90.35 59.78,91.20 59.49,91.49 C59.35,91.63 57.87,91.68 54.63,91.64 C49.69,91.59 47.13,91.78 45.44,92.30 C44.88,92.47 44.15,92.66 43.83,92.73 C43.03,92.86 40.25,93.78 39.08,94.27 C38.57,94.49 37.84,94.78 37.46,94.92 C36.21,95.36 34.25,96.23 33.98,96.45 C33.85,96.58 33.44,96.77 33.10,96.87 C32.74,96.99 32.40,97.16 32.35,97.26 C32.28,97.36 31.84,97.62 31.37,97.86 C30.26,98.38 29.07,99.08 28.46,99.56 C28.21,99.78 27.92,99.95 27.84,99.95 C27.65,99.95 27.17,100.32 24.17,102.85 C22.98,103.85 21.57,105.13 21.03,105.69 C20.06,106.70 19.31,107.32 17.88,108.20 C17.12,108.67 16.87,108.62 16.47,107.89 C16.15,107.30 16.61,98.25 17.10,95.28 C17.34,93.87 17.60,91.96 17.68,91.03 C17.77,89.93 17.93,89.06 18.17,88.57 C18.36,88.14 18.53,87.53 18.53,87.21 C18.53,86.48 18.80,85.48 19.62,83.22 C19.96,82.29 20.38,80.91 20.55,80.16 C20.86,78.86 21.21,77.87 22.01,76.09 C22.21,75.61 22.45,74.97 22.52,74.64 C22.59,74.32 22.91,73.47 23.23,72.78 C23.91,71.37 24.52,70.02 24.80,69.38 C24.90,69.14 25.25,68.50 25.58,67.94 C25.90,67.38 26.27,66.66 26.43,66.36 C27.07,64.98 27.24,64.64 27.78,63.69 C28.38,62.62 28.46,62.47 28.84,61.65 C28.96,61.36 29.24,60.87 29.48,60.55 C30.74,58.75 32.79,55.64 32.79,55.52 C32.79,55.47 33.01,55.12 33.27,54.72 C33.54,54.33 34.02,53.62 34.32,53.16 C34.64,52.69 35.26,51.89 35.70,51.38 C36.14,50.85 36.80,50.04 37.17,49.55 C38.48,47.81 44.22,41.84 46.70,39.66 C47.28,39.15 48.23,38.29 48.81,37.76 C49.38,37.22 49.91,36.78 49.98,36.78 C50.05,36.78 50.57,36.37 51.17,35.88 C51.76,35.37 52.49,34.84 52.80,34.67 C53.09,34.52 53.34,34.31 53.34,34.21 C53.34,34.13 53.66,33.89 54.07,33.72 C54.46,33.53 55.12,33.12 55.55,32.78 C56.75,31.87 58.55,30.66 58.72,30.66 C58.83,30.66 59.17,30.46 59.51,30.19 C61.05,29.03 61.63,28.62 61.78,28.62 C61.88,28.62 62.24,28.39 62.60,28.11 C62.95,27.83 63.41,27.61 63.63,27.61 C63.84,27.61 64.24,27.42 64.51,27.18 C64.80,26.94 65.28,26.65 65.60,26.55 C65.91,26.45 66.31,26.23 66.50,26.08 C66.69,25.91 67.16,25.69 67.54,25.58 C67.93,25.48 68.34,25.28 68.45,25.14 C68.56,25.02 69.01,24.77 69.44,24.62 C69.88,24.45 70.44,24.16 70.68,23.99 C70.93,23.80 71.48,23.60 71.90,23.51 C72.31,23.44 72.94,23.19 73.26,22.97 C73.60,22.75 74.19,22.51 74.58,22.44 C74.98,22.38 75.52,22.17 75.77,21.98 C76.05,21.80 76.66,21.58 77.15,21.49 C77.64,21.42 78.47,21.15 78.98,20.91 C79.49,20.68 80.09,20.47 80.31,20.47 C80.53,20.47 81.22,20.24 81.87,19.96 C82.51,19.68 83.25,19.45 83.52,19.45 C83.77,19.45 84.54,19.25 85.18,19.03 C85.86,18.78 87.08,18.52 88.02,18.44 C88.93,18.35 90.29,18.11 91.06,17.93 C91.80,17.72 93.48,17.50 94.78,17.40 C96.07,17.31 97.49,17.11 97.95,16.98 C98.39,16.82 99.68,16.64 100.80,16.55 C101.92,16.47 103.64,16.26 104.62,16.08 C106.83,15.68 108.24,15.65 109.23,15.96 Z"/>
    <path class="ln mk" pathLength="1" style="--i:3" d="M62.70,62.77 C63.12,62.93 63.84,63.11 64.31,63.18 C64.77,63.25 65.41,63.47 65.74,63.67 C66.06,63.89 66.71,64.15 67.18,64.27 C67.64,64.39 68.11,64.56 68.22,64.64 C68.34,64.73 68.86,65.03 69.41,65.32 C71.05,66.17 71.53,66.46 71.92,66.78 C72.11,66.97 72.44,67.22 72.65,67.36 C72.84,67.49 73.45,67.94 74.01,68.36 C74.55,68.79 75.18,69.26 75.42,69.43 C75.65,69.58 76.18,69.99 76.61,70.31 C77.03,70.64 77.59,71.06 77.86,71.23 C78.32,71.54 79.65,72.76 84.57,77.45 C85.74,78.55 88.17,80.93 89.94,82.71 C97.27,90.10 99.36,92.27 99.34,92.58 C99.31,93.75 97.17,96.29 94.10,98.84 C93.42,99.40 92.28,100.52 91.57,101.34 C90.00,103.17 89.21,103.77 88.54,103.60 C88.24,103.53 85.59,100.96 80.68,96.01 C76.62,91.88 71.92,87.12 70.24,85.44 C65.75,80.93 61.92,76.27 61.36,74.68 C61.25,74.37 61.02,73.91 60.81,73.68 C60.63,73.44 60.47,73.17 60.47,73.08 C60.47,73.00 60.20,72.39 59.88,71.71 C59.56,71.04 59.28,70.33 59.28,70.16 C59.28,69.99 59.10,69.43 58.86,68.92 C58.38,67.92 58.18,66.93 58.01,64.88 C57.91,63.52 57.91,63.50 58.42,63.03 C59.25,62.23 61.03,62.13 62.70,62.77 Z"/>
    <path class="ln mk" pathLength="1" style="--i:4" d="M155.18,62.74 C155.91,63.08 155.98,63.22 156.16,64.45 C156.23,64.88 156.38,65.54 156.52,65.93 C156.71,66.54 156.71,66.76 156.50,67.44 C156.37,67.89 156.21,68.79 156.15,69.45 C156.03,70.77 155.28,72.67 154.33,74.08 C153.17,75.78 152.05,77.28 151.24,78.19 C150.76,78.72 150.15,79.45 149.88,79.82 C149.22,80.74 132.98,96.91 131.54,98.08 C130.91,98.59 129.49,99.91 128.38,101.00 C125.46,103.87 125.17,103.87 123.03,101.19 C122.30,100.27 121.54,99.37 121.35,99.18 C119.38,97.30 116.75,94.89 116.41,94.66 C115.78,94.26 115.51,93.80 115.49,93.19 C115.49,92.59 115.51,92.58 117.28,90.93 C117.75,90.49 119.13,89.08 120.33,87.79 C123.47,84.44 134.17,73.79 135.79,72.42 C136.53,71.77 137.38,71.03 137.65,70.77 C138.77,69.70 141.42,67.55 141.97,67.26 C142.29,67.10 142.63,66.90 142.73,66.80 C143.04,66.53 144.23,65.85 145.16,65.41 C145.63,65.17 146.08,64.91 146.13,64.81 C146.18,64.73 146.60,64.52 147.04,64.35 C147.49,64.18 148.05,63.93 148.28,63.76 C148.52,63.59 149.17,63.33 149.73,63.20 C150.27,63.06 151.12,62.82 151.58,62.69 C152.78,62.33 154.31,62.35 155.18,62.74 Z"/>
    <path class="ln mk" pathLength="1" style="--i:5" d="M106.78,147.66 C106.00,147.97 103.83,149.70 103.27,150.47 C103.13,150.65 102.55,151.30 101.99,151.91 C100.91,153.06 99.51,154.83 98.94,155.75 C98.75,156.05 98.31,156.73 97.95,157.26 C97.59,157.80 97.12,158.63 96.88,159.11 C96.66,159.58 96.17,160.50 95.79,161.16 C95.44,161.81 95.05,162.73 94.96,163.17 C94.86,163.61 94.62,164.29 94.44,164.66 C94.25,165.02 94.01,165.95 93.91,166.72 C93.82,167.48 93.59,168.47 93.38,168.92 C92.92,169.99 92.99,175.89 93.48,177.26 C93.64,177.70 93.84,178.67 93.93,179.42 C94.01,180.15 94.23,181.05 94.42,181.41 C94.59,181.76 94.83,182.49 94.93,183.04 C95.03,183.58 95.30,184.34 95.54,184.75 C95.78,185.14 95.96,185.60 95.96,185.74 C95.96,185.87 96.20,186.28 96.47,186.64 C96.76,186.99 96.98,187.42 96.98,187.57 C96.98,187.72 97.17,188.15 97.41,188.49 C97.80,189.06 98.19,189.73 98.83,190.95 C98.97,191.19 99.31,191.66 99.60,192.00 C99.89,192.34 100.46,193.05 100.89,193.60 C101.91,194.91 104.56,197.40 105.30,197.74 C105.63,197.89 106.15,198.18 106.46,198.39 C107.41,198.98 108.45,199.20 109.21,198.96 C110.06,198.71 113.18,196.21 113.91,195.21 C114.83,193.95 115.53,193.02 116.43,191.88 C117.55,190.47 117.95,189.85 118.36,189.00 C118.53,188.62 119.04,187.77 119.48,187.13 C119.92,186.50 120.35,185.79 120.43,185.55 C120.52,185.33 120.74,184.95 120.91,184.70 C121.42,183.95 122.44,181.10 122.64,179.84 C122.74,179.18 122.93,178.23 123.05,177.72 C123.58,175.56 123.47,170.59 122.88,168.38 C122.74,167.87 122.56,166.95 122.45,166.36 C122.37,165.77 122.12,164.88 121.88,164.41 C121.64,163.93 121.08,162.79 120.64,161.86 C119.04,158.58 118.82,158.21 117.36,156.44 C116.89,155.87 116.04,154.80 115.44,154.08 C112.84,150.89 112.13,150.06 111.28,149.36 C110.79,148.94 110.28,148.50 110.14,148.38 C109.87,148.14 108.63,147.60 108.02,147.44 C107.78,147.39 107.24,147.48 106.78,147.66 Z"/>
    <path class="ln mk" pathLength="1" style="--i:6" d="M108.50,31.92 C109.14,32.26 110.69,34.01 111.21,35.03 C111.33,35.23 111.52,35.50 111.64,35.62 C111.77,35.74 112.08,36.15 112.32,36.52 C112.57,36.89 113.01,37.56 113.32,37.98 C114.68,39.92 115.27,40.87 115.41,41.36 C115.48,41.60 115.66,41.94 115.83,42.12 C115.99,42.31 116.21,42.72 116.31,43.02 C116.41,43.33 116.65,43.79 116.83,44.04 C117.00,44.30 117.24,44.84 117.36,45.27 C117.48,45.69 117.73,46.34 117.95,46.71 C118.16,47.08 118.40,47.80 118.45,48.31 C118.52,48.82 118.69,49.49 118.82,49.83 C119.72,51.92 119.84,66.02 118.97,67.66 C118.82,67.99 118.58,68.58 118.45,69.02 C118.33,69.45 118.02,70.08 117.79,70.40 C117.55,70.70 117.36,71.09 117.36,71.23 C117.36,71.38 116.90,72.18 116.34,73.01 C115.78,73.83 115.32,74.61 115.32,74.71 C115.32,74.83 115.19,75.07 115.03,75.26 C114.56,75.76 113.74,76.83 113.29,77.53 C113.05,77.89 112.52,78.62 112.11,79.16 C111.71,79.72 111.03,80.62 110.62,81.16 C109.77,82.30 108.51,83.47 108.14,83.47 C107.46,83.47 105.54,81.25 102.59,77.00 C102.26,76.55 101.58,75.65 101.09,75.02 C99.75,73.30 98.78,71.45 98.15,69.33 C97.95,68.65 97.65,67.83 97.49,67.51 C97.32,67.19 97.10,66.32 96.98,65.59 C96.88,64.86 96.64,63.95 96.47,63.55 C95.73,61.87 95.76,55.40 96.54,53.50 C96.68,53.13 96.88,52.31 96.97,51.70 C97.05,51.09 97.29,50.26 97.48,49.88 C97.68,49.49 97.92,48.78 98.02,48.29 C98.22,47.41 98.92,45.49 99.53,44.16 C99.70,43.79 100.16,42.79 100.55,41.95 C100.94,41.11 101.36,40.31 101.48,40.17 C101.60,40.04 101.84,39.58 102.01,39.15 C102.59,37.71 104.05,35.47 105.35,34.01 C107.63,31.44 107.61,31.46 108.50,31.92 Z"/>
    <path class="ln mk" pathLength="1" style="--i:7" d="M163.04,102.66 C163.55,102.76 164.82,102.92 165.84,103.00 C166.88,103.09 168.05,103.27 168.46,103.43 C168.88,103.56 169.75,103.77 170.41,103.87 C171.07,103.97 172.01,104.23 172.48,104.45 C172.96,104.68 173.69,104.94 174.08,105.02 C174.49,105.11 175.01,105.35 175.27,105.53 C175.52,105.70 176.03,105.94 176.39,106.04 C176.74,106.14 177.24,106.35 177.47,106.52 C177.97,106.87 178.90,107.40 180.19,108.01 C180.70,108.27 181.24,108.57 181.38,108.69 C181.52,108.81 181.82,108.96 182.06,109.03 C182.30,109.10 182.77,109.39 183.13,109.66 C184.15,110.47 184.03,110.90 182.45,112.24 C181.72,112.85 180.96,113.50 180.73,113.68 C180.53,113.89 180.14,114.14 179.89,114.28 C179.61,114.41 179.29,114.65 179.17,114.80 C179.04,114.96 178.66,115.23 178.34,115.42 C178.00,115.59 177.61,115.81 177.47,115.89 C177.34,115.98 176.69,116.28 176.03,116.59 C175.39,116.88 174.42,117.33 173.91,117.59 C173.40,117.86 172.67,118.17 172.30,118.29 C171.92,118.40 171.43,118.64 171.21,118.81 C171.00,118.98 170.55,119.17 170.19,119.24 C169.85,119.29 169.00,119.47 168.30,119.64 C166.39,120.10 164.48,120.31 160.83,120.43 C157.44,120.54 150.88,120.27 149.79,119.98 C149.47,119.90 148.56,119.66 147.76,119.47 C146.98,119.27 146.13,118.96 145.89,118.81 C145.65,118.64 145.19,118.42 144.87,118.30 C144.55,118.20 144.14,117.96 143.94,117.79 C143.75,117.61 143.26,117.37 142.83,117.27 C142.41,117.15 141.88,116.93 141.64,116.76 C141.41,116.60 140.93,116.37 140.59,116.26 C140.25,116.15 139.88,115.94 139.76,115.81 C139.64,115.65 139.27,115.40 138.94,115.21 C138.60,115.03 138.06,114.67 137.72,114.41 C137.38,114.16 136.80,113.73 136.45,113.46 C135.28,112.56 134.51,111.70 134.51,111.22 C134.51,110.71 135.79,109.42 136.63,109.08 C136.92,108.98 137.36,108.71 137.62,108.49 C137.89,108.27 138.25,108.10 138.40,108.10 C138.57,108.10 138.99,107.86 139.35,107.59 C139.71,107.30 140.13,107.08 140.29,107.08 C140.44,107.08 140.85,106.89 141.17,106.67 C141.51,106.45 142.03,106.18 142.36,106.08 C142.68,105.97 143.21,105.69 143.51,105.46 C143.83,105.23 144.21,105.04 144.34,105.04 C144.50,105.04 145.07,104.80 145.63,104.53 C146.19,104.24 146.86,104.02 147.11,104.02 C147.37,104.02 148.16,103.82 148.89,103.58 C149.88,103.26 150.93,103.09 152.94,102.92 C154.43,102.80 155.82,102.63 156.04,102.54 C156.54,102.36 161.80,102.44 163.04,102.66 Z"/>
    <path class="ln mk" pathLength="1" style="--i:8" d="M62.14,103.00 C63.80,103.12 64.60,103.26 65.19,103.51 C65.64,103.72 66.50,103.94 67.15,104.02 C67.86,104.11 68.57,104.33 69.03,104.60 C69.46,104.84 69.86,105.04 69.97,105.04 C70.17,105.04 72.77,106.31 74.31,107.16 C74.87,107.47 75.59,107.84 75.91,108.00 C76.23,108.15 76.57,108.39 76.67,108.54 C76.78,108.67 77.15,108.96 77.49,109.17 C79.29,110.27 80.34,111.22 80.34,111.75 C80.34,112.27 77.64,114.52 76.18,115.20 C75.81,115.38 75.40,115.64 75.28,115.79 C75.15,115.94 74.77,116.15 74.43,116.26 C74.09,116.37 73.62,116.60 73.38,116.76 C73.14,116.93 72.77,117.11 72.53,117.18 C72.29,117.25 71.70,117.54 71.19,117.79 C70.68,118.06 70.19,118.29 70.08,118.29 C69.98,118.29 69.63,118.47 69.30,118.69 C68.61,119.15 65.87,119.88 63.36,120.24 C58.74,120.92 49.01,120.63 46.23,119.71 C45.55,119.49 44.85,119.30 44.68,119.30 C44.53,119.30 43.98,119.08 43.47,118.81 C42.97,118.56 42.37,118.27 42.13,118.20 C41.90,118.13 41.49,117.90 41.23,117.67 C40.96,117.45 40.59,117.27 40.38,117.27 C40.18,117.27 39.82,117.15 39.59,117.01 C39.35,116.88 38.79,116.57 38.31,116.33 C37.19,115.76 36.58,115.35 35.15,114.16 C34.49,113.63 33.85,113.19 33.73,113.19 C33.39,113.19 31.71,111.51 31.35,110.83 C31.13,110.39 31.10,110.17 31.25,109.86 C31.44,109.42 33.05,108.10 33.39,108.10 C33.51,108.10 34.10,107.88 34.70,107.59 C35.27,107.32 35.97,107.08 36.22,107.08 C36.46,107.08 36.89,106.89 37.16,106.67 C37.43,106.45 37.99,106.18 38.40,106.06 C38.82,105.94 39.47,105.67 39.86,105.45 C40.23,105.23 40.66,105.04 40.79,105.04 C40.93,105.04 41.39,104.85 41.83,104.62 C42.30,104.36 43.17,104.12 43.95,104.00 C44.68,103.90 45.75,103.68 46.34,103.51 C47.26,103.22 48.40,103.09 52.75,102.76 C53.92,102.68 59.39,102.82 62.14,103.00 Z"/>
    <path class="ln mk" pathLength="1" style="--i:9" d="M109.31,162.90 C110.16,163.44 111.06,165.63 111.25,167.55 C111.33,168.48 111.45,169.31 111.50,169.40 C111.74,169.79 111.86,175.61 111.65,176.62 C111.54,177.18 111.38,178.62 111.32,179.83 C111.16,183.02 110.25,184.65 108.80,184.28 C107.78,184.02 105.92,181.59 104.54,178.74 C104.28,178.23 103.95,177.53 103.78,177.19 C102.99,175.70 102.94,171.96 103.69,170.33 C103.89,169.86 104.13,169.25 104.18,168.97 C104.30,168.48 105.08,166.72 105.56,165.83 C105.69,165.60 105.98,165.05 106.22,164.63 C107.12,162.98 108.36,162.27 109.31,162.90 Z"/>
    <path class="ln mk" pathLength="1" style="--i:10" d="M133.75,157.04 C132.92,157.46 131.83,158.99 131.62,160.01 C131.39,161.15 131.49,163.35 131.81,163.73 C132.46,164.51 133.68,164.87 135.31,164.76 C138.03,164.58 139.11,163.74 138.72,162.10 C138.66,161.77 138.59,161.28 138.59,161.01 C138.59,159.97 136.74,157.84 135.28,157.16 C134.51,156.80 134.24,156.78 133.75,157.04 Z"/>
    <path class="ln mk" pathLength="1" style="--i:11" d="M79.81,157.85 C79.15,158.43 78.91,158.80 78.37,160.16 C77.73,161.81 77.73,161.81 78.24,162.74 C78.78,163.76 79.20,164.08 80.60,164.56 C81.53,164.88 81.53,164.88 82.84,164.46 C84.60,163.88 84.89,163.51 84.62,162.11 C84.28,160.21 83.72,159.04 82.75,158.07 C81.58,156.90 80.97,156.85 79.81,157.85 Z"/>
      <path class="fill markfill" fill-rule="evenodd" d="M99.95,3.19 C98.56,3.27 96.80,3.47 96.05,3.66 C95.30,3.83 93.88,4.07 92.87,4.17 C91.87,4.27 90.58,4.51 89.99,4.70 C89.41,4.88 88.22,5.11 87.35,5.19 C86.51,5.27 85.47,5.48 85.06,5.61 C84.65,5.75 83.65,5.99 82.80,6.12 C81.97,6.28 80.71,6.58 80.04,6.80 C79.36,7.04 78.68,7.23 78.51,7.23 C78.35,7.24 77.91,7.36 77.54,7.50 C77.17,7.65 76.25,7.94 75.50,8.16 C74.75,8.37 73.77,8.71 73.29,8.89 C72.84,9.08 72.07,9.35 71.60,9.52 C69.73,10.15 68.62,10.61 66.91,11.44 C65.91,11.93 64.99,12.32 64.85,12.32 C64.74,12.32 64.34,12.51 64.02,12.73 C63.68,12.97 63.19,13.21 62.94,13.27 C62.51,13.38 61.83,13.71 58.78,15.29 C58.42,15.48 57.99,15.75 57.82,15.91 C57.64,16.06 57.21,16.28 56.87,16.38 C56.53,16.50 56.16,16.70 56.02,16.86 C55.91,17.01 55.50,17.26 55.12,17.45 C54.50,17.74 53.44,18.32 51.98,19.20 C51.68,19.39 51.17,19.74 50.88,20.00 C50.57,20.27 50.25,20.47 50.17,20.47 C50.08,20.47 49.76,20.69 49.44,20.98 C49.11,21.25 48.76,21.48 48.65,21.49 C48.57,21.49 48.33,21.63 48.14,21.81 C47.96,21.98 47.47,22.36 47.06,22.61 C46.67,22.88 46.14,23.24 45.90,23.39 C45.67,23.55 45.27,23.84 45.04,24.02 C43.88,24.96 43.47,25.26 42.63,25.89 C42.12,26.26 41.42,26.77 41.06,27.05 C40.69,27.30 40.20,27.72 39.96,27.96 C39.70,28.20 38.60,29.18 37.50,30.14 C33.49,33.63 28.48,39.00 26.09,42.38 C25.66,42.99 25.08,43.79 24.80,44.16 C24.03,45.18 22.50,47.41 21.79,48.54 C21.64,48.80 21.11,49.55 20.63,50.17 C20.18,50.82 19.51,51.79 19.19,52.31 C18.87,52.84 18.44,53.52 18.24,53.81 C18.04,54.11 17.66,54.72 17.43,55.20 C17.19,55.66 16.73,56.47 16.41,56.98 C16.08,57.49 15.74,58.10 15.63,58.34 C15.22,59.24 14.93,59.82 14.45,60.63 C14.18,61.09 13.84,61.75 13.69,62.08 C13.54,62.40 13.18,63.11 12.91,63.64 C12.64,64.17 12.42,64.73 12.42,64.86 C12.42,65.02 12.20,65.58 11.91,66.10 C11.63,66.63 11.40,67.19 11.40,67.34 C11.40,67.49 11.21,67.90 10.97,68.24 C10.75,68.58 10.48,69.19 10.38,69.58 C10.26,69.99 10.04,70.53 9.87,70.82 C9.70,71.09 9.48,71.76 9.39,72.27 C9.29,72.78 9.02,73.62 8.78,74.13 C8.54,74.64 8.34,75.20 8.34,75.37 C8.34,75.54 8.15,76.05 7.92,76.53 C7.68,76.99 7.39,77.82 7.30,78.35 C7.20,78.87 6.98,79.59 6.80,79.92 C6.63,80.26 6.40,81.06 6.30,81.71 C6.20,82.34 5.96,83.29 5.79,83.83 C5.61,84.36 5.39,85.70 5.28,86.80 C5.18,87.92 4.98,89.35 4.84,90.01 C4.69,90.66 4.50,91.85 4.42,92.64 C4.18,94.73 3.96,96.01 3.69,97.03 C2.86,99.98 2.96,116.08 3.84,120.15 C3.98,120.85 4.18,122.23 4.28,123.21 C4.37,124.20 4.59,125.60 4.77,126.35 C4.94,127.10 5.18,128.47 5.30,129.41 C5.40,130.34 5.64,131.48 5.83,131.92 C6.00,132.38 6.22,133.33 6.32,134.04 C6.42,134.76 6.64,135.62 6.83,135.98 C7.02,136.35 7.25,137.07 7.34,137.61 C7.44,138.14 7.66,138.83 7.83,139.17 C8.00,139.51 8.22,140.23 8.32,140.77 C8.43,141.33 8.66,142.03 8.85,142.35 C9.04,142.67 9.24,143.25 9.29,143.64 C9.36,144.03 9.58,144.67 9.80,145.05 C10.02,145.44 10.28,146.12 10.38,146.58 C10.48,147.04 10.70,147.61 10.87,147.85 C11.06,148.09 11.26,148.55 11.36,148.87 C11.45,149.19 11.72,149.75 11.97,150.11 C12.21,150.47 12.42,150.92 12.42,151.13 C12.42,151.33 12.60,151.77 12.84,152.11 C13.06,152.45 13.33,153.05 13.42,153.44 C13.50,153.83 13.77,154.42 14.01,154.78 C14.25,155.12 14.45,155.49 14.45,155.58 C14.45,155.75 14.93,156.54 15.74,157.75 C16.22,158.45 16.92,159.67 17.51,160.82 C17.99,161.76 18.39,162.49 19.29,163.97 C19.48,164.27 19.84,164.78 20.09,165.07 C20.36,165.37 20.57,165.70 20.57,165.78 C20.57,165.88 20.80,166.24 21.08,166.60 C21.37,166.95 21.59,167.31 21.59,167.41 C21.59,167.50 21.77,167.80 22.03,168.11 C23.18,169.54 23.62,170.13 23.62,170.25 C23.62,170.42 25.39,172.64 26.10,173.37 C26.31,173.56 26.56,173.92 26.68,174.15 C27.65,176.01 33.01,181.95 36.44,184.99 C37.57,185.97 38.64,186.92 38.82,187.09 C39.37,187.59 41.69,189.47 42.54,190.12 C43.44,190.80 44.56,191.66 45.19,192.17 C45.82,192.68 46.75,193.31 47.23,193.55 C47.47,193.67 47.92,193.99 48.26,194.28 C48.91,194.80 49.62,195.31 50.61,195.94 C50.93,196.15 51.51,196.52 51.88,196.79 C52.27,197.05 52.92,197.42 53.34,197.61 C53.77,197.81 54.33,198.15 54.58,198.37 C54.85,198.59 55.16,198.78 55.28,198.78 C55.40,198.78 55.79,199.00 56.14,199.29 C56.50,199.56 56.87,199.80 56.99,199.80 C57.11,199.80 57.38,199.95 57.62,200.12 C57.86,200.31 58.44,200.61 58.93,200.80 C59.42,200.98 59.96,201.24 60.12,201.38 C60.27,201.51 60.68,201.71 61.02,201.82 C61.36,201.94 61.81,202.16 62.04,202.33 C62.26,202.50 62.73,202.73 63.11,202.85 C63.48,202.97 63.97,203.21 64.19,203.38 C64.41,203.57 64.68,203.70 64.79,203.70 C64.91,203.70 65.52,203.97 66.18,204.30 C66.82,204.62 67.47,204.89 67.61,204.89 C67.74,204.89 68.32,205.13 68.88,205.40 C69.44,205.67 70.05,205.91 70.24,205.91 C70.42,205.91 71.04,206.15 71.60,206.42 C72.16,206.69 72.73,206.93 72.87,206.93 C73.01,206.93 73.53,207.12 74.04,207.35 C74.53,207.59 75.26,207.83 75.65,207.90 C76.03,207.95 76.74,208.18 77.23,208.39 C77.71,208.61 78.63,208.86 79.27,208.97 C79.92,209.05 80.80,209.29 81.24,209.48 C81.70,209.68 82.74,209.90 83.60,210.00 C84.45,210.09 85.62,210.31 86.20,210.48 C86.79,210.66 87.83,210.88 88.54,210.99 C89.24,211.09 90.17,211.29 90.61,211.43 C91.04,211.58 92.53,211.85 93.89,212.02 C95.27,212.19 97.12,212.48 98.00,212.65 C100.65,213.14 114.93,213.11 117.79,212.58 C118.91,212.38 120.52,212.12 121.35,212.02 C122.20,211.92 123.58,211.65 124.41,211.43 C125.26,211.21 126.43,210.97 127.02,210.92 C127.63,210.85 128.55,210.65 129.06,210.46 C129.59,210.29 130.61,210.07 131.32,209.97 C132.03,209.88 133.19,209.63 133.87,209.41 C134.55,209.19 135.55,208.95 136.09,208.88 C136.63,208.83 137.48,208.59 137.96,208.35 C138.45,208.13 139.03,207.95 139.27,207.95 C139.50,207.95 140.18,207.71 140.76,207.44 C141.36,207.15 142.02,206.93 142.22,206.93 C142.44,206.93 142.99,206.72 143.43,206.49 C143.89,206.25 144.62,205.99 145.07,205.91 C145.53,205.81 146.13,205.59 146.40,205.40 C146.67,205.21 147.23,205.01 147.67,204.94 C148.11,204.89 148.73,204.67 149.05,204.45 C149.35,204.23 149.95,203.97 150.34,203.87 C150.75,203.75 151.22,203.53 151.41,203.36 C151.59,203.19 152.07,202.97 152.44,202.87 C152.83,202.77 153.24,202.56 153.36,202.43 C153.46,202.31 153.92,202.05 154.35,201.90 C154.79,201.73 155.30,201.48 155.48,201.31 C155.67,201.15 156.13,200.93 156.50,200.83 C156.88,200.73 157.45,200.46 157.78,200.22 C158.10,199.98 158.44,199.80 158.56,199.80 C158.66,199.80 159.03,199.56 159.39,199.29 C159.75,199.00 160.12,198.78 160.24,198.78 C160.36,198.78 160.73,198.54 161.09,198.27 C161.44,197.98 161.82,197.76 161.94,197.76 C162.06,197.76 162.43,197.52 162.79,197.25 C163.14,196.96 163.57,196.74 163.72,196.74 C163.87,196.74 164.28,196.54 164.62,196.26 C164.94,196.01 165.43,195.67 165.71,195.52 C165.96,195.35 166.49,195.01 166.88,194.75 C167.25,194.48 167.83,194.11 168.15,193.90 C169.29,193.19 169.88,192.73 171.07,191.71 C171.75,191.15 172.69,190.41 173.14,190.05 C173.62,189.71 174.45,188.98 175.01,188.45 C175.57,187.93 177.07,186.52 178.32,185.34 C181.94,181.97 185.23,178.62 188.04,175.50 C190.79,172.42 191.62,171.44 192.84,169.74 C194.81,167.01 195.70,165.73 195.81,165.43 C195.88,165.22 196.26,164.58 196.65,163.97 C197.02,163.35 197.53,162.49 197.78,162.03 C198.02,161.57 198.58,160.71 199.02,160.08 C199.45,159.47 200.11,158.34 200.47,157.60 C200.82,156.85 201.20,156.09 201.30,155.90 C201.52,155.47 201.71,155.08 202.54,153.35 C202.90,152.60 203.32,151.79 203.49,151.54 C203.80,151.09 203.98,150.64 204.90,147.99 C205.12,147.37 205.44,146.58 205.65,146.22 C205.85,145.85 206.00,145.42 206.00,145.29 C206.00,145.15 206.19,144.64 206.43,144.18 C206.65,143.71 206.85,143.27 206.85,143.20 C206.85,143.13 207.07,142.47 207.34,141.75 C207.97,140.12 208.99,136.34 209.14,135.10 C209.21,134.59 209.40,133.82 209.59,133.40 C209.76,132.97 209.98,132.07 210.08,131.40 C210.18,130.70 210.40,129.87 210.57,129.53 C210.74,129.19 211.01,128.02 211.17,126.95 C211.32,125.88 211.56,124.57 211.69,124.06 C211.83,123.55 212.03,121.97 212.12,120.58 C212.22,119.17 212.42,116.81 212.57,115.31 C212.98,111.58 212.98,102.43 212.59,99.52 C212.44,98.40 212.27,96.79 212.20,95.96 C212.08,94.34 211.67,91.85 211.42,91.17 C211.34,90.95 211.20,90.08 211.10,89.25 C211.00,88.42 210.77,87.35 210.61,86.90 C210.42,86.45 210.20,85.48 210.10,84.76 C209.99,84.05 209.77,83.19 209.59,82.83 C209.42,82.49 209.18,81.62 209.08,80.93 C208.96,80.23 208.69,79.11 208.47,78.43 C208.23,77.77 208.04,77.04 208.04,76.82 C208.04,76.60 207.87,76.09 207.68,75.66 C207.48,75.24 207.19,74.41 207.02,73.79 C206.67,72.50 205.87,70.57 205.34,69.72 C205.15,69.40 204.98,68.97 204.98,68.79 C204.98,68.60 204.75,67.99 204.47,67.43 C204.20,66.87 203.97,66.25 203.97,66.05 C203.97,65.85 203.78,65.42 203.54,65.08 C203.32,64.74 203.05,64.17 202.95,63.81 C202.86,63.44 202.64,62.96 202.47,62.74 C202.28,62.52 202.06,62.08 201.96,61.77 C201.86,61.47 201.62,61.01 201.45,60.75 C201.28,60.50 201.04,60.04 200.94,59.73 C200.84,59.43 200.60,58.97 200.43,58.72 C200.25,58.46 200.04,58.07 199.97,57.83 C199.82,57.34 198.77,55.54 198.34,55.03 C198.19,54.84 197.94,54.42 197.78,54.10 C197.63,53.77 197.24,53.08 196.92,52.57 C196.60,52.06 196.17,51.31 195.98,50.94 C195.80,50.55 195.53,50.14 195.37,50.00 C195.24,49.88 194.97,49.51 194.78,49.19 C194.59,48.85 194.22,48.27 193.93,47.90 C193.66,47.52 193.17,46.83 192.84,46.37 C191.38,44.23 187.36,39.31 185.98,37.96 C185.74,37.73 185.20,37.15 184.78,36.69 C183.62,35.43 178.17,30.25 177.39,29.66 C177.02,29.39 176.13,28.61 175.44,27.95 C174.74,27.28 173.96,26.62 173.70,26.48 C173.43,26.35 173.23,26.18 173.23,26.11 C173.23,26.04 172.97,25.84 172.69,25.65 C172.38,25.48 171.62,24.91 170.99,24.40 C170.38,23.87 169.61,23.28 169.29,23.05 C168.98,22.85 168.46,22.48 168.13,22.26 C167.81,22.02 167.22,21.70 166.84,21.51 C166.45,21.32 166.11,21.10 166.08,21.02 C166.01,20.86 164.91,20.10 164.06,19.61 C163.80,19.47 163.35,19.15 163.04,18.89 C162.75,18.64 162.40,18.44 162.28,18.44 C162.14,18.44 161.77,18.20 161.46,17.93 C161.14,17.64 160.76,17.42 160.63,17.42 C160.48,17.42 160.09,17.18 159.73,16.91 C159.37,16.62 159.00,16.40 158.88,16.40 C158.76,16.40 158.39,16.16 158.03,15.89 C157.67,15.60 157.25,15.38 157.10,15.38 C156.93,15.38 156.60,15.23 156.37,15.04 C156.13,14.85 155.65,14.58 155.33,14.44 C155.01,14.31 154.46,14.00 154.11,13.77 C153.77,13.53 153.31,13.34 153.12,13.34 C152.92,13.34 152.49,13.15 152.17,12.92 C151.85,12.68 151.29,12.41 150.92,12.31 C150.56,12.20 150.05,11.97 149.79,11.80 C149.54,11.61 149.01,11.37 148.62,11.29 C148.23,11.20 147.69,10.96 147.42,10.78 C147.16,10.57 146.57,10.35 146.13,10.27 C145.67,10.18 145.07,9.96 144.82,9.76 C144.56,9.57 143.95,9.35 143.46,9.27 C142.97,9.20 142.19,8.93 141.75,8.69 C141.29,8.45 140.69,8.25 140.42,8.25 C140.15,8.25 139.40,8.03 138.79,7.75 C138.16,7.48 137.25,7.21 136.74,7.16 C136.23,7.09 135.53,6.89 135.17,6.70 C134.82,6.53 133.93,6.29 133.20,6.19 C132.49,6.09 131.59,5.85 131.22,5.67 C130.76,5.43 129.99,5.27 128.84,5.17 C127.89,5.11 126.67,4.88 126.12,4.70 C125.56,4.49 124.26,4.26 123.15,4.17 C122.06,4.07 120.54,3.85 119.74,3.66 C117.07,3.05 106.51,2.80 99.95,3.19 Z M109.23,15.96 C109.63,16.09 110.86,16.30 111.93,16.40 C113.00,16.50 114.64,16.70 115.58,16.84 C116.51,16.98 118.67,17.20 120.37,17.35 C122.37,17.50 123.81,17.71 124.53,17.94 C125.10,18.13 126.39,18.35 127.38,18.45 C128.60,18.57 129.47,18.76 130.11,19.03 C130.66,19.27 131.40,19.45 131.83,19.45 C132.32,19.45 132.88,19.61 133.42,19.90 C133.88,20.13 134.72,20.41 135.28,20.51 C135.84,20.59 136.52,20.80 136.80,20.97 C137.08,21.15 137.70,21.37 138.20,21.48 C138.67,21.58 139.32,21.80 139.64,21.98 C139.95,22.17 140.52,22.38 140.93,22.44 C141.32,22.49 141.92,22.73 142.26,22.95 C142.58,23.17 143.05,23.39 143.31,23.46 C143.56,23.51 144.26,23.80 144.87,24.07 C145.48,24.36 146.55,24.85 147.25,25.18 C149.22,26.09 150.53,26.77 150.90,27.10 C151.09,27.25 151.99,27.74 152.89,28.18 C153.80,28.62 154.58,29.07 154.65,29.15 C154.70,29.24 155.13,29.52 155.60,29.78 C157.62,30.88 159.20,31.88 159.39,32.21 C159.46,32.31 159.76,32.50 160.09,32.63 C160.39,32.77 161.43,33.46 162.36,34.18 C163.31,34.91 164.26,35.62 164.47,35.76 C164.65,35.89 165.52,36.59 166.35,37.30 C167.20,38.01 168.08,38.69 168.32,38.83 C170.10,39.78 178.07,48.36 180.28,51.74 C180.46,52.01 181.04,52.77 181.55,53.42 C182.93,55.15 183.59,56.07 183.59,56.25 C183.59,56.34 183.74,56.56 183.94,56.75 C184.15,56.92 184.49,57.41 184.73,57.83 C185.34,58.97 185.86,59.80 186.17,60.16 C186.30,60.33 186.59,60.80 186.80,61.23 C187.00,61.65 187.37,62.37 187.65,62.84 C187.92,63.30 188.27,63.96 188.43,64.29 C188.60,64.61 188.82,65.07 188.95,65.30 C189.07,65.54 189.41,66.19 189.70,66.75 C189.99,67.31 190.33,67.95 190.45,68.19 C190.96,69.11 191.72,70.86 191.82,71.32 C191.87,71.60 192.08,72.03 192.25,72.27 C192.44,72.52 192.66,73.10 192.76,73.54 C192.86,73.98 193.13,74.68 193.35,75.07 C193.59,75.46 193.78,75.92 193.78,76.10 C193.78,76.27 194.01,76.89 194.29,77.45 C194.56,78.01 194.80,78.67 194.80,78.91 C194.80,79.14 194.98,79.72 195.22,80.18 C195.46,80.64 195.73,81.54 195.83,82.18 C195.93,82.83 196.15,83.69 196.34,84.10 C196.51,84.51 196.73,85.39 196.82,86.09 C196.90,86.77 197.12,87.67 197.31,88.11 C197.50,88.53 197.70,89.49 197.77,90.22 C197.84,90.95 198.07,92.17 198.29,92.95 C198.53,93.73 198.79,95.11 198.87,96.01 C198.97,96.91 199.23,98.57 199.45,99.69 C199.70,100.95 199.91,102.63 199.96,104.11 C200.01,105.41 200.11,106.86 200.16,107.33 C200.25,108.11 200.21,108.25 199.70,108.90 C199.16,109.61 199.16,109.61 197.68,108.30 C196.87,107.59 195.90,106.72 195.53,106.40 C195.15,106.08 194.15,105.19 193.32,104.45 C191.87,103.16 191.55,102.92 189.99,102.02 C189.62,101.80 189.09,101.46 188.83,101.25 C188.56,101.05 188.07,100.66 187.71,100.40 C187.36,100.15 186.78,99.71 186.41,99.44 C186.05,99.15 185.66,98.93 185.54,98.93 C185.42,98.93 185.05,98.69 184.69,98.42 C184.33,98.13 183.98,97.91 183.88,97.91 C183.77,97.91 183.35,97.69 182.93,97.42 C182.50,97.14 181.92,96.87 181.65,96.82 C181.36,96.75 180.96,96.55 180.72,96.38 C180.46,96.21 179.95,95.99 179.58,95.89 C179.19,95.79 178.68,95.55 178.46,95.36 C178.22,95.19 177.68,94.95 177.25,94.85 C176.83,94.77 176.23,94.55 175.91,94.36 C175.61,94.17 174.98,93.93 174.50,93.82 C174.04,93.70 173.33,93.44 172.94,93.22 C172.55,93.02 171.75,92.80 171.16,92.73 C170.56,92.68 169.48,92.44 168.73,92.22 C167.20,91.76 163.36,91.44 159.63,91.47 C156.47,91.49 155.48,91.12 155.89,90.05 C156.08,89.59 157.90,87.35 158.57,86.77 C158.80,86.58 159.12,86.22 159.27,85.97 C159.42,85.73 159.90,85.09 160.32,84.54 C161.60,82.90 162.99,80.71 163.21,79.99 C163.33,79.62 163.57,79.13 163.72,78.89 C163.89,78.65 164.08,78.28 164.14,78.04 C164.21,77.80 164.43,77.31 164.65,76.94 C164.86,76.56 165.16,75.83 165.33,75.32 C165.50,74.81 165.74,74.24 165.86,74.05 C165.96,73.86 166.18,73.15 166.33,72.45 C166.49,71.77 166.74,70.98 166.90,70.69 C167.05,70.38 167.22,69.38 167.30,68.26 C167.39,67.21 167.59,66.05 167.73,65.69 C168.10,64.81 168.34,60.38 168.24,55.93 C168.12,50.85 168.13,50.87 163.07,50.87 C159.98,50.87 155.38,51.23 154.21,51.57 C153.89,51.65 152.94,51.87 152.09,52.06 C149.29,52.64 147.01,53.26 146.16,53.69 C145.69,53.91 145.14,54.10 144.92,54.10 C144.70,54.10 144.09,54.28 143.55,54.50 C143.02,54.72 142.29,55.00 141.93,55.12 C141.58,55.22 140.71,55.62 139.98,56.00 C138.13,56.98 136.87,57.65 136.38,57.90 C136.14,58.04 135.65,58.27 135.29,58.44 C133.95,59.09 133.39,59.39 132.98,59.79 C132.63,60.11 131.66,60.55 131.30,60.55 C131.25,60.55 131.18,59.05 131.18,57.24 C131.17,55.42 131.06,53.45 130.96,52.87 C130.84,52.28 130.66,51.23 130.52,50.53 C130.28,49.21 129.81,47.66 129.21,46.20 C129.03,45.72 128.74,45.01 128.59,44.59 C128.43,44.16 128.18,43.64 128.02,43.40 C127.87,43.16 127.65,42.63 127.55,42.21 C127.43,41.78 127.21,41.26 127.04,41.02 C126.87,40.78 126.65,40.26 126.53,39.83 C126.43,39.41 126.19,38.91 126.00,38.73 C125.83,38.52 125.60,38.12 125.49,37.79 C125.31,37.27 124.87,36.47 123.90,34.91 C123.69,34.58 123.29,33.92 123.00,33.45 C122.69,32.97 122.45,32.53 122.45,32.45 C122.45,32.38 122.27,32.09 122.01,31.78 C120.57,30.00 119.42,28.54 118.89,27.86 C118.21,26.96 116.12,24.70 113.95,22.53 C113.15,21.73 112.03,20.52 111.45,19.84 C110.87,19.18 110.23,18.57 110.02,18.52 C109.80,18.45 109.23,18.20 108.72,17.98 C107.12,17.23 105.20,17.77 103.79,19.35 C103.45,19.73 102.62,20.59 101.96,21.27 C101.28,21.95 100.19,23.21 99.53,24.07 C98.87,24.94 97.92,26.14 97.39,26.76 C96.27,28.10 94.95,29.90 94.95,30.12 C94.95,30.19 94.72,30.56 94.44,30.93 C94.16,31.29 93.93,31.68 93.93,31.78 C93.93,31.88 93.79,32.16 93.60,32.38 C93.08,33.06 91.07,36.38 90.95,36.81 C90.89,37.03 90.67,37.51 90.45,37.88 C90.24,38.25 89.97,38.86 89.85,39.22 C89.73,39.59 89.49,40.12 89.34,40.41 C89.17,40.70 88.95,41.33 88.85,41.80 C88.76,42.28 88.48,43.04 88.24,43.48 C88.00,43.94 87.81,44.54 87.81,44.82 C87.81,45.11 87.64,45.69 87.46,46.12 C87.25,46.54 87.03,47.56 86.95,48.41 C86.85,49.24 86.61,50.85 86.40,51.97 C85.98,54.30 85.93,57.03 86.27,58.99 C86.61,60.92 86.59,62.23 86.23,62.50 C85.72,62.88 84.65,62.38 83.41,61.23 C82.82,60.67 82.28,60.21 82.21,60.21 C82.14,60.21 81.82,60.01 81.48,59.73 C81.16,59.48 80.66,59.14 80.39,58.99 C80.14,58.82 79.58,58.43 79.15,58.09 C78.73,57.76 78.17,57.37 77.88,57.22 C77.61,57.07 77.22,56.81 77.03,56.64 C76.84,56.47 76.35,56.24 75.93,56.13 C75.50,56.02 74.94,55.79 74.65,55.62 C74.38,55.45 73.77,55.20 73.29,55.06 C72.84,54.91 72.14,54.64 71.77,54.45 C71.41,54.25 70.90,54.10 70.66,54.10 C70.42,54.10 69.85,53.91 69.39,53.69 C68.91,53.48 68.00,53.20 67.35,53.08 C66.69,52.96 65.40,52.69 64.46,52.47 C63.53,52.26 62.19,52.04 61.49,51.97 C60.80,51.92 59.45,51.72 58.52,51.55 C54.77,50.82 47.94,50.68 47.31,51.33 C46.92,51.70 46.50,53.40 46.50,54.52 C46.53,59.99 47.06,66.03 47.62,67.10 C47.75,67.38 47.96,68.16 48.06,68.84 C48.16,69.53 48.40,70.36 48.57,70.70 C48.74,71.04 48.98,71.77 49.10,72.32 C49.20,72.88 49.44,73.56 49.61,73.85 C49.79,74.15 50.01,74.75 50.10,75.19 C50.20,75.63 50.47,76.26 50.71,76.61 C50.95,76.95 51.13,77.33 51.13,77.45 C51.13,77.72 52.39,80.18 52.71,80.57 C52.85,80.72 53.05,81.13 53.15,81.47 C53.27,81.81 53.48,82.18 53.63,82.32 C53.78,82.44 54.04,82.85 54.22,83.22 C54.39,83.59 54.72,84.17 54.95,84.49 C55.53,85.31 55.96,85.94 56.69,87.04 C57.03,87.55 57.74,88.47 58.27,89.08 C59.35,90.35 59.78,91.20 59.49,91.49 C59.35,91.63 57.87,91.68 54.63,91.64 C49.69,91.59 47.13,91.78 45.44,92.30 C44.88,92.47 44.15,92.66 43.83,92.73 C43.03,92.86 40.25,93.78 39.08,94.27 C38.57,94.49 37.84,94.78 37.46,94.92 C36.21,95.36 34.25,96.23 33.98,96.45 C33.85,96.58 33.44,96.77 33.10,96.87 C32.74,96.99 32.40,97.16 32.35,97.26 C32.28,97.36 31.84,97.62 31.37,97.86 C30.26,98.38 29.07,99.08 28.46,99.56 C28.21,99.78 27.92,99.95 27.84,99.95 C27.65,99.95 27.17,100.32 24.17,102.85 C22.98,103.85 21.57,105.13 21.03,105.69 C20.06,106.70 19.31,107.32 17.88,108.20 C17.12,108.67 16.87,108.62 16.47,107.89 C16.15,107.30 16.61,98.25 17.10,95.28 C17.34,93.87 17.60,91.96 17.68,91.03 C17.77,89.93 17.93,89.06 18.17,88.57 C18.36,88.14 18.53,87.53 18.53,87.21 C18.53,86.48 18.80,85.48 19.62,83.22 C19.96,82.29 20.38,80.91 20.55,80.16 C20.86,78.86 21.21,77.87 22.01,76.09 C22.21,75.61 22.45,74.97 22.52,74.64 C22.59,74.32 22.91,73.47 23.23,72.78 C23.91,71.37 24.52,70.02 24.80,69.38 C24.90,69.14 25.25,68.50 25.58,67.94 C25.90,67.38 26.27,66.66 26.43,66.36 C27.07,64.98 27.24,64.64 27.78,63.69 C28.38,62.62 28.46,62.47 28.84,61.65 C28.96,61.36 29.24,60.87 29.48,60.55 C30.74,58.75 32.79,55.64 32.79,55.52 C32.79,55.47 33.01,55.12 33.27,54.72 C33.54,54.33 34.02,53.62 34.32,53.16 C34.64,52.69 35.26,51.89 35.70,51.38 C36.14,50.85 36.80,50.04 37.17,49.55 C38.48,47.81 44.22,41.84 46.70,39.66 C47.28,39.15 48.23,38.29 48.81,37.76 C49.38,37.22 49.91,36.78 49.98,36.78 C50.05,36.78 50.57,36.37 51.17,35.88 C51.76,35.37 52.49,34.84 52.80,34.67 C53.09,34.52 53.34,34.31 53.34,34.21 C53.34,34.13 53.66,33.89 54.07,33.72 C54.46,33.53 55.12,33.12 55.55,32.78 C56.75,31.87 58.55,30.66 58.72,30.66 C58.83,30.66 59.17,30.46 59.51,30.19 C61.05,29.03 61.63,28.62 61.78,28.62 C61.88,28.62 62.24,28.39 62.60,28.11 C62.95,27.83 63.41,27.61 63.63,27.61 C63.84,27.61 64.24,27.42 64.51,27.18 C64.80,26.94 65.28,26.65 65.60,26.55 C65.91,26.45 66.31,26.23 66.50,26.08 C66.69,25.91 67.16,25.69 67.54,25.58 C67.93,25.48 68.34,25.28 68.45,25.14 C68.56,25.02 69.01,24.77 69.44,24.62 C69.88,24.45 70.44,24.16 70.68,23.99 C70.93,23.80 71.48,23.60 71.90,23.51 C72.31,23.44 72.94,23.19 73.26,22.97 C73.60,22.75 74.19,22.51 74.58,22.44 C74.98,22.38 75.52,22.17 75.77,21.98 C76.05,21.80 76.66,21.58 77.15,21.49 C77.64,21.42 78.47,21.15 78.98,20.91 C79.49,20.68 80.09,20.47 80.31,20.47 C80.53,20.47 81.22,20.24 81.87,19.96 C82.51,19.68 83.25,19.45 83.52,19.45 C83.77,19.45 84.54,19.25 85.18,19.03 C85.86,18.78 87.08,18.52 88.02,18.44 C88.93,18.35 90.29,18.11 91.06,17.93 C91.80,17.72 93.48,17.50 94.78,17.40 C96.07,17.31 97.49,17.11 97.95,16.98 C98.39,16.82 99.68,16.64 100.80,16.55 C101.92,16.47 103.64,16.26 104.62,16.08 C106.83,15.68 108.24,15.65 109.23,15.96 Z M108.50,31.92 C109.14,32.26 110.69,34.01 111.21,35.03 C111.33,35.23 111.52,35.50 111.64,35.62 C111.77,35.74 112.08,36.15 112.32,36.52 C112.57,36.89 113.01,37.56 113.32,37.98 C114.68,39.92 115.27,40.87 115.41,41.36 C115.48,41.60 115.66,41.94 115.83,42.12 C115.99,42.31 116.21,42.72 116.31,43.02 C116.41,43.33 116.65,43.79 116.83,44.04 C117.00,44.30 117.24,44.84 117.36,45.27 C117.48,45.69 117.73,46.34 117.95,46.71 C118.16,47.08 118.40,47.80 118.45,48.31 C118.52,48.82 118.69,49.49 118.82,49.83 C119.72,51.92 119.84,66.02 118.97,67.66 C118.82,67.99 118.58,68.58 118.45,69.02 C118.33,69.45 118.02,70.08 117.79,70.40 C117.55,70.70 117.36,71.09 117.36,71.23 C117.36,71.38 116.90,72.18 116.34,73.01 C115.78,73.83 115.32,74.61 115.32,74.71 C115.32,74.83 115.19,75.07 115.03,75.26 C114.56,75.76 113.74,76.83 113.29,77.53 C113.05,77.89 112.52,78.62 112.11,79.16 C111.71,79.72 111.03,80.62 110.62,81.16 C109.77,82.30 108.51,83.47 108.14,83.47 C107.46,83.47 105.54,81.25 102.59,77.00 C102.26,76.55 101.58,75.65 101.09,75.02 C99.75,73.30 98.78,71.45 98.15,69.33 C97.95,68.65 97.65,67.83 97.49,67.51 C97.32,67.19 97.10,66.32 96.98,65.59 C96.88,64.86 96.64,63.95 96.47,63.55 C95.73,61.87 95.76,55.40 96.54,53.50 C96.68,53.13 96.88,52.31 96.97,51.70 C97.05,51.09 97.29,50.26 97.48,49.88 C97.68,49.49 97.92,48.78 98.02,48.29 C98.22,47.41 98.92,45.49 99.53,44.16 C99.70,43.79 100.16,42.79 100.55,41.95 C100.94,41.11 101.36,40.31 101.48,40.17 C101.60,40.04 101.84,39.58 102.01,39.15 C102.59,37.71 104.05,35.47 105.35,34.01 C107.63,31.44 107.61,31.46 108.50,31.92 Z M62.70,62.77 C63.12,62.93 63.84,63.11 64.31,63.18 C64.77,63.25 65.41,63.47 65.74,63.67 C66.06,63.89 66.71,64.15 67.18,64.27 C67.64,64.39 68.11,64.56 68.22,64.64 C68.34,64.73 68.86,65.03 69.41,65.32 C71.05,66.17 71.53,66.46 71.92,66.78 C72.11,66.97 72.44,67.22 72.65,67.36 C72.84,67.49 73.45,67.94 74.01,68.36 C74.55,68.79 75.18,69.26 75.42,69.43 C75.65,69.58 76.18,69.99 76.61,70.31 C77.03,70.64 77.59,71.06 77.86,71.23 C78.32,71.54 79.65,72.76 84.57,77.45 C85.74,78.55 88.17,80.93 89.94,82.71 C97.27,90.10 99.36,92.27 99.34,92.58 C99.31,93.75 97.17,96.29 94.10,98.84 C93.42,99.40 92.28,100.52 91.57,101.34 C90.00,103.17 89.21,103.77 88.54,103.60 C88.24,103.53 85.59,100.96 80.68,96.01 C76.62,91.88 71.92,87.12 70.24,85.44 C65.75,80.93 61.92,76.27 61.36,74.68 C61.25,74.37 61.02,73.91 60.81,73.68 C60.63,73.44 60.47,73.17 60.47,73.08 C60.47,73.00 60.20,72.39 59.88,71.71 C59.56,71.04 59.28,70.33 59.28,70.16 C59.28,69.99 59.10,69.43 58.86,68.92 C58.38,67.92 58.18,66.93 58.01,64.88 C57.91,63.52 57.91,63.50 58.42,63.03 C59.25,62.23 61.03,62.13 62.70,62.77 Z M155.18,62.74 C155.91,63.08 155.98,63.22 156.16,64.45 C156.23,64.88 156.38,65.54 156.52,65.93 C156.71,66.54 156.71,66.76 156.50,67.44 C156.37,67.89 156.21,68.79 156.15,69.45 C156.03,70.77 155.28,72.67 154.33,74.08 C153.17,75.78 152.05,77.28 151.24,78.19 C150.76,78.72 150.15,79.45 149.88,79.82 C149.22,80.74 132.98,96.91 131.54,98.08 C130.91,98.59 129.49,99.91 128.38,101.00 C125.46,103.87 125.17,103.87 123.03,101.19 C122.30,100.27 121.54,99.37 121.35,99.18 C119.38,97.30 116.75,94.89 116.41,94.66 C115.78,94.26 115.51,93.80 115.49,93.19 C115.49,92.59 115.51,92.58 117.28,90.93 C117.75,90.49 119.13,89.08 120.33,87.79 C123.47,84.44 134.17,73.79 135.79,72.42 C136.53,71.77 137.38,71.03 137.65,70.77 C138.77,69.70 141.42,67.55 141.97,67.26 C142.29,67.10 142.63,66.90 142.73,66.80 C143.04,66.53 144.23,65.85 145.16,65.41 C145.63,65.17 146.08,64.91 146.13,64.81 C146.18,64.73 146.60,64.52 147.04,64.35 C147.49,64.18 148.05,63.93 148.28,63.76 C148.52,63.59 149.17,63.33 149.73,63.20 C150.27,63.06 151.12,62.82 151.58,62.69 C152.78,62.33 154.31,62.35 155.18,62.74 Z M109.62,102.36 C110.13,103.04 111.82,104.90 113.40,106.52 C118.28,111.49 118.19,111.36 116.94,112.83 C116.51,113.33 116.17,113.79 116.17,113.85 C116.17,114.02 114.69,115.53 113.47,116.59 C111.76,118.08 110.57,120.09 110.57,121.51 C110.57,122.19 112.74,124.18 113.68,124.33 C114.03,124.40 114.64,124.65 115.03,124.91 C115.56,125.27 116.05,125.42 116.94,125.49 C118.09,125.60 118.16,125.59 119.65,124.84 C121.22,124.08 121.84,123.53 123.25,121.80 C124.22,120.60 124.71,120.32 125.90,120.32 C126.63,120.32 126.97,120.43 127.57,120.83 C127.97,121.10 128.40,121.34 128.50,121.34 C128.60,121.34 128.91,121.51 129.18,121.72 C129.72,122.16 130.45,122.63 131.79,123.38 C133.19,124.16 133.95,124.64 134.29,124.93 C134.70,125.28 136.69,126.37 137.23,126.52 C137.47,126.59 137.92,126.83 138.25,127.05 C138.57,127.27 138.94,127.46 139.10,127.46 C139.23,127.46 139.81,127.69 140.37,127.97 C140.93,128.24 141.49,128.47 141.61,128.47 C141.73,128.47 142.27,128.70 142.83,128.98 C143.39,129.26 144.09,129.49 144.39,129.49 C144.70,129.49 145.41,129.73 145.97,130.00 C146.53,130.27 147.23,130.51 147.50,130.51 C147.79,130.51 148.56,130.72 149.20,130.95 C152.24,132.04 164.08,132.09 166.83,131.00 C167.29,130.82 168.24,130.60 168.92,130.51 C169.61,130.43 170.39,130.24 170.68,130.09 C170.95,129.95 171.70,129.71 172.33,129.56 C172.96,129.43 173.72,129.15 174.01,128.97 C174.30,128.80 174.94,128.58 175.42,128.47 C175.90,128.39 176.49,128.15 176.76,127.97 C177.02,127.78 177.59,127.56 178.03,127.47 C178.49,127.39 179.02,127.17 179.22,126.98 C179.43,126.79 179.89,126.56 180.23,126.45 C180.58,126.33 180.92,126.17 180.97,126.06 C181.04,125.98 181.55,125.67 182.13,125.38 C183.76,124.60 184.50,124.18 185.03,123.75 C185.29,123.55 185.59,123.38 185.71,123.38 C185.83,123.38 186.19,123.18 186.53,122.90 C186.85,122.65 187.34,122.31 187.61,122.14 C188.77,121.43 191.57,119.03 194.01,116.67 C195.42,115.30 197.82,112.39 198.28,111.51 C198.94,110.19 199.11,110.03 199.53,110.46 C199.89,110.81 200.13,111.70 200.13,112.68 C200.11,114.14 199.74,117.08 199.47,117.69 C199.31,118.06 199.04,119.29 198.85,120.41 C198.67,121.53 198.41,122.79 198.28,123.21 C198.16,123.63 197.95,124.59 197.85,125.35 C197.75,126.10 197.53,127.08 197.36,127.56 C197.19,128.02 196.95,129.12 196.85,130.02 C196.75,130.92 196.51,132.01 196.32,132.45 C196.12,132.87 195.92,133.64 195.87,134.13 C195.81,134.60 195.54,135.42 195.29,135.93 C195.02,136.44 194.80,137.05 194.80,137.29 C194.80,137.53 194.56,138.22 194.29,138.80 C194.00,139.39 193.78,140.02 193.78,140.17 C193.78,140.34 193.57,140.85 193.34,141.30 C193.10,141.75 192.84,142.50 192.74,142.98 C192.66,143.45 192.44,144.05 192.25,144.28 C192.08,144.54 191.87,144.96 191.81,145.22 C191.70,145.69 190.94,147.43 190.45,148.34 C190.33,148.58 189.99,149.24 189.72,149.80 C189.45,150.38 189.14,150.91 189.04,150.96 C188.94,151.03 188.77,151.40 188.67,151.79 C188.56,152.18 188.29,152.71 188.07,152.98 C187.85,153.25 187.66,153.56 187.66,153.66 C187.66,153.78 187.44,154.18 187.19,154.56 C186.93,154.95 186.58,155.53 186.39,155.83 C186.20,156.15 185.86,156.71 185.63,157.09 C185.39,157.46 185.05,158.02 184.86,158.34 C183.33,160.93 176.57,168.97 172.72,172.78 C170.36,175.14 165.18,179.71 163.38,181.03 C163.01,181.30 162.17,181.97 161.53,182.48 C160.88,182.98 160.14,183.54 159.88,183.70 C159.61,183.87 159.05,184.22 158.63,184.51 C158.20,184.78 157.56,185.18 157.18,185.38 C156.81,185.58 156.28,185.92 156.03,186.14 C155.76,186.36 155.45,186.55 155.33,186.55 C155.21,186.55 154.82,186.79 154.46,187.06 C154.11,187.35 153.75,187.57 153.65,187.57 C153.55,187.57 153.24,187.74 152.95,187.96 C152.66,188.18 151.75,188.67 150.90,189.08 C150.07,189.49 149.25,189.88 149.12,189.96 C148.39,190.41 143.70,192.66 143.51,192.66 C143.39,192.66 142.90,192.85 142.43,193.09 C141.05,193.75 139.45,194.36 138.16,194.74 C137.52,194.91 136.91,195.13 136.80,195.21 C136.70,195.30 136.09,195.50 135.45,195.64 C134.82,195.79 134.02,196.04 133.68,196.21 C133.34,196.38 132.73,196.59 132.30,196.65 C131.88,196.72 130.74,196.94 129.76,197.16 C127.94,197.57 123.63,198.20 119.23,198.69 C117.87,198.85 116.09,199.12 115.24,199.29 C114.41,199.46 112.61,199.66 111.26,199.71 C109.29,199.81 108.73,199.90 108.26,200.17 C107.63,200.54 106.03,200.37 100.80,199.37 C99.60,199.13 97.83,198.86 96.90,198.78 C94.95,198.57 94.44,198.51 92.91,198.18 C92.30,198.06 90.92,197.86 89.85,197.76 C88.78,197.64 87.44,197.40 86.86,197.23 C86.30,197.05 85.21,196.82 84.45,196.74 C83.69,196.65 82.77,196.43 82.38,196.23 C82.01,196.04 81.24,195.79 80.71,195.70 C80.19,195.60 79.53,195.38 79.24,195.21 C78.97,195.04 78.22,194.77 77.57,194.63 C76.95,194.48 76.27,194.26 76.05,194.12 C75.84,194.01 75.30,193.80 74.82,193.70 C74.36,193.58 73.82,193.34 73.63,193.17 C73.45,193.00 72.94,192.77 72.50,192.68 C72.05,192.58 71.43,192.31 71.07,192.07 C70.73,191.83 70.32,191.65 70.17,191.65 C70.02,191.65 69.56,191.41 69.13,191.14 C68.71,190.86 68.22,190.63 68.05,190.63 C67.86,190.63 67.37,190.41 66.94,190.13 C66.52,189.86 65.98,189.59 65.74,189.52 C65.50,189.45 65.16,189.27 64.97,189.10 C64.79,188.94 64.38,188.72 64.07,188.62 C63.75,188.52 63.28,188.23 62.99,187.99 C62.71,187.76 62.38,187.57 62.26,187.57 C62.12,187.57 61.76,187.35 61.46,187.08 C61.15,186.82 60.71,186.53 60.47,186.47 C60.24,186.40 59.83,186.16 59.57,185.94 C59.30,185.72 59.00,185.53 58.88,185.53 C58.76,185.53 58.52,185.36 58.33,185.18 C58.16,184.97 57.71,184.67 57.33,184.50 C56.96,184.33 56.31,183.90 55.89,183.58 C55.46,183.26 54.90,182.83 54.61,182.66 C53.68,182.07 52.97,181.54 52.34,181.03 C52.00,180.74 51.54,180.39 51.30,180.23 C51.07,180.10 50.15,179.33 49.27,178.54 C48.38,177.74 47.43,176.91 47.18,176.68 C43.51,173.53 34.95,164.14 32.79,160.91 C32.56,160.55 31.79,159.40 31.08,158.34 C29.75,156.36 29.24,155.54 28.65,154.44 C28.45,154.08 28.02,153.37 27.70,152.84 C26.78,151.35 26.22,150.36 25.83,149.53 C25.63,149.11 25.27,148.39 25.05,147.94 C24.83,147.46 24.64,146.97 24.64,146.80 C24.64,146.64 24.47,146.27 24.25,145.95 C23.81,145.27 22.60,142.87 22.60,142.64 C22.60,142.55 22.42,142.11 22.18,141.67 C21.94,141.23 21.65,140.43 21.57,139.90 C21.47,139.36 21.25,138.66 21.08,138.32 C20.91,138.00 20.69,137.27 20.57,136.71 C20.45,136.15 20.21,135.42 20.04,135.08 C19.87,134.74 19.65,134.01 19.57,133.47 C19.48,132.91 19.24,132.18 19.06,131.82 C18.87,131.45 18.67,130.73 18.60,130.21 C18.55,129.66 18.31,128.47 18.09,127.54 C17.87,126.61 17.61,124.79 17.51,123.50 C17.41,122.21 17.19,120.53 17.00,119.76 C16.56,117.91 16.24,114.11 16.47,113.48 C16.58,113.23 16.76,113.02 16.90,113.02 C17.19,113.02 20.06,115.81 21.43,117.42 C22.42,118.57 25.08,120.93 25.92,121.41 C26.20,121.56 26.77,121.95 27.19,122.28 C27.61,122.62 28.17,123.01 28.45,123.18 C28.70,123.33 29.24,123.67 29.64,123.92 C30.01,124.18 30.42,124.40 30.54,124.40 C30.64,124.40 30.96,124.59 31.23,124.82 C31.52,125.06 32.01,125.37 32.32,125.50 C32.64,125.62 33.00,125.86 33.12,126.00 C33.24,126.15 33.61,126.30 33.97,126.37 C34.30,126.42 34.93,126.69 35.36,126.96 C35.78,127.23 36.29,127.46 36.46,127.46 C36.65,127.46 37.17,127.64 37.65,127.88 C38.11,128.10 38.82,128.41 39.25,128.56 C39.65,128.70 40.11,128.93 40.27,129.07 C40.42,129.20 41.00,129.41 41.54,129.51 C42.10,129.61 42.90,129.87 43.32,130.09 C43.75,130.29 44.49,130.51 44.99,130.58 C45.50,130.65 46.29,130.85 46.77,131.04 C47.33,131.26 48.37,131.45 49.69,131.55 C50.81,131.63 52.20,131.79 52.76,131.87 C55.58,132.33 63.80,131.75 66.21,130.94 C66.89,130.70 67.64,130.51 67.88,130.51 C68.11,130.51 68.83,130.27 69.47,130.00 C70.12,129.71 70.78,129.49 70.97,129.49 C71.14,129.49 71.65,129.31 72.07,129.07 C72.50,128.85 73.18,128.58 73.57,128.47 C73.96,128.37 74.48,128.13 74.72,127.95 C74.96,127.78 75.52,127.56 75.96,127.47 C76.40,127.40 77.00,127.13 77.28,126.88 C77.57,126.64 77.91,126.44 78.03,126.44 C78.15,126.44 78.54,126.20 78.90,125.93 C79.25,125.64 79.63,125.42 79.75,125.42 C79.87,125.42 80.24,125.18 80.60,124.91 C80.95,124.62 81.33,124.40 81.45,124.40 C81.56,124.40 81.94,124.16 82.29,123.89 C82.65,123.60 83.08,123.38 83.23,123.38 C83.40,123.38 83.70,123.24 83.92,123.06 C84.15,122.89 84.64,122.60 85.01,122.40 C85.38,122.21 85.84,121.90 86.01,121.70 C86.20,121.50 86.40,121.34 86.49,121.34 C86.57,121.34 86.91,121.14 87.25,120.88 C87.71,120.53 88.08,120.41 88.90,120.36 C89.95,120.29 89.95,120.29 90.95,121.14 C91.52,121.61 92.62,122.70 93.42,123.58 C94.22,124.45 95.30,125.62 95.83,126.18 C99.67,130.24 99.78,130.48 98.48,131.70 C98.07,132.07 97.71,132.38 97.66,132.38 C97.48,132.40 87.97,141.89 86.86,143.16 C84.59,145.80 84.71,145.59 84.81,146.64 C85.05,149.04 87.59,152.47 89.63,153.10 C91.14,153.57 91.89,153.28 93.21,151.77 C93.74,151.14 94.64,150.19 95.20,149.65 C95.76,149.09 97.07,147.82 98.09,146.81 C99.12,145.80 100.07,144.91 100.23,144.83 C100.40,144.76 101.43,143.81 102.57,142.74 C103.71,141.67 104.95,140.53 105.35,140.23 C107.92,138.22 107.92,138.22 109.60,139.83 C111.64,141.77 116.92,147.19 117.67,148.09 C118.87,149.57 120.76,151.31 122.35,152.44 C123.83,153.47 125.44,153.15 127.46,151.37 C128.36,150.57 129.08,150.04 130.05,149.45 C131.62,148.50 131.61,148.53 130.88,147.10 C129.88,145.15 129.77,145.07 122.13,137.39 C118.12,133.37 114.54,129.70 114.17,129.24 C113.79,128.76 112.78,127.66 111.91,126.76 C111.03,125.86 110.19,124.98 110.04,124.81 C109.89,124.62 109.48,124.25 109.12,123.97 C107.63,122.79 106.48,121.70 104.54,119.68 C103.42,118.49 101.77,116.79 100.89,115.89 C98.60,113.58 97.19,111.95 97.07,111.48 C96.93,110.86 97.48,110.12 98.88,109.00 C99.56,108.45 101.01,107.13 102.08,106.04 C103.76,104.33 105.17,103.07 107.12,101.53 C108.04,100.79 108.56,100.98 109.62,102.36 Z M163.04,102.66 C163.55,102.76 164.82,102.92 165.84,103.00 C166.88,103.09 168.05,103.27 168.46,103.43 C168.88,103.56 169.75,103.77 170.41,103.87 C171.07,103.97 172.01,104.23 172.48,104.45 C172.96,104.68 173.69,104.94 174.08,105.02 C174.49,105.11 175.01,105.35 175.27,105.53 C175.52,105.70 176.03,105.94 176.39,106.04 C176.74,106.14 177.24,106.35 177.47,106.52 C177.97,106.87 178.90,107.40 180.19,108.01 C180.70,108.27 181.24,108.57 181.38,108.69 C181.52,108.81 181.82,108.96 182.06,109.03 C182.30,109.10 182.77,109.39 183.13,109.66 C184.15,110.47 184.03,110.90 182.45,112.24 C181.72,112.85 180.96,113.50 180.73,113.68 C180.53,113.89 180.14,114.14 179.89,114.28 C179.61,114.41 179.29,114.65 179.17,114.80 C179.04,114.96 178.66,115.23 178.34,115.42 C178.00,115.59 177.61,115.81 177.47,115.89 C177.34,115.98 176.69,116.28 176.03,116.59 C175.39,116.88 174.42,117.33 173.91,117.59 C173.40,117.86 172.67,118.17 172.30,118.29 C171.92,118.40 171.43,118.64 171.21,118.81 C171.00,118.98 170.55,119.17 170.19,119.24 C169.85,119.29 169.00,119.47 168.30,119.64 C166.39,120.10 164.48,120.31 160.83,120.43 C157.44,120.54 150.88,120.27 149.79,119.98 C149.47,119.90 148.56,119.66 147.76,119.47 C146.98,119.27 146.13,118.96 145.89,118.81 C145.65,118.64 145.19,118.42 144.87,118.30 C144.55,118.20 144.14,117.96 143.94,117.79 C143.75,117.61 143.26,117.37 142.83,117.27 C142.41,117.15 141.88,116.93 141.64,116.76 C141.41,116.60 140.93,116.37 140.59,116.26 C140.25,116.15 139.88,115.94 139.76,115.81 C139.64,115.65 139.27,115.40 138.94,115.21 C138.60,115.03 138.06,114.67 137.72,114.41 C137.38,114.16 136.80,113.73 136.45,113.46 C135.28,112.56 134.51,111.70 134.51,111.22 C134.51,110.71 135.79,109.42 136.63,109.08 C136.92,108.98 137.36,108.71 137.62,108.49 C137.89,108.27 138.25,108.10 138.40,108.10 C138.57,108.10 138.99,107.86 139.35,107.59 C139.71,107.30 140.13,107.08 140.29,107.08 C140.44,107.08 140.85,106.89 141.17,106.67 C141.51,106.45 142.03,106.18 142.36,106.08 C142.68,105.97 143.21,105.69 143.51,105.46 C143.83,105.23 144.21,105.04 144.34,105.04 C144.50,105.04 145.07,104.80 145.63,104.53 C146.19,104.24 146.86,104.02 147.11,104.02 C147.37,104.02 148.16,103.82 148.89,103.58 C149.88,103.26 150.93,103.09 152.94,102.92 C154.43,102.80 155.82,102.63 156.04,102.54 C156.54,102.36 161.80,102.44 163.04,102.66 Z M62.14,103.00 C63.80,103.12 64.60,103.26 65.19,103.51 C65.64,103.72 66.50,103.94 67.15,104.02 C67.86,104.11 68.57,104.33 69.03,104.60 C69.46,104.84 69.86,105.04 69.97,105.04 C70.17,105.04 72.77,106.31 74.31,107.16 C74.87,107.47 75.59,107.84 75.91,108.00 C76.23,108.15 76.57,108.39 76.67,108.54 C76.78,108.67 77.15,108.96 77.49,109.17 C79.29,110.27 80.34,111.22 80.34,111.75 C80.34,112.27 77.64,114.52 76.18,115.20 C75.81,115.38 75.40,115.64 75.28,115.79 C75.15,115.94 74.77,116.15 74.43,116.26 C74.09,116.37 73.62,116.60 73.38,116.76 C73.14,116.93 72.77,117.11 72.53,117.18 C72.29,117.25 71.70,117.54 71.19,117.79 C70.68,118.06 70.19,118.29 70.08,118.29 C69.98,118.29 69.63,118.47 69.30,118.69 C68.61,119.15 65.87,119.88 63.36,120.24 C58.74,120.92 49.01,120.63 46.23,119.71 C45.55,119.49 44.85,119.30 44.68,119.30 C44.53,119.30 43.98,119.08 43.47,118.81 C42.97,118.56 42.37,118.27 42.13,118.20 C41.90,118.13 41.49,117.90 41.23,117.67 C40.96,117.45 40.59,117.27 40.38,117.27 C40.18,117.27 39.82,117.15 39.59,117.01 C39.35,116.88 38.79,116.57 38.31,116.33 C37.19,115.76 36.58,115.35 35.15,114.16 C34.49,113.63 33.85,113.19 33.73,113.19 C33.39,113.19 31.71,111.51 31.35,110.83 C31.13,110.39 31.10,110.17 31.25,109.86 C31.44,109.42 33.05,108.10 33.39,108.10 C33.51,108.10 34.10,107.88 34.70,107.59 C35.27,107.32 35.97,107.08 36.22,107.08 C36.46,107.08 36.89,106.89 37.16,106.67 C37.43,106.45 37.99,106.18 38.40,106.06 C38.82,105.94 39.47,105.67 39.86,105.45 C40.23,105.23 40.66,105.04 40.79,105.04 C40.93,105.04 41.39,104.85 41.83,104.62 C42.30,104.36 43.17,104.12 43.95,104.00 C44.68,103.90 45.75,103.68 46.34,103.51 C47.26,103.22 48.40,103.09 52.75,102.76 C53.92,102.68 59.39,102.82 62.14,103.00 Z M106.78,147.66 C106.00,147.97 103.83,149.70 103.27,150.47 C103.13,150.65 102.55,151.30 101.99,151.91 C100.91,153.06 99.51,154.83 98.94,155.75 C98.75,156.05 98.31,156.73 97.95,157.26 C97.59,157.80 97.12,158.63 96.88,159.11 C96.66,159.58 96.17,160.50 95.79,161.16 C95.44,161.81 95.05,162.73 94.96,163.17 C94.86,163.61 94.62,164.29 94.44,164.66 C94.25,165.02 94.01,165.95 93.91,166.72 C93.82,167.48 93.59,168.47 93.38,168.92 C92.92,169.99 92.99,175.89 93.48,177.26 C93.64,177.70 93.84,178.67 93.93,179.42 C94.01,180.15 94.23,181.05 94.42,181.41 C94.59,181.76 94.83,182.49 94.93,183.04 C95.03,183.58 95.30,184.34 95.54,184.75 C95.78,185.14 95.96,185.60 95.96,185.74 C95.96,185.87 96.20,186.28 96.47,186.64 C96.76,186.99 96.98,187.42 96.98,187.57 C96.98,187.72 97.17,188.15 97.41,188.49 C97.80,189.06 98.19,189.73 98.83,190.95 C98.97,191.19 99.31,191.66 99.60,192.00 C99.89,192.34 100.46,193.05 100.89,193.60 C101.91,194.91 104.56,197.40 105.30,197.74 C105.63,197.89 106.15,198.18 106.46,198.39 C107.41,198.98 108.45,199.20 109.21,198.96 C110.06,198.71 113.18,196.21 113.91,195.21 C114.83,193.95 115.53,193.02 116.43,191.88 C117.55,190.47 117.95,189.85 118.36,189.00 C118.53,188.62 119.04,187.77 119.48,187.13 C119.92,186.50 120.35,185.79 120.43,185.55 C120.52,185.33 120.74,184.95 120.91,184.70 C121.42,183.95 122.44,181.10 122.64,179.84 C122.74,179.18 122.93,178.23 123.05,177.72 C123.58,175.56 123.47,170.59 122.88,168.38 C122.74,167.87 122.56,166.95 122.45,166.36 C122.37,165.77 122.12,164.88 121.88,164.41 C121.64,163.93 121.08,162.79 120.64,161.86 C119.04,158.58 118.82,158.21 117.36,156.44 C116.89,155.87 116.04,154.80 115.44,154.08 C112.84,150.89 112.13,150.06 111.28,149.36 C110.79,148.94 110.28,148.50 110.14,148.38 C109.87,148.14 108.63,147.60 108.02,147.44 C107.78,147.39 107.24,147.48 106.78,147.66 Z M109.31,162.90 C110.16,163.44 111.06,165.63 111.25,167.55 C111.33,168.48 111.45,169.31 111.50,169.40 C111.74,169.79 111.86,175.61 111.65,176.62 C111.54,177.18 111.38,178.62 111.32,179.83 C111.16,183.02 110.25,184.65 108.80,184.28 C107.78,184.02 105.92,181.59 104.54,178.74 C104.28,178.23 103.95,177.53 103.78,177.19 C102.99,175.70 102.94,171.96 103.69,170.33 C103.89,169.86 104.13,169.25 104.18,168.97 C104.30,168.48 105.08,166.72 105.56,165.83 C105.69,165.60 105.98,165.05 106.22,164.63 C107.12,162.98 108.36,162.27 109.31,162.90 Z M133.75,157.04 C132.92,157.46 131.83,158.99 131.62,160.01 C131.39,161.15 131.49,163.35 131.81,163.73 C132.46,164.51 133.68,164.87 135.31,164.76 C138.03,164.58 139.11,163.74 138.72,162.10 C138.66,161.77 138.59,161.28 138.59,161.01 C138.59,159.97 136.74,157.84 135.28,157.16 C134.51,156.80 134.24,156.78 133.75,157.04 Z M79.81,157.85 C79.15,158.43 78.91,158.80 78.37,160.16 C77.73,161.81 77.73,161.81 78.24,162.74 C78.78,163.76 79.20,164.08 80.60,164.56 C81.53,164.88 81.53,164.88 82.84,164.46 C84.60,163.88 84.89,163.51 84.62,162.11 C84.28,160.21 83.72,159.04 82.75,158.07 C81.58,156.90 80.97,156.85 79.81,157.85 Z"/>
    </svg>