<svg class="ethara-wordmark-animation" viewBox="0 0 649.10 120.00" xmlns="http://www.w3.org/2000/svg" role="img" aria-label="Ethara.AI logo" width="649" height="120">
  <defs>
    <style><![CDATA[
.ethara-wordmark-animation { display: block; background: transparent; pointer-events: none; user-select: none; }
.ln { fill: none; stroke: #f7f8ff; stroke-width: 1.4; stroke-linejoin: round; stroke-linecap: round; stroke-dasharray: 1; stroke-dashoffset: 1; }
.fill { fill: #f7f8ff; fill-opacity: 0; }
.mk { animation: draw 1.45s ease forwards, vanish .65s ease forwards; animation-delay: calc(.28s + var(--i) * .105s), 2.52s; }
.markfill { animation: fillin .85s ease forwards; animation-delay: 2.12s; }
.wd { animation: draw 1.05s ease forwards, vanish .55s ease forwards; animation-delay: calc(2.85s + var(--j) * .18s), 5.25s; }
.wordfill { animation: fillin .85s ease forwards; animation-delay: 4.78s; }
@keyframes draw { to { stroke-dashoffset: 0; } }
@keyframes vanish { to { stroke-opacity: 0; } }
@keyframes fillin { to { fill-opacity: 1; } }
@media (prefers-reduced-motion: reduce) {
  .ln { stroke-dashoffset: 0; stroke-opacity: 0; }
  .fill { fill-opacity: 1; }
  .mk, .wd, .markfill, .wordfill { animation: none; }
}
]]></style>
  </defs>
      <path class="ln mk" pathLength="1" style="--i:0" d="M37.04,57.65 C37.44,57.80 37.92,57.91 38.12,57.91 C39.32,57.91 45.15,61.35 45.15,62.04 C45.15,62.87 39.68,65.82 37.22,66.33 C35.28,66.74 32.06,66.85 29.49,66.63 C26.84,66.38 26.81,66.38 23.06,64.62 C22.06,64.17 19.36,62.09 19.11,61.58 C18.87,61.17 18.91,61.08 19.36,60.60 C19.63,60.31 19.96,60.08 20.11,60.08 C20.32,60.08 20.56,59.99 22.51,59.12 C25.03,58.00 27.00,57.47 29.49,57.29 C31.33,57.15 36.29,57.38 37.04,57.65 Z"/>
      <path class="ln mk" pathLength="1" style="--i:1" d="M35.81,35.92 C40.03,37.03 43.47,39.67 51.90,48.22 C54.86,51.22 55.27,51.71 55.20,52.11 C55.07,52.60 50.02,57.73 49.64,57.73 C49.35,57.73 39.07,47.38 37.04,45.05 C35.05,42.77 33.70,40.05 33.36,37.62 C33.18,36.27 33.22,36.05 33.78,35.81 C34.38,35.58 34.57,35.60 35.81,35.92 Z"/>
      <path class="ln mk" pathLength="1" style="--i:2" d="M44.93,86.57 C44.41,87.01 43.88,88.11 43.88,88.78 C43.88,89.89 45.53,90.61 46.73,90.03 C47.38,89.71 47.41,89.63 47.38,88.93 C47.34,88.06 46.76,86.84 46.20,86.45 C45.66,86.07 45.51,86.08 44.93,86.57 Z"/>
      <path class="ln mk" pathLength="1" style="--i:3" d="M56.65,4.05 C55.07,4.12 51.74,4.61 50.37,4.96 C49.79,5.10 49.12,5.21 48.86,5.21 C48.16,5.21 44.84,6.06 42.16,6.95 C38.79,8.05 36.02,9.28 32.84,11.06 C32.38,11.31 31.69,11.69 31.30,11.91 C30.90,12.13 30.23,12.54 29.81,12.83 C29.38,13.12 28.65,13.61 28.18,13.94 C24.11,16.67 18.95,21.40 16.61,24.50 C15.38,26.11 11.92,31.25 11.39,32.21 C11.21,32.55 10.78,33.35 10.42,34.00 C9.48,35.72 9.40,35.87 8.32,38.42 C7.75,39.72 7.30,40.88 7.30,41.01 C7.30,41.14 7.19,41.50 7.05,41.83 C5.84,44.67 5.24,47.28 4.57,52.47 C4.50,53.13 4.33,54.01 4.22,54.47 C3.90,55.79 3.93,64.14 4.30,66.33 C4.46,67.32 4.71,68.95 4.88,69.95 C5.02,70.94 5.27,72.18 5.42,72.68 C5.56,73.19 5.67,73.77 5.67,73.99 C5.67,74.20 5.78,74.64 5.93,74.96 C6.05,75.29 6.31,76.05 6.49,76.65 C6.65,77.25 6.90,78.01 7.05,78.33 C7.19,78.66 7.30,79.06 7.30,79.24 C7.30,79.40 7.43,79.71 7.57,79.89 C7.72,80.09 7.85,80.36 7.85,80.49 C7.85,80.71 8.62,82.52 9.22,83.66 C9.37,83.91 9.48,84.22 9.48,84.33 C9.48,84.44 9.84,85.12 10.27,85.85 C10.71,86.55 11.32,87.64 11.65,88.24 C13.75,92.08 18.57,98.24 21.63,101.01 C27.24,106.08 33.54,109.92 40.50,112.52 C42.25,113.19 42.60,113.30 43.61,113.59 C44.21,113.75 45.06,114.01 45.51,114.13 C45.96,114.26 46.65,114.42 47.05,114.46 C47.45,114.52 48.55,114.73 49.50,114.95 C53.46,115.84 55.98,116.07 60.63,115.98 C63.02,115.95 65.47,115.82 66.07,115.69 C70.41,114.84 72.19,114.48 73.67,114.10 C75.16,113.74 76.66,113.32 77.20,113.10 C77.46,113.01 78.22,112.74 78.92,112.50 C80.73,111.89 81.69,111.53 82.06,111.35 C82.22,111.26 83.47,110.64 84.81,109.97 C86.15,109.32 87.51,108.61 87.80,108.43 C88.10,108.23 88.50,108.00 88.70,107.89 C89.57,107.43 90.75,106.71 91.35,106.24 C91.71,105.95 92.09,105.71 92.16,105.71 C92.25,105.70 92.58,105.50 92.87,105.24 C93.18,104.99 93.83,104.45 94.32,104.05 C99.01,100.30 105.63,92.89 107.55,89.23 C107.75,88.89 108.08,88.35 108.28,88.06 C108.82,87.32 111.16,82.63 111.48,81.63 C111.63,81.18 111.94,80.40 112.15,79.91 C112.66,78.73 113.57,76.00 113.71,75.15 C113.77,74.78 113.93,74.06 114.05,73.57 C115.00,70.09 115.34,68.17 115.61,64.88 C116.16,58.23 115.58,51.55 114.05,46.66 C113.91,46.19 113.78,45.66 113.78,45.48 C113.78,45.03 112.48,40.94 112.01,39.94 C111.81,39.51 111.50,38.80 111.34,38.35 C109.51,33.68 105.62,27.34 102.25,23.54 C100.07,21.11 96.80,18.05 93.75,15.60 C93.05,15.04 88.36,11.89 87.87,11.67 C87.72,11.60 87.38,11.38 87.07,11.20 C86.24,10.66 82.53,8.85 80.92,8.18 C79.36,7.54 76.59,6.62 74.31,6.01 C73.76,5.86 72.93,5.61 72.48,5.46 C72.01,5.34 71.37,5.21 71.06,5.21 C70.76,5.21 70.03,5.10 69.45,4.96 C66.68,4.27 60.76,3.85 56.65,4.05 Z"/>
      <path class="ln mk" pathLength="1" style="--i:4" d="M60.83,57.13 C61.21,57.62 62.03,58.49 62.63,59.10 C64.33,60.82 65.07,61.69 65.07,61.96 C65.07,62.11 64.35,62.98 63.46,63.90 C61.10,66.40 60.85,67.05 61.86,67.99 C63.86,69.86 65.79,69.77 67.80,67.67 C69.13,66.27 69.51,66.27 71.68,67.69 C71.99,67.88 72.35,68.10 72.49,68.17 C72.64,68.25 73.09,68.52 73.49,68.79 C75.17,69.93 78.27,71.25 81.28,72.14 C83.56,72.81 89.03,72.90 91.42,72.28 C95.24,71.33 97.27,70.55 99.93,69.04 C100.53,68.70 101.14,68.37 101.29,68.30 C102.88,67.52 107.25,63.36 108.28,61.60 C108.95,60.51 109.20,63.39 108.62,65.42 C108.50,65.91 108.24,67.02 108.08,67.87 C107.92,68.72 107.66,69.82 107.52,70.33 C107.37,70.84 107.26,71.51 107.26,71.83 C107.26,72.16 107.17,72.57 107.08,72.77 C106.97,72.95 106.81,73.46 106.74,73.88 C106.65,74.31 106.39,75.11 106.18,75.65 C105.43,77.59 105.25,78.10 105.11,78.64 C105.04,78.95 104.87,79.35 104.76,79.55 C104.66,79.75 104.11,80.85 103.57,81.99 C101.83,85.56 101.03,86.81 98.59,89.85 C94.41,95.10 90.53,98.52 84.63,102.24 C83.81,102.76 79.38,104.99 78.60,105.28 C73.42,107.22 71.68,107.65 66.97,108.25 C65.38,108.45 63.58,108.70 62.99,108.79 C62.39,108.88 61.54,108.97 61.09,108.97 C60.62,108.97 60.16,109.06 60.07,109.15 C59.91,109.32 56.78,108.99 55.83,108.70 C55.69,108.65 54.68,108.50 53.57,108.34 C48.30,107.63 46.31,107.22 44.64,106.51 C44.32,106.37 43.94,106.26 43.79,106.26 C43.65,106.26 43.23,106.13 42.85,105.97 C42.47,105.80 41.93,105.57 41.62,105.44 C40.95,105.17 39.17,104.34 37.36,103.45 C36.62,103.09 35.39,102.40 34.65,101.91 C33.90,101.42 33.16,100.95 33.02,100.90 C32.87,100.82 32.46,100.53 32.09,100.25 C31.73,99.97 31.37,99.74 31.30,99.74 C30.25,99.74 22.02,91.44 19.63,87.97 C18.58,86.45 18.19,85.85 17.86,85.25 C17.68,84.91 17.32,84.29 17.06,83.89 C16.23,82.57 13.82,77.46 13.82,77.03 C13.82,76.88 13.71,76.49 13.57,76.16 C13.33,75.58 13.13,74.96 12.50,72.76 C12.06,71.27 11.65,69.04 11.65,68.17 C11.63,67.76 11.52,66.89 11.38,66.24 C11.03,64.72 11.01,62.80 11.34,62.80 C11.47,62.80 12.43,63.66 13.46,64.73 C15.23,66.56 16.68,67.67 19.40,69.30 C19.92,69.60 20.45,69.86 20.58,69.86 C20.68,69.86 20.96,69.98 21.14,70.13 C21.34,70.27 21.61,70.40 21.73,70.40 C21.86,70.40 22.40,70.62 22.93,70.87 C23.44,71.13 24.13,71.42 24.42,71.49 C24.72,71.58 25.21,71.72 25.50,71.83 C29.85,73.32 35.73,73.17 40.08,71.49 C40.62,71.27 41.24,71.05 41.44,71.00 C41.64,70.93 41.96,70.78 42.16,70.64 C42.36,70.51 42.69,70.40 42.92,70.40 C43.14,70.40 43.38,70.31 43.43,70.20 C43.50,70.11 43.74,69.93 43.94,69.84 C44.15,69.75 44.59,69.51 44.88,69.31 C45.19,69.12 45.58,68.88 45.78,68.77 C46.24,68.55 46.56,68.36 48.08,67.38 C49.79,66.27 50.11,66.31 51.60,67.81 C53.12,69.37 55.29,71.81 55.29,72.00 C55.29,72.07 53.95,73.43 52.32,75.02 C48.79,78.46 47.50,79.91 47.50,80.45 C47.50,81.83 49.17,83.95 50.37,84.11 C51.14,84.22 51.18,84.20 52.18,83.15 C54.86,80.36 59.37,76.38 59.85,76.38 C60.00,76.38 61.70,77.99 63.64,79.96 C65.58,81.92 67.44,83.69 67.80,83.87 C68.47,84.22 68.47,84.22 69.25,83.82 C69.69,83.58 70.32,83.17 70.65,82.88 C70.97,82.59 71.48,82.23 71.77,82.08 C72.93,81.48 72.33,80.61 67.50,75.73 C65.41,73.62 62.99,71.13 62.08,70.18 C61.19,69.24 60.16,68.23 59.82,67.94 C58.68,66.96 54.02,62.04 54.02,61.80 C54.02,61.67 54.37,61.26 54.77,60.88 C55.18,60.48 56.16,59.54 56.94,58.78 C58.30,57.44 59.73,56.28 60.00,56.28 C60.07,56.28 60.45,56.66 60.83,57.13 Z"/>
      <path class="ln mk" pathLength="1" style="--i:5" d="M58.28,81.81 C54.58,85.02 51.94,90.30 51.94,94.49 C51.96,98.72 53.77,103.20 56.76,106.35 C58.22,107.87 59.58,108.70 60.42,108.54 C61.94,108.23 65.83,103.32 67.22,99.96 C69.11,95.41 68.02,89.76 64.38,85.18 C61.03,80.98 59.94,80.36 58.28,81.81 Z"/>
      <path class="ln mk" pathLength="1" style="--i:6" d="M60.65,89.38 C61.63,90.03 62.10,93.74 61.72,97.96 C61.41,101.33 60.27,101.55 58.50,98.56 C56.92,95.90 56.94,94.21 58.59,90.96 C59.40,89.33 59.94,88.91 60.65,89.38 Z"/>
      <path class="ln mk" pathLength="1" style="--i:7" d="M60.81,20.09 C61.83,21.29 63.51,23.82 64.20,25.22 C65.79,28.41 66.03,29.55 66.01,34.15 C65.99,38.42 65.76,39.36 64.15,41.64 C63.95,41.90 63.80,42.17 63.80,42.22 C63.80,42.46 60.51,46.70 60.25,46.81 C59.62,47.04 59.29,46.68 56.29,42.51 C53.59,38.78 52.79,33.37 54.29,29.11 C54.40,28.77 54.66,28.03 54.82,27.48 C55.47,25.45 57.41,21.78 58.46,20.62 C59.87,19.04 59.89,19.03 60.81,20.09 Z"/>
      <path class="ln mk" pathLength="1" style="--i:8" d="M60.78,10.99 C61.19,11.09 62.81,11.29 64.35,11.46 C65.88,11.60 67.61,11.82 68.15,11.93 C68.69,12.04 69.60,12.20 70.16,12.27 C70.70,12.34 71.44,12.49 71.79,12.60 C72.13,12.69 72.89,12.92 73.49,13.09 C74.09,13.25 74.78,13.48 75.03,13.58 C75.28,13.68 76.08,13.96 76.79,14.19 C77.51,14.43 78.25,14.70 78.42,14.79 C78.60,14.88 79.10,15.11 79.56,15.31 C80.84,15.89 82.71,16.78 83.00,16.98 C83.14,17.07 83.92,17.52 84.72,17.98 C86.62,19.06 86.46,18.97 87.56,19.71 C95.96,25.45 102.25,33.68 105.89,43.73 C106.41,45.21 106.58,45.74 106.92,47.13 C107.12,47.93 107.39,48.98 107.54,49.47 C107.68,49.94 107.81,50.57 107.81,50.84 C107.81,51.12 107.93,51.73 108.08,52.22 C108.22,52.71 108.35,53.40 108.35,53.74 C108.35,54.09 108.44,54.66 108.55,55.01 C108.95,56.33 109.09,60.13 108.75,60.48 C108.46,60.77 108.35,60.71 106.72,59.26 C104.76,57.53 99.88,54.10 99.35,54.10 C99.28,54.10 98.72,53.85 98.08,53.56 C97.47,53.25 96.82,53.02 96.69,53.02 C96.54,53.02 96.38,52.94 96.33,52.85 C96.22,52.67 94.37,52.08 92.60,51.64 C91.94,51.50 90.17,51.31 88.65,51.26 C85.48,51.13 85.08,51.01 85.61,50.23 C85.77,49.96 86.31,49.30 86.78,48.78 C89.12,46.21 91.22,41.72 91.58,38.53 C91.64,38.08 91.76,37.35 91.85,36.90 C92.16,35.49 92.11,30.62 91.76,30.11 C90.82,28.66 81.17,30.09 76.93,32.30 C75.61,32.99 73.26,34.24 72.80,34.49 C72.40,34.71 72.40,34.71 72.30,32.59 C72.13,29.71 71.73,28.04 70.59,25.53 C70.45,25.22 70.19,24.64 70.03,24.26 C68.47,20.73 66.65,18.14 63.02,14.39 C60.56,11.84 59.78,11.46 58.44,12.14 C57.93,12.42 55.78,14.64 55.16,15.53 C55.00,15.78 54.82,16.02 54.77,16.07 C53.99,16.76 51.40,20.80 50.51,22.67 C48.84,26.22 48.08,29.95 48.30,33.66 C48.46,36.32 48.32,36.41 46.42,34.76 C45.35,33.84 43.56,32.72 42.25,32.16 C41.91,32.01 41.31,31.74 40.93,31.58 C40.55,31.41 40.13,31.29 39.99,31.29 C39.84,31.29 39.46,31.18 39.14,31.03 C37.60,30.36 32.24,29.62 29.58,29.69 C27.49,29.75 27.49,29.75 27.28,30.43 C26.99,31.32 27.26,36.59 27.67,38.22 C28.47,41.26 29.41,43.73 30.54,45.68 C31.55,47.44 31.95,48.04 32.89,49.29 C34.48,51.39 34.57,51.28 30.84,51.31 C27.53,51.35 26.19,51.57 23.76,52.49 C23.22,52.69 22.57,52.93 22.30,53.02 C21.66,53.22 19.49,54.30 18.08,55.15 C16.75,55.93 15.90,56.60 13.93,58.43 C12.05,60.17 11.52,60.48 11.18,60.01 C11.05,59.83 10.98,59.46 11.01,59.19 C11.05,58.94 11.14,57.69 11.20,56.44 C11.41,51.31 12.50,46.61 14.69,41.34 C15.22,40.05 17.82,35.03 18.35,34.27 C18.64,33.88 19.40,32.73 20.05,31.74 C22.02,28.75 24.80,25.71 28.22,22.76 C29.90,21.31 33.36,18.79 33.65,18.79 C33.72,18.79 34.09,18.57 34.45,18.28 C35.33,17.61 35.48,17.54 38.27,16.16 C39.61,15.49 40.95,14.84 41.22,14.70 C41.51,14.55 41.87,14.44 42.05,14.44 C42.22,14.44 42.51,14.34 42.71,14.19 C42.90,14.06 43.32,13.90 43.61,13.85 C43.92,13.79 44.73,13.56 45.42,13.30 C47.70,12.51 49.82,12.05 52.85,11.71 C55.44,11.42 57.39,11.17 58.10,11.02 C59.11,10.80 59.89,10.79 60.78,10.99 Z"/>
      <path class="ln mk" pathLength="1" style="--i:9" d="M73.02,86.75 C72.13,87.86 72.15,89.58 73.06,90.05 C73.73,90.39 75.08,90.39 75.75,90.05 C76.75,89.54 76.42,87.88 75.12,86.72 C74.27,85.98 73.64,85.98 73.02,86.75 Z"/>
      <path class="ln mk" pathLength="1" style="--i:10" d="M85.21,36.03 C85.93,36.61 85.86,39.56 85.10,41.06 C84.61,41.99 83.63,43.33 82.29,44.87 C80.12,47.37 70.34,56.87 69.45,57.34 C69.02,57.58 68.82,57.44 67.33,55.73 C67.03,55.39 66.10,54.47 65.29,53.70 C64.47,52.94 63.80,52.24 63.80,52.15 C63.80,51.95 74.49,41.19 75.92,39.98 C77.17,38.89 78.78,37.75 79.65,37.32 C79.96,37.17 80.44,36.92 80.73,36.75 C82.27,35.92 84.59,35.54 85.21,36.03 Z"/>
      <path class="ln mk" pathLength="1" style="--i:11" d="M89.97,57.25 C92.83,57.56 94.28,58.01 97.45,59.59 C99.88,60.80 100.42,61.20 100.27,61.62 C100.17,61.91 96.83,64.43 96.56,64.43 C96.49,64.43 95.73,64.75 94.91,65.17 C92.60,66.31 91.93,66.44 87.40,66.54 C82.89,66.65 81.42,66.45 79.56,65.51 C79.01,65.24 78.24,64.86 77.84,64.66 C75.72,63.66 73.85,62.05 74.14,61.49 C74.47,60.88 79.97,57.91 80.79,57.91 C80.99,57.91 81.49,57.78 81.91,57.63 C82.33,57.49 83.18,57.36 83.79,57.34 C84.39,57.34 85.04,57.27 85.23,57.22 C85.59,57.06 88.39,57.09 89.97,57.25 Z"/>
      <path class="ln wd" pathLength="1" style="--j:0" d="M141.47,19.01 C141.44,19.13 141.44,39.40 141.49,64.03 C141.58,108.83 141.58,108.83 141.96,109.12 C142.29,109.41 143.32,109.41 154.64,109.32 C161.39,109.25 172.98,109.19 180.37,109.17 C193.32,109.17 194.53,109.12 194.57,108.65 C194.69,106.84 194.57,101.13 194.40,100.97 C194.24,100.81 189.01,100.73 172.55,100.72 C160.65,100.68 150.82,100.61 150.73,100.55 C150.58,100.46 150.54,95.43 150.56,84.71 C150.58,70.33 150.60,68.95 150.87,68.72 C151.12,68.50 154.40,68.46 172.28,68.43 C188.65,68.41 193.41,68.36 193.59,68.17 C193.92,67.83 193.99,60.57 193.64,60.17 C193.41,59.88 191.91,59.88 172.13,59.92 C153.80,59.95 150.85,59.93 150.71,59.70 C150.44,59.28 150.54,27.70 150.83,27.48 C150.98,27.36 158.17,27.28 172.29,27.28 C188.56,27.28 193.68,27.23 194.06,27.07 C194.57,26.85 194.57,26.85 194.64,23.10 C194.69,19.93 194.66,19.30 194.44,19.06 C194.06,18.68 141.56,18.65 141.47,19.01 Z"/>
      <path class="ln wd" pathLength="1" style="--j:1" d="M222.47,28.10 C222.40,28.21 222.33,33.33 222.33,39.49 C222.31,47.06 222.24,50.75 222.11,50.88 C221.98,51.01 219.59,51.06 214.85,51.04 C208.62,51.02 207.77,51.04 207.52,51.30 C207.14,51.68 207.08,58.96 207.44,59.32 C207.61,59.48 209.51,59.54 214.87,59.54 C220.48,59.54 222.11,59.59 222.17,59.75 C222.24,59.97 222.42,89.27 222.44,103.03 C222.44,108.32 222.46,108.79 222.76,108.94 C223.36,109.26 230.50,109.39 230.79,109.10 C231.00,108.88 231.06,105.21 231.09,84.33 C231.13,65.57 231.20,59.79 231.37,59.68 C231.49,59.61 234.73,59.54 238.57,59.54 C244.04,59.54 245.62,59.48 245.76,59.30 C245.89,59.16 245.98,57.69 246.00,55.44 C246.03,51.82 245.92,51.04 245.38,51.02 C245.25,51.01 242.05,51.02 238.25,51.02 C233.85,51.04 231.29,50.97 231.24,50.86 C231.17,50.75 231.13,45.68 231.13,39.56 C231.13,29.80 231.09,28.41 230.86,28.21 C230.50,27.90 222.67,27.81 222.47,28.10 Z"/>
      <path class="ln wd" pathLength="1" style="--j:2" d="M258.64,10.21 C258.46,10.44 258.58,108.01 258.76,108.65 C258.89,109.10 259.13,109.14 263.38,109.19 C266.35,109.23 267.37,109.19 267.57,109.01 C267.82,108.81 267.85,107.33 267.87,96.61 C267.89,77.23 267.98,75.65 269.18,72.03 C270.92,66.80 273.49,63.36 277.40,61.04 C278.14,60.60 279.35,60.08 279.64,60.08 C279.81,60.08 280.10,59.95 280.28,59.81 C280.48,59.66 280.89,59.54 281.20,59.54 C281.51,59.54 282.22,59.41 282.76,59.25 C283.50,59.01 284.53,58.94 287.00,58.92 C290.46,58.90 290.42,58.90 292.61,59.92 C294.26,60.68 296.79,63.57 297.66,65.69 C297.84,66.15 298.08,66.71 298.21,66.96 C298.35,67.29 298.42,73.19 298.50,88.15 C298.55,99.56 298.60,108.90 298.64,108.90 C298.98,109.14 299.94,109.19 303.26,109.25 C306.84,109.30 307.24,109.28 307.53,108.99 C308.09,108.43 307.97,68.99 307.39,66.51 C307.30,66.11 307.08,65.13 306.90,64.33 C305.81,59.39 301.41,54.01 296.39,51.50 C295.69,51.13 294.96,50.84 294.77,50.84 C294.57,50.84 294.26,50.74 294.06,50.59 C293.86,50.46 293.46,50.30 293.15,50.25 C292.86,50.19 292.28,50.06 291.89,49.96 C289.59,49.38 285.53,49.23 283.19,49.67 C278.39,50.54 273.31,53.54 270.06,57.42 C268.09,59.77 268.05,59.81 267.87,59.52 C267.69,59.25 267.80,16.85 268.00,13.00 C268.16,9.88 268.53,10.12 263.11,10.04 C259.94,10.01 258.76,10.06 258.64,10.21 Z"/>
      <path class="ln wd" pathLength="1" style="--j:3" d="M347.75,49.41 C347.30,49.50 346.54,49.61 346.03,49.68 C344.06,49.94 340.65,51.06 338.68,52.11 C337.48,52.75 336.52,53.27 336.07,53.58 C335.78,53.76 335.37,53.99 335.17,54.09 C333.21,54.99 328.16,60.35 326.89,62.83 C326.67,63.27 326.33,63.85 326.13,64.15 C325.64,64.84 324.57,66.98 324.57,67.27 C324.57,67.38 324.43,67.74 324.26,68.08 C324.10,68.41 323.87,68.90 323.72,69.17 C323.59,69.42 323.49,69.77 323.49,69.91 C323.49,70.06 323.36,70.42 323.21,70.69 C323.07,70.98 322.94,71.38 322.94,71.58 C322.94,71.78 322.80,72.34 322.63,72.85 C322.38,73.61 322.35,74.66 322.35,79.82 C322.35,86.65 322.38,86.90 323.79,90.77 C323.96,91.17 324.17,91.72 324.32,91.99 C324.46,92.24 324.57,92.55 324.57,92.68 C324.57,92.89 325.53,94.87 326.17,95.94 C326.37,96.28 326.71,96.89 326.93,97.28 C327.63,98.58 330.02,101.53 331.44,102.83 C332.70,104.05 335.47,106.26 335.69,106.26 C335.75,106.26 336.09,106.47 336.47,106.73 C337.19,107.22 339.68,108.43 339.95,108.43 C340.04,108.43 340.35,108.54 340.64,108.68 C343.30,110.01 350.38,110.48 355.72,109.70 C358.71,109.26 360.95,108.43 363.60,106.80 C363.91,106.62 364.47,106.29 364.85,106.08 C366.02,105.44 367.65,104.10 369.66,102.15 C371.46,100.39 372.02,100.03 372.29,100.48 C372.36,100.57 372.40,102.47 372.40,104.70 C372.36,108.25 372.40,108.77 372.67,108.99 C373.18,109.41 380.86,109.37 381.07,108.96 C381.18,108.77 381.27,97.17 381.31,80.25 C381.38,53.61 381.36,51.86 381.07,51.57 C380.76,51.26 380.17,51.21 373.39,50.99 C372.43,50.97 372.38,51.21 372.38,56.13 C372.38,58.59 372.31,60.62 372.24,60.62 C372.07,60.62 370.42,58.94 369.75,58.09 C369.19,57.40 366.30,54.70 365.21,53.89 C363.71,52.76 359.96,50.84 359.20,50.84 C359.03,50.84 358.73,50.72 358.55,50.57 C358.35,50.43 357.98,50.30 357.73,50.30 C357.48,50.30 356.90,50.19 356.44,50.05 C354.33,49.38 349.76,49.03 347.75,49.41 Z"/>
      <path class="ln wd" pathLength="1" style="--j:4" d="M354.22,58.83 C354.47,58.92 354.94,58.99 355.29,58.99 C355.63,58.99 356.21,59.12 356.57,59.26 C356.92,59.41 357.35,59.54 357.53,59.54 C358.38,59.54 361.97,61.40 364.00,62.92 C366.06,64.44 369.18,68.39 370.33,70.94 C370.55,71.40 370.95,72.28 371.24,72.94 C372.11,74.84 372.43,77.32 372.33,81.09 C372.27,83.26 372.14,84.51 371.96,85.07 C369.28,92.86 364.39,98.14 357.80,100.39 C354.13,101.64 348.64,101.69 345.94,100.52 C345.60,100.37 345.07,100.14 344.76,100.01 C341.34,98.52 339.60,97.37 337.23,95.03 C331.62,89.45 329.55,80.54 332.21,73.39 C333.52,69.93 334.48,68.25 336.47,65.93 C340.11,61.71 343.10,59.90 347.93,58.97 C348.48,58.88 349.29,58.72 349.74,58.63 C350.67,58.45 353.57,58.58 354.22,58.83 Z"/>
      <path class="ln wd" pathLength="1" style="--j:5" d="M422.81,49.65 C421.11,50.06 418.50,51.50 416.77,52.98 C415.86,53.76 414.97,54.81 412.94,57.54 C411.64,59.32 411.30,59.72 411.10,59.72 C410.95,59.72 410.93,58.76 411.04,56.49 C411.24,52.40 411.22,51.89 410.97,51.42 C410.75,51.02 410.74,51.01 406.33,51.06 C403.89,51.08 401.81,51.15 401.72,51.21 C401.50,51.33 401.45,108.16 401.64,108.70 C401.81,109.10 402.17,109.15 406.48,109.23 C409.92,109.28 410.46,109.26 410.77,108.99 C411.12,108.70 411.13,108.27 411.19,91.77 C411.26,73.14 411.24,73.44 412.33,71.04 C412.46,70.73 412.84,69.88 413.18,69.13 C414.54,66.13 417.24,62.87 419.83,61.11 C421.89,59.74 423.52,59.43 426.25,59.97 C427.56,60.21 427.94,60.39 429.66,61.56 C431.54,62.85 431.60,62.72 431.40,58.09 C431.05,49.61 431.14,49.90 428.83,49.59 C426.98,49.34 423.95,49.36 422.81,49.65 Z"/>
      <path class="ln wd" pathLength="1" style="--j:6" d="M463.65,49.52 C461.26,49.92 458.63,50.68 457.22,51.35 C453.49,53.14 452.80,53.54 451.05,54.85 C446.83,58.00 443.91,61.78 441.38,67.38 C441.09,68.05 440.83,68.66 440.83,68.75 C440.83,68.84 440.72,69.15 440.58,69.44 C438.89,72.83 438.53,84.31 439.96,88.42 C440.05,88.71 440.20,89.25 440.27,89.60 C440.34,89.94 440.49,90.39 440.60,90.59 C440.71,90.79 440.94,91.32 441.10,91.77 C441.27,92.22 441.52,92.80 441.67,93.07 C441.81,93.33 441.92,93.64 441.92,93.74 C441.92,93.83 442.43,94.76 443.04,95.79 C447.68,103.50 454.45,108.65 461.39,109.72 C465.32,110.31 473.32,110.02 475.42,109.19 C475.67,109.10 476.24,108.87 476.69,108.70 C477.68,108.30 479.86,107.25 480.53,106.84 C482.74,105.44 484.02,104.39 486.36,102.06 C487.83,100.59 489.17,99.38 489.29,99.38 C489.58,99.38 489.60,99.65 489.55,104.19 C489.49,109.43 489.49,109.44 492.43,109.25 C493.39,109.17 494.98,109.21 495.97,109.32 C497.51,109.48 497.82,109.46 498.08,109.23 C498.37,108.97 498.38,106.98 498.37,80.25 C498.35,51.80 498.35,51.55 497.98,51.35 C497.42,51.04 490.14,51.02 489.89,51.33 C489.75,51.50 489.69,53.02 489.71,56.19 C489.75,59.55 489.69,60.80 489.55,60.80 C489.42,60.80 488.10,59.55 486.59,58.03 C485.07,56.51 483.55,55.01 483.19,54.70 C481.27,53.05 476.78,50.79 474.52,50.32 C474.17,50.25 473.59,50.08 473.25,49.99 C470.91,49.27 466.44,49.03 463.65,49.52 Z"/>
      <path class="ln wd" pathLength="1" style="--j:7" d="M470.88,58.74 C471.93,58.90 473.07,59.14 473.39,59.28 C473.72,59.43 474.15,59.54 474.35,59.54 C474.73,59.54 475.55,59.84 476.56,60.37 C476.85,60.51 477.16,60.62 477.25,60.62 C477.36,60.62 478.14,61.04 478.99,61.56 C481.72,63.21 485.87,67.72 486.94,70.22 C486.99,70.37 487.17,70.78 487.34,71.13 C487.88,72.32 488.22,73.23 488.80,74.93 C488.93,75.27 489.15,76.50 489.27,77.65 C489.73,81.30 489.27,84.49 487.81,87.93 C487.66,88.26 487.55,88.64 487.55,88.76 C487.55,89.16 485.42,92.30 484.15,93.76 C479.71,98.89 474.55,101.37 468.38,101.37 C466.44,101.37 465.80,101.30 463.65,100.82 C463.07,100.72 460.15,99.43 459.48,99.01 C459.34,98.92 458.85,98.67 458.40,98.45 C455.95,97.24 452.15,93.40 450.83,90.77 C449.96,89.07 449.02,86.90 448.75,85.98 C447.91,83.13 448.02,76.78 448.98,73.84 C450.19,70.02 452.28,66.67 455.05,64.03 C456.19,62.96 457.75,61.71 457.95,61.71 C458.02,61.71 458.38,61.46 458.76,61.17 C459.14,60.86 459.56,60.62 459.70,60.62 C459.83,60.62 460.10,60.51 460.30,60.39 C460.63,60.17 461.10,60.02 463.65,59.26 C464.10,59.14 464.83,58.97 465.28,58.90 C465.73,58.83 466.46,58.72 466.91,58.63 C468.20,58.41 468.81,58.43 470.88,58.74 Z"/>
      <path class="ln wd" pathLength="1" style="--j:8" d="M525.04,95.39 C522.72,95.70 520.40,97.58 519.06,100.19 C517.92,102.42 517.94,103.85 519.12,105.80 C521.24,109.28 522.85,110.17 526.74,110.01 C529.57,109.90 530.02,109.72 531.52,108.25 C533.42,106.37 533.80,105.51 533.80,103.09 C533.82,100.81 533.42,99.77 531.87,98.02 C531.12,97.18 530.69,96.91 528.12,95.66 C527.52,95.37 526.07,95.25 525.04,95.39 Z"/>
      <path class="ln wd" pathLength="1" style="--j:9" d="M584.13,14.12 C583.71,14.59 583.44,15.33 583.17,16.76 C583.08,17.29 582.79,18.17 582.54,18.75 C581.32,21.45 581.11,21.96 580.73,22.96 C580.54,23.41 580.31,23.99 580.16,24.26 C580.02,24.51 579.91,24.89 579.91,25.07 C579.91,25.26 579.84,25.49 579.75,25.60 C579.66,25.69 579.40,26.22 579.19,26.76 C578.53,28.37 577.18,31.68 576.92,32.28 C576.80,32.57 576.42,33.48 576.11,34.27 C575.78,35.07 575.29,36.28 575.00,36.97 C574.71,37.66 574.48,38.28 574.48,38.37 C574.48,38.46 574.22,39.07 573.92,39.74 C573.08,41.57 572.92,41.97 572.58,42.88 C572.41,43.33 572.14,43.98 572.00,44.32 C570.71,47.31 570.13,48.72 570.13,48.87 C570.13,48.96 569.88,49.58 569.57,50.25 C569.28,50.93 568.92,51.71 568.79,52.02 C568.66,52.31 568.41,52.87 568.25,53.25 C568.08,53.63 567.96,54.03 567.96,54.16 C567.96,54.27 567.72,54.86 567.43,55.46 C567.16,56.06 566.78,56.91 566.60,57.36 C566.44,57.82 566.18,58.40 566.04,58.67 C565.89,58.92 565.79,59.28 565.79,59.45 C565.79,59.61 565.68,59.97 565.53,60.22 C565.40,60.50 565.15,61.02 564.99,61.38 C564.83,61.76 564.57,62.38 564.41,62.74 C564.25,63.12 563.99,63.65 563.87,63.92 C563.72,64.17 563.61,64.52 563.61,64.66 C563.61,64.82 563.25,65.73 562.80,66.67 C562.34,67.63 561.98,68.52 561.98,68.64 C561.98,68.77 561.86,69.04 561.71,69.24 C561.57,69.42 561.44,69.73 561.44,69.91 C561.44,70.11 561.33,70.47 561.20,70.73 C561.06,71.00 560.82,71.49 560.66,71.81 C560.50,72.16 560.35,72.54 560.35,72.70 C560.35,72.85 560.24,73.19 560.10,73.44 C559.43,74.73 557.09,80.40 557.09,80.72 C557.09,80.89 557.02,81.09 556.93,81.18 C556.84,81.28 556.48,82.08 556.10,82.99 C555.73,83.87 555.32,84.83 555.17,85.11 C555.03,85.36 554.92,85.70 554.92,85.87 C554.92,86.03 554.67,86.70 554.36,87.37 C553.07,90.19 552.75,90.97 552.75,91.21 C552.75,91.32 552.49,91.97 552.19,92.64 C551.50,94.11 551.23,94.72 550.88,95.66 C550.34,97.15 549.99,98.04 549.72,98.65 C549.58,99.00 549.34,99.52 549.22,99.83 C549.11,100.12 548.85,100.68 548.69,101.06 C548.53,101.44 548.40,101.86 548.40,102.00 C548.40,102.13 547.95,103.16 547.37,104.28 C546.81,105.41 546.30,106.58 546.21,106.89 C546.14,107.18 545.97,107.71 545.85,108.03 C545.38,109.15 545.61,109.26 548.73,109.17 C550.39,109.14 551.93,109.21 552.71,109.34 C554.85,109.72 555.66,108.96 556.82,105.42 C557.06,104.70 557.33,103.98 557.42,103.79 C557.64,103.38 558.67,100.86 559.36,99.10 C559.61,98.40 559.94,97.58 560.08,97.29 C560.73,95.79 560.90,95.36 560.90,95.14 C560.90,94.99 561.15,94.34 561.44,93.67 C561.75,93.00 561.98,92.33 561.98,92.19 C561.98,92.04 562.11,91.70 562.24,91.44 C562.53,90.92 563.56,88.28 564.05,86.83 C564.48,85.54 565.02,84.56 565.40,84.36 C566.02,84.02 603.98,84.09 604.34,84.42 C604.72,84.76 605.34,85.99 606.82,89.38 C606.97,89.71 607.07,90.09 607.07,90.23 C607.07,90.38 607.20,90.79 607.36,91.17 C608.07,92.82 608.21,93.15 608.40,93.49 C608.49,93.69 608.65,94.09 608.72,94.40 C608.88,95.07 609.21,95.99 609.57,96.84 C610.35,98.62 610.79,99.77 611.17,101.01 C611.33,101.55 611.55,102.13 611.62,102.27 C611.71,102.42 611.84,102.67 611.89,102.82 C611.95,102.96 612.11,103.36 612.25,103.69 C612.81,104.95 613.03,105.48 613.29,106.17 C614.50,109.43 614.06,109.21 619.79,109.28 C624.73,109.34 624.77,109.34 624.22,108.16 C624.08,107.87 623.84,107.33 623.70,106.98 C623.55,106.64 623.17,105.82 622.86,105.17 C622.56,104.52 622.12,103.50 621.92,102.91 C621.71,102.31 621.47,101.75 621.40,101.64 C621.27,101.46 620.35,99.27 619.80,97.84 C619.64,97.44 619.42,96.86 619.28,96.57 C619.15,96.26 618.66,95.08 618.21,93.94 C617.20,91.43 616.35,89.34 616.04,88.60 C615.91,88.29 615.66,87.70 615.49,87.24 C615.31,86.79 615.08,86.17 614.93,85.88 C614.41,84.65 613.41,82.19 613.03,81.18 C612.81,80.58 612.36,79.49 612.04,78.77 C611.69,78.04 611.42,77.39 611.42,77.34 C611.42,77.21 610.13,74.04 609.52,72.67 C608.92,71.29 608.70,70.75 608.70,70.58 C608.70,70.47 608.47,69.89 608.18,69.28 C607.91,68.64 607.40,67.49 607.07,66.69 C606.77,65.89 606.26,64.73 605.97,64.12 C605.68,63.48 605.44,62.90 605.44,62.81 C605.44,62.72 605.34,62.42 605.19,62.13 C605.05,61.85 604.81,61.29 604.67,60.89 C604.18,59.57 603.76,58.56 603.23,57.40 C602.96,56.78 602.73,56.20 602.73,56.10 C602.73,55.91 602.44,55.19 601.62,53.43 C601.33,52.80 601.10,52.22 601.10,52.13 C601.10,52.04 600.99,51.73 600.84,51.44 C600.70,51.17 600.45,50.57 600.28,50.12 C600.10,49.67 599.87,49.05 599.74,48.76 C599.59,48.45 599.25,47.60 598.96,46.86 C597.93,44.27 597.62,43.51 597.17,42.51 C596.32,40.65 596.23,40.43 595.59,38.86 C595.23,38.00 594.94,37.24 594.94,37.17 C594.94,37.12 594.74,36.63 594.51,36.12 C594.11,35.25 593.89,34.69 593.18,32.83 C593.02,32.43 592.79,31.83 592.64,31.52 C592.17,30.40 591.90,29.75 591.57,28.93 C591.41,28.48 591.03,27.61 590.74,26.98 C590.47,26.36 590.23,25.78 590.23,25.69 C590.23,25.60 590.11,25.29 589.96,25.00 C589.49,24.08 586.97,17.94 586.97,17.72 C586.97,17.60 586.86,17.27 586.74,17.02 C586.59,16.74 586.36,16.26 586.19,15.93 C586.03,15.59 585.89,15.22 585.89,15.10 C585.89,14.84 584.89,13.72 584.65,13.72 C584.56,13.72 584.33,13.90 584.13,14.12 Z"/>
      <path class="ln wd" pathLength="1" style="--j:10" d="M585.40,36.01 C585.67,36.41 585.89,36.83 585.89,36.94 C585.89,37.03 585.99,37.33 586.14,37.59 C586.74,38.67 587.52,40.54 587.52,40.85 C587.52,41.03 587.64,41.34 587.79,41.54 C587.93,41.72 588.06,42.02 588.06,42.19 C588.06,42.35 588.17,42.71 588.31,43.00 C588.77,43.87 589.15,44.81 589.15,45.09 C589.15,45.21 589.27,45.48 589.42,45.66 C589.56,45.86 589.69,46.17 589.69,46.37 C589.69,46.55 589.80,46.93 589.94,47.19 C590.09,47.46 590.34,48.04 590.50,48.49 C590.81,49.29 590.97,49.68 591.57,51.08 C591.74,51.46 591.86,51.88 591.86,52.02 C591.86,52.15 591.97,52.49 592.12,52.78 C592.26,53.05 592.51,53.61 592.68,54.01 C592.86,54.41 593.11,54.97 593.24,55.24 C593.38,55.53 593.49,55.90 593.49,56.06 C593.49,56.22 593.62,56.53 593.76,56.71 C593.91,56.91 594.04,57.20 594.04,57.38 C594.04,57.65 594.90,59.88 595.34,60.70 C595.43,60.88 595.72,61.64 595.95,62.38 C596.21,63.14 596.59,64.17 596.82,64.68 C597.04,65.19 597.39,65.96 597.55,66.42 C597.73,66.87 597.98,67.50 598.13,67.83 C598.27,68.16 598.38,68.54 598.38,68.68 C598.38,68.81 598.49,69.15 598.63,69.44 C598.76,69.71 599.00,70.24 599.14,70.58 C599.29,70.93 599.56,71.52 599.72,71.90 C599.88,72.28 600.01,72.70 600.01,72.85 C600.01,72.97 600.12,73.32 600.26,73.61 C600.81,74.68 600.97,75.51 600.72,75.69 C600.45,75.85 568.70,75.82 568.59,75.63 C568.56,75.58 568.75,75.04 569.06,74.42 C569.35,73.81 569.59,73.23 569.59,73.12 C569.59,73.01 569.81,72.50 570.06,71.98 C570.31,71.47 570.62,70.75 570.75,70.40 C570.87,70.06 571.42,68.70 571.92,67.41 C573.54,63.39 573.86,62.58 574.46,60.98 C574.79,60.13 575.33,58.79 575.65,58.00 C575.98,57.20 576.38,56.19 576.54,55.73 C577.12,54.07 577.37,53.36 577.54,53.05 C577.63,52.89 577.83,52.42 577.97,52.02 C578.32,51.12 579.15,49.03 579.96,47.04 C580.31,46.19 580.73,45.14 580.89,44.69 C581.30,43.49 581.61,42.71 582.07,41.70 C582.30,41.19 582.55,40.54 582.63,40.25 C582.72,39.94 582.95,39.25 583.17,38.71 C583.39,38.17 583.62,37.33 583.69,36.86 C583.82,36.01 584.29,35.27 584.71,35.27 C584.82,35.27 585.13,35.60 585.40,36.01 Z"/>
      <path class="ln wd" pathLength="1" style="--j:11" d="M635.70,19.04 C635.36,19.44 635.50,108.45 635.85,108.87 C636.19,109.28 644.31,109.23 644.79,108.81 C645.08,108.59 645.10,105.21 645.10,64.05 C645.10,19.53 645.10,19.53 644.70,19.32 C643.89,18.88 636.03,18.65 635.70,19.04 Z"/>
      <path class="fill markfill" fill-rule="evenodd" d="M37.04,57.65 C37.44,57.80 37.92,57.91 38.12,57.91 C39.32,57.91 45.15,61.35 45.15,62.04 C45.15,62.87 39.68,65.82 37.22,66.33 C35.28,66.74 32.06,66.85 29.49,66.63 C26.84,66.38 26.81,66.38 23.06,64.62 C22.06,64.17 19.36,62.09 19.11,61.58 C18.87,61.17 18.91,61.08 19.36,60.60 C19.63,60.31 19.96,60.08 20.11,60.08 C20.32,60.08 20.56,59.99 22.51,59.12 C25.03,58.00 27.00,57.47 29.49,57.29 C31.33,57.15 36.29,57.38 37.04,57.65 Z M35.81,35.92 C40.03,37.03 43.47,39.67 51.90,48.22 C54.86,51.22 55.27,51.71 55.20,52.11 C55.07,52.60 50.02,57.73 49.64,57.73 C49.35,57.73 39.07,47.38 37.04,45.05 C35.05,42.77 33.70,40.05 33.36,37.62 C33.18,36.27 33.22,36.05 33.78,35.81 C34.38,35.58 34.57,35.60 35.81,35.92 Z M44.93,86.57 C44.41,87.01 43.88,88.11 43.88,88.78 C43.88,89.89 45.53,90.61 46.73,90.03 C47.38,89.71 47.41,89.63 47.38,88.93 C47.34,88.06 46.76,86.84 46.20,86.45 C45.66,86.07 45.51,86.08 44.93,86.57 Z M56.65,4.05 C55.07,4.12 51.74,4.61 50.37,4.96 C49.79,5.10 49.12,5.21 48.86,5.21 C48.16,5.21 44.84,6.06 42.16,6.95 C38.79,8.05 36.02,9.28 32.84,11.06 C32.38,11.31 31.69,11.69 31.30,11.91 C30.90,12.13 30.23,12.54 29.81,12.83 C29.38,13.12 28.65,13.61 28.18,13.94 C24.11,16.67 18.95,21.40 16.61,24.50 C15.38,26.11 11.92,31.25 11.39,32.21 C11.21,32.55 10.78,33.35 10.42,34.00 C9.48,35.72 9.40,35.87 8.32,38.42 C7.75,39.72 7.30,40.88 7.30,41.01 C7.30,41.14 7.19,41.50 7.05,41.83 C5.84,44.67 5.24,47.28 4.57,52.47 C4.50,53.13 4.33,54.01 4.22,54.47 C3.90,55.79 3.93,64.14 4.30,66.33 C4.46,67.32 4.71,68.95 4.88,69.95 C5.02,70.94 5.27,72.18 5.42,72.68 C5.56,73.19 5.67,73.77 5.67,73.99 C5.67,74.20 5.78,74.64 5.93,74.96 C6.05,75.29 6.31,76.05 6.49,76.65 C6.65,77.25 6.90,78.01 7.05,78.33 C7.19,78.66 7.30,79.06 7.30,79.24 C7.30,79.40 7.43,79.71 7.57,79.89 C7.72,80.09 7.85,80.36 7.85,80.49 C7.85,80.71 8.62,82.52 9.22,83.66 C9.37,83.91 9.48,84.22 9.48,84.33 C9.48,84.44 9.84,85.12 10.27,85.85 C10.71,86.55 11.32,87.64 11.65,88.24 C13.75,92.08 18.57,98.24 21.63,101.01 C27.24,106.08 33.54,109.92 40.50,112.52 C42.25,113.19 42.60,113.30 43.61,113.59 C44.21,113.75 45.06,114.01 45.51,114.13 C45.96,114.26 46.65,114.42 47.05,114.46 C47.45,114.52 48.55,114.73 49.50,114.95 C53.46,115.84 55.98,116.07 60.63,115.98 C63.02,115.95 65.47,115.82 66.07,115.69 C70.41,114.84 72.19,114.48 73.67,114.10 C75.16,113.74 76.66,113.32 77.20,113.10 C77.46,113.01 78.22,112.74 78.92,112.50 C80.73,111.89 81.69,111.53 82.06,111.35 C82.22,111.26 83.47,110.64 84.81,109.97 C86.15,109.32 87.51,108.61 87.80,108.43 C88.10,108.23 88.50,108.00 88.70,107.89 C89.57,107.43 90.75,106.71 91.35,106.24 C91.71,105.95 92.09,105.71 92.16,105.71 C92.25,105.70 92.58,105.50 92.87,105.24 C93.18,104.99 93.83,104.45 94.32,104.05 C99.01,100.30 105.63,92.89 107.55,89.23 C107.75,88.89 108.08,88.35 108.28,88.06 C108.82,87.32 111.16,82.63 111.48,81.63 C111.63,81.18 111.94,80.40 112.15,79.91 C112.66,78.73 113.57,76.00 113.71,75.15 C113.77,74.78 113.93,74.06 114.05,73.57 C115.00,70.09 115.34,68.17 115.61,64.88 C116.16,58.23 115.58,51.55 114.05,46.66 C113.91,46.19 113.78,45.66 113.78,45.48 C113.78,45.03 112.48,40.94 112.01,39.94 C111.81,39.51 111.50,38.80 111.34,38.35 C109.51,33.68 105.62,27.34 102.25,23.54 C100.07,21.11 96.80,18.05 93.75,15.60 C93.05,15.04 88.36,11.89 87.87,11.67 C87.72,11.60 87.38,11.38 87.07,11.20 C86.24,10.66 82.53,8.85 80.92,8.18 C79.36,7.54 76.59,6.62 74.31,6.01 C73.76,5.86 72.93,5.61 72.48,5.46 C72.01,5.34 71.37,5.21 71.06,5.21 C70.76,5.21 70.03,5.10 69.45,4.96 C66.68,4.27 60.76,3.85 56.65,4.05 Z M60.83,57.13 C61.21,57.62 62.03,58.49 62.63,59.10 C64.33,60.82 65.07,61.69 65.07,61.96 C65.07,62.11 64.35,62.98 63.46,63.90 C61.10,66.40 60.85,67.05 61.86,67.99 C63.86,69.86 65.79,69.77 67.80,67.67 C69.13,66.27 69.51,66.27 71.68,67.69 C71.99,67.88 72.35,68.10 72.49,68.17 C72.64,68.25 73.09,68.52 73.49,68.79 C75.17,69.93 78.27,71.25 81.28,72.14 C83.56,72.81 89.03,72.90 91.42,72.28 C95.24,71.33 97.27,70.55 99.93,69.04 C100.53,68.70 101.14,68.37 101.29,68.30 C102.88,67.52 107.25,63.36 108.28,61.60 C108.95,60.51 109.20,63.39 108.62,65.42 C108.50,65.91 108.24,67.02 108.08,67.87 C107.92,68.72 107.66,69.82 107.52,70.33 C107.37,70.84 107.26,71.51 107.26,71.83 C107.26,72.16 107.17,72.57 107.08,72.77 C106.97,72.95 106.81,73.46 106.74,73.88 C106.65,74.31 106.39,75.11 106.18,75.65 C105.43,77.59 105.25,78.10 105.11,78.64 C105.04,78.95 104.87,79.35 104.76,79.55 C104.66,79.75 104.11,80.85 103.57,81.99 C101.83,85.56 101.03,86.81 98.59,89.85 C94.41,95.10 90.53,98.52 84.63,102.24 C83.81,102.76 79.38,104.99 78.60,105.28 C73.42,107.22 71.68,107.65 66.97,108.25 C65.38,108.45 63.58,108.70 62.99,108.79 C62.39,108.88 61.54,108.97 61.09,108.97 C60.62,108.97 60.16,109.06 60.07,109.15 C59.91,109.32 56.78,108.99 55.83,108.70 C55.69,108.65 54.68,108.50 53.57,108.34 C48.30,107.63 46.31,107.22 44.64,106.51 C44.32,106.37 43.94,106.26 43.79,106.26 C43.65,106.26 43.23,106.13 42.85,105.97 C42.47,105.80 41.93,105.57 41.62,105.44 C40.95,105.17 39.17,104.34 37.36,103.45 C36.62,103.09 35.39,102.40 34.65,101.91 C33.90,101.42 33.16,100.95 33.02,100.90 C32.87,100.82 32.46,100.53 32.09,100.25 C31.73,99.97 31.37,99.74 31.30,99.74 C30.25,99.74 22.02,91.44 19.63,87.97 C18.58,86.45 18.19,85.85 17.86,85.25 C17.68,84.91 17.32,84.29 17.06,83.89 C16.23,82.57 13.82,77.46 13.82,77.03 C13.82,76.88 13.71,76.49 13.57,76.16 C13.33,75.58 13.13,74.96 12.50,72.76 C12.06,71.27 11.65,69.04 11.65,68.17 C11.63,67.76 11.52,66.89 11.38,66.24 C11.03,64.72 11.01,62.80 11.34,62.80 C11.47,62.80 12.43,63.66 13.46,64.73 C15.23,66.56 16.68,67.67 19.40,69.30 C19.92,69.60 20.45,69.86 20.58,69.86 C20.68,69.86 20.96,69.98 21.14,70.13 C21.34,70.27 21.61,70.40 21.73,70.40 C21.86,70.40 22.40,70.62 22.93,70.87 C23.44,71.13 24.13,71.42 24.42,71.49 C24.72,71.58 25.21,71.72 25.50,71.83 C29.85,73.32 35.73,73.17 40.08,71.49 C40.62,71.27 41.24,71.05 41.44,71.00 C41.64,70.93 41.96,70.78 42.16,70.64 C42.36,70.51 42.69,70.40 42.92,70.40 C43.14,70.40 43.38,70.31 43.43,70.20 C43.50,70.11 43.74,69.93 43.94,69.84 C44.15,69.75 44.59,69.51 44.88,69.31 C45.19,69.12 45.58,68.88 45.78,68.77 C46.24,68.55 46.56,68.36 48.08,67.38 C49.79,66.27 50.11,66.31 51.60,67.81 C53.12,69.37 55.29,71.81 55.29,72.00 C55.29,72.07 53.95,73.43 52.32,75.02 C48.79,78.46 47.50,79.91 47.50,80.45 C47.50,81.83 49.17,83.95 50.37,84.11 C51.14,84.22 51.18,84.20 52.18,83.15 C54.86,80.36 59.37,76.38 59.85,76.38 C60.00,76.38 61.70,77.99 63.64,79.96 C65.58,81.92 67.44,83.69 67.80,83.87 C68.47,84.22 68.47,84.22 69.25,83.82 C69.69,83.58 70.32,83.17 70.65,82.88 C70.97,82.59 71.48,82.23 71.77,82.08 C72.93,81.48 72.33,80.61 67.50,75.73 C65.41,73.62 62.99,71.13 62.08,70.18 C61.19,69.24 60.16,68.23 59.82,67.94 C58.68,66.96 54.02,62.04 54.02,61.80 C54.02,61.67 54.37,61.26 54.77,60.88 C55.18,60.48 56.16,59.54 56.94,58.78 C58.30,57.44 59.73,56.28 60.00,56.28 C60.07,56.28 60.45,56.66 60.83,57.13 Z M58.28,81.81 C54.58,85.02 51.94,90.30 51.94,94.49 C51.96,98.72 53.77,103.20 56.76,106.35 C58.22,107.87 59.58,108.70 60.42,108.54 C61.94,108.23 65.83,103.32 67.22,99.96 C69.11,95.41 68.02,89.76 64.38,85.18 C61.03,80.98 59.94,80.36 58.28,81.81 Z M60.65,89.38 C61.63,90.03 62.10,93.74 61.72,97.96 C61.41,101.33 60.27,101.55 58.50,98.56 C56.92,95.90 56.94,94.21 58.59,90.96 C59.40,89.33 59.94,88.91 60.65,89.38 Z M60.81,20.09 C61.83,21.29 63.51,23.82 64.20,25.22 C65.79,28.41 66.03,29.55 66.01,34.15 C65.99,38.42 65.76,39.36 64.15,41.64 C63.95,41.90 63.80,42.17 63.80,42.22 C63.80,42.46 60.51,46.70 60.25,46.81 C59.62,47.04 59.29,46.68 56.29,42.51 C53.59,38.78 52.79,33.37 54.29,29.11 C54.40,28.77 54.66,28.03 54.82,27.48 C55.47,25.45 57.41,21.78 58.46,20.62 C59.87,19.04 59.89,19.03 60.81,20.09 Z M60.78,10.99 C61.19,11.09 62.81,11.29 64.35,11.46 C65.88,11.60 67.61,11.82 68.15,11.93 C68.69,12.04 69.60,12.20 70.16,12.27 C70.70,12.34 71.44,12.49 71.79,12.60 C72.13,12.69 72.89,12.92 73.49,13.09 C74.09,13.25 74.78,13.48 75.03,13.58 C75.28,13.68 76.08,13.96 76.79,14.19 C77.51,14.43 78.25,14.70 78.42,14.79 C78.60,14.88 79.10,15.11 79.56,15.31 C80.84,15.89 82.71,16.78 83.00,16.98 C83.14,17.07 83.92,17.52 84.72,17.98 C86.62,19.06 86.46,18.97 87.56,19.71 C95.96,25.45 102.25,33.68 105.89,43.73 C106.41,45.21 106.58,45.74 106.92,47.13 C107.12,47.93 107.39,48.98 107.54,49.47 C107.68,49.94 107.81,50.57 107.81,50.84 C107.81,51.12 107.93,51.73 108.08,52.22 C108.22,52.71 108.35,53.40 108.35,53.74 C108.35,54.09 108.44,54.66 108.55,55.01 C108.95,56.33 109.09,60.13 108.75,60.48 C108.46,60.77 108.35,60.71 106.72,59.26 C104.76,57.53 99.88,54.10 99.35,54.10 C99.28,54.10 98.72,53.85 98.08,53.56 C97.47,53.25 96.82,53.02 96.69,53.02 C96.54,53.02 96.38,52.94 96.33,52.85 C96.22,52.67 94.37,52.08 92.60,51.64 C91.94,51.50 90.17,51.31 88.65,51.26 C85.48,51.13 85.08,51.01 85.61,50.23 C85.77,49.96 86.31,49.30 86.78,48.78 C89.12,46.21 91.22,41.72 91.58,38.53 C91.64,38.08 91.76,37.35 91.85,36.90 C92.16,35.49 92.11,30.62 91.76,30.11 C90.82,28.66 81.17,30.09 76.93,32.30 C75.61,32.99 73.26,34.24 72.80,34.49 C72.40,34.71 72.40,34.71 72.30,32.59 C72.13,29.71 71.73,28.04 70.59,25.53 C70.45,25.22 70.19,24.64 70.03,24.26 C68.47,20.73 66.65,18.14 63.02,14.39 C60.56,11.84 59.78,11.46 58.44,12.14 C57.93,12.42 55.78,14.64 55.16,15.53 C55.00,15.78 54.82,16.02 54.77,16.07 C53.99,16.76 51.40,20.80 50.51,22.67 C48.84,26.22 48.08,29.95 48.30,33.66 C48.46,36.32 48.32,36.41 46.42,34.76 C45.35,33.84 43.56,32.72 42.25,32.16 C41.91,32.01 41.31,31.74 40.93,31.58 C40.55,31.41 40.13,31.29 39.99,31.29 C39.84,31.29 39.46,31.18 39.14,31.03 C37.60,30.36 32.24,29.62 29.58,29.69 C27.49,29.75 27.49,29.75 27.28,30.43 C26.99,31.32 27.26,36.59 27.67,38.22 C28.47,41.26 29.41,43.73 30.54,45.68 C31.55,47.44 31.95,48.04 32.89,49.29 C34.48,51.39 34.57,51.28 30.84,51.31 C27.53,51.35 26.19,51.57 23.76,52.49 C23.22,52.69 22.57,52.93 22.30,53.02 C21.66,53.22 19.49,54.30 18.08,55.15 C16.75,55.93 15.90,56.60 13.93,58.43 C12.05,60.17 11.52,60.48 11.18,60.01 C11.05,59.83 10.98,59.46 11.01,59.19 C11.05,58.94 11.14,57.69 11.20,56.44 C11.41,51.31 12.50,46.61 14.69,41.34 C15.22,40.05 17.82,35.03 18.35,34.27 C18.64,33.88 19.40,32.73 20.05,31.74 C22.02,28.75 24.80,25.71 28.22,22.76 C29.90,21.31 33.36,18.79 33.65,18.79 C33.72,18.79 34.09,18.57 34.45,18.28 C35.33,17.61 35.48,17.54 38.27,16.16 C39.61,15.49 40.95,14.84 41.22,14.70 C41.51,14.55 41.87,14.44 42.05,14.44 C42.22,14.44 42.51,14.34 42.71,14.19 C42.90,14.06 43.32,13.90 43.61,13.85 C43.92,13.79 44.73,13.56 45.42,13.30 C47.70,12.51 49.82,12.05 52.85,11.71 C55.44,11.42 57.39,11.17 58.10,11.02 C59.11,10.80 59.89,10.79 60.78,10.99 Z M73.02,86.75 C72.13,87.86 72.15,89.58 73.06,90.05 C73.73,90.39 75.08,90.39 75.75,90.05 C76.75,89.54 76.42,87.88 75.12,86.72 C74.27,85.98 73.64,85.98 73.02,86.75 Z M85.21,36.03 C85.93,36.61 85.86,39.56 85.10,41.06 C84.61,41.99 83.63,43.33 82.29,44.87 C80.12,47.37 70.34,56.87 69.45,57.34 C69.02,57.58 68.82,57.44 67.33,55.73 C67.03,55.39 66.10,54.47 65.29,53.70 C64.47,52.94 63.80,52.24 63.80,52.15 C63.80,51.95 74.49,41.19 75.92,39.98 C77.17,38.89 78.78,37.75 79.65,37.32 C79.96,37.17 80.44,36.92 80.73,36.75 C82.27,35.92 84.59,35.54 85.21,36.03 Z M89.97,57.25 C92.83,57.56 94.28,58.01 97.45,59.59 C99.88,60.80 100.42,61.20 100.27,61.62 C100.17,61.91 96.83,64.43 96.56,64.43 C96.49,64.43 95.73,64.75 94.91,65.17 C92.60,66.31 91.93,66.44 87.40,66.54 C82.89,66.65 81.42,66.45 79.56,65.51 C79.01,65.24 78.24,64.86 77.84,64.66 C75.72,63.66 73.85,62.05 74.14,61.49 C74.47,60.88 79.97,57.91 80.79,57.91 C80.99,57.91 81.49,57.78 81.91,57.63 C82.33,57.49 83.18,57.36 83.79,57.34 C84.39,57.34 85.04,57.27 85.23,57.22 C85.59,57.06 88.39,57.09 89.97,57.25 Z"/>
      <path class="fill wordfill" fill-rule="evenodd" d="M141.47,19.01 C141.44,19.13 141.44,39.40 141.49,64.03 C141.58,108.83 141.58,108.83 141.96,109.12 C142.29,109.41 143.32,109.41 154.64,109.32 C161.39,109.25 172.98,109.19 180.37,109.17 C193.32,109.17 194.53,109.12 194.57,108.65 C194.69,106.84 194.57,101.13 194.40,100.97 C194.24,100.81 189.01,100.73 172.55,100.72 C160.65,100.68 150.82,100.61 150.73,100.55 C150.58,100.46 150.54,95.43 150.56,84.71 C150.58,70.33 150.60,68.95 150.87,68.72 C151.12,68.50 154.40,68.46 172.28,68.43 C188.65,68.41 193.41,68.36 193.59,68.17 C193.92,67.83 193.99,60.57 193.64,60.17 C193.41,59.88 191.91,59.88 172.13,59.92 C153.80,59.95 150.85,59.93 150.71,59.70 C150.44,59.28 150.54,27.70 150.83,27.48 C150.98,27.36 158.17,27.28 172.29,27.28 C188.56,27.28 193.68,27.23 194.06,27.07 C194.57,26.85 194.57,26.85 194.64,23.10 C194.69,19.93 194.66,19.30 194.44,19.06 C194.06,18.68 141.56,18.65 141.47,19.01 Z M222.47,28.10 C222.40,28.21 222.33,33.33 222.33,39.49 C222.31,47.06 222.24,50.75 222.11,50.88 C221.98,51.01 219.59,51.06 214.85,51.04 C208.62,51.02 207.77,51.04 207.52,51.30 C207.14,51.68 207.08,58.96 207.44,59.32 C207.61,59.48 209.51,59.54 214.87,59.54 C220.48,59.54 222.11,59.59 222.17,59.75 C222.24,59.97 222.42,89.27 222.44,103.03 C222.44,108.32 222.46,108.79 222.76,108.94 C223.36,109.26 230.50,109.39 230.79,109.10 C231.00,108.88 231.06,105.21 231.09,84.33 C231.13,65.57 231.20,59.79 231.37,59.68 C231.49,59.61 234.73,59.54 238.57,59.54 C244.04,59.54 245.62,59.48 245.76,59.30 C245.89,59.16 245.98,57.69 246.00,55.44 C246.03,51.82 245.92,51.04 245.38,51.02 C245.25,51.01 242.05,51.02 238.25,51.02 C233.85,51.04 231.29,50.97 231.24,50.86 C231.17,50.75 231.13,45.68 231.13,39.56 C231.13,29.80 231.09,28.41 230.86,28.21 C230.50,27.90 222.67,27.81 222.47,28.10 Z M258.64,10.21 C258.46,10.44 258.58,108.01 258.76,108.65 C258.89,109.10 259.13,109.14 263.38,109.19 C266.35,109.23 267.37,109.19 267.57,109.01 C267.82,108.81 267.85,107.33 267.87,96.61 C267.89,77.23 267.98,75.65 269.18,72.03 C270.92,66.80 273.49,63.36 277.40,61.04 C278.14,60.60 279.35,60.08 279.64,60.08 C279.81,60.08 280.10,59.95 280.28,59.81 C280.48,59.66 280.89,59.54 281.20,59.54 C281.51,59.54 282.22,59.41 282.76,59.25 C283.50,59.01 284.53,58.94 287.00,58.92 C290.46,58.90 290.42,58.90 292.61,59.92 C294.26,60.68 296.79,63.57 297.66,65.69 C297.84,66.15 298.08,66.71 298.21,66.96 C298.35,67.29 298.42,73.19 298.50,88.15 C298.55,99.56 298.60,108.90 298.64,108.90 C298.98,109.14 299.94,109.19 303.26,109.25 C306.84,109.30 307.24,109.28 307.53,108.99 C308.09,108.43 307.97,68.99 307.39,66.51 C307.30,66.11 307.08,65.13 306.90,64.33 C305.81,59.39 301.41,54.01 296.39,51.50 C295.69,51.13 294.96,50.84 294.77,50.84 C294.57,50.84 294.26,50.74 294.06,50.59 C293.86,50.46 293.46,50.30 293.15,50.25 C292.86,50.19 292.28,50.06 291.89,49.96 C289.59,49.38 285.53,49.23 283.19,49.67 C278.39,50.54 273.31,53.54 270.06,57.42 C268.09,59.77 268.05,59.81 267.87,59.52 C267.69,59.25 267.80,16.85 268.00,13.00 C268.16,9.88 268.53,10.12 263.11,10.04 C259.94,10.01 258.76,10.06 258.64,10.21 Z M347.75,49.41 C347.30,49.50 346.54,49.61 346.03,49.68 C344.06,49.94 340.65,51.06 338.68,52.11 C337.48,52.75 336.52,53.27 336.07,53.58 C335.78,53.76 335.37,53.99 335.17,54.09 C333.21,54.99 328.16,60.35 326.89,62.83 C326.67,63.27 326.33,63.85 326.13,64.15 C325.64,64.84 324.57,66.98 324.57,67.27 C324.57,67.38 324.43,67.74 324.26,68.08 C324.10,68.41 323.87,68.90 323.72,69.17 C323.59,69.42 323.49,69.77 323.49,69.91 C323.49,70.06 323.36,70.42 323.21,70.69 C323.07,70.98 322.94,71.38 322.94,71.58 C322.94,71.78 322.80,72.34 322.63,72.85 C322.38,73.61 322.35,74.66 322.35,79.82 C322.35,86.65 322.38,86.90 323.79,90.77 C323.96,91.17 324.17,91.72 324.32,91.99 C324.46,92.24 324.57,92.55 324.57,92.68 C324.57,92.89 325.53,94.87 326.17,95.94 C326.37,96.28 326.71,96.89 326.93,97.28 C327.63,98.58 330.02,101.53 331.44,102.83 C332.70,104.05 335.47,106.26 335.69,106.26 C335.75,106.26 336.09,106.47 336.47,106.73 C337.19,107.22 339.68,108.43 339.95,108.43 C340.04,108.43 340.35,108.54 340.64,108.68 C343.30,110.01 350.38,110.48 355.72,109.70 C358.71,109.26 360.95,108.43 363.60,106.80 C363.91,106.62 364.47,106.29 364.85,106.08 C366.02,105.44 367.65,104.10 369.66,102.15 C371.46,100.39 372.02,100.03 372.29,100.48 C372.36,100.57 372.40,102.47 372.40,104.70 C372.36,108.25 372.40,108.77 372.67,108.99 C373.18,109.41 380.86,109.37 381.07,108.96 C381.18,108.77 381.27,97.17 381.31,80.25 C381.38,53.61 381.36,51.86 381.07,51.57 C380.76,51.26 380.17,51.21 373.39,50.99 C372.43,50.97 372.38,51.21 372.38,56.13 C372.38,58.59 372.31,60.62 372.24,60.62 C372.07,60.62 370.42,58.94 369.75,58.09 C369.19,57.40 366.30,54.70 365.21,53.89 C363.71,52.76 359.96,50.84 359.20,50.84 C359.03,50.84 358.73,50.72 358.55,50.57 C358.35,50.43 357.98,50.30 357.73,50.30 C357.48,50.30 356.90,50.19 356.44,50.05 C354.33,49.38 349.76,49.03 347.75,49.41 Z M354.22,58.83 C354.47,58.92 354.94,58.99 355.29,58.99 C355.63,58.99 356.21,59.12 356.57,59.26 C356.92,59.41 357.35,59.54 357.53,59.54 C358.38,59.54 361.97,61.40 364.00,62.92 C366.06,64.44 369.18,68.39 370.33,70.94 C370.55,71.40 370.95,72.28 371.24,72.94 C372.11,74.84 372.43,77.32 372.33,81.09 C372.27,83.26 372.14,84.51 371.96,85.07 C369.28,92.86 364.39,98.14 357.80,100.39 C354.13,101.64 348.64,101.69 345.94,100.52 C345.60,100.37 345.07,100.14 344.76,100.01 C341.34,98.52 339.60,97.37 337.23,95.03 C331.62,89.45 329.55,80.54 332.21,73.39 C333.52,69.93 334.48,68.25 336.47,65.93 C340.11,61.71 343.10,59.90 347.93,58.97 C348.48,58.88 349.29,58.72 349.74,58.63 C350.67,58.45 353.57,58.58 354.22,58.83 Z M422.81,49.65 C421.11,50.06 418.50,51.50 416.77,52.98 C415.86,53.76 414.97,54.81 412.94,57.54 C411.64,59.32 411.30,59.72 411.10,59.72 C410.95,59.72 410.93,58.76 411.04,56.49 C411.24,52.40 411.22,51.89 410.97,51.42 C410.75,51.02 410.74,51.01 406.33,51.06 C403.89,51.08 401.81,51.15 401.72,51.21 C401.50,51.33 401.45,108.16 401.64,108.70 C401.81,109.10 402.17,109.15 406.48,109.23 C409.92,109.28 410.46,109.26 410.77,108.99 C411.12,108.70 411.13,108.27 411.19,91.77 C411.26,73.14 411.24,73.44 412.33,71.04 C412.46,70.73 412.84,69.88 413.18,69.13 C414.54,66.13 417.24,62.87 419.83,61.11 C421.89,59.74 423.52,59.43 426.25,59.97 C427.56,60.21 427.94,60.39 429.66,61.56 C431.54,62.85 431.60,62.72 431.40,58.09 C431.05,49.61 431.14,49.90 428.83,49.59 C426.98,49.34 423.95,49.36 422.81,49.65 Z M463.65,49.52 C461.26,49.92 458.63,50.68 457.22,51.35 C453.49,53.14 452.80,53.54 451.05,54.85 C446.83,58.00 443.91,61.78 441.38,67.38 C441.09,68.05 440.83,68.66 440.83,68.75 C440.83,68.84 440.72,69.15 440.58,69.44 C438.89,72.83 438.53,84.31 439.96,88.42 C440.05,88.71 440.20,89.25 440.27,89.60 C440.34,89.94 440.49,90.39 440.60,90.59 C440.71,90.79 440.94,91.32 441.10,91.77 C441.27,92.22 441.52,92.80 441.67,93.07 C441.81,93.33 441.92,93.64 441.92,93.74 C441.92,93.83 442.43,94.76 443.04,95.79 C447.68,103.50 454.45,108.65 461.39,109.72 C465.32,110.31 473.32,110.02 475.42,109.19 C475.67,109.10 476.24,108.87 476.69,108.70 C477.68,108.30 479.86,107.25 480.53,106.84 C482.74,105.44 484.02,104.39 486.36,102.06 C487.83,100.59 489.17,99.38 489.29,99.38 C489.58,99.38 489.60,99.65 489.55,104.19 C489.49,109.43 489.49,109.44 492.43,109.25 C493.39,109.17 494.98,109.21 495.97,109.32 C497.51,109.48 497.82,109.46 498.08,109.23 C498.37,108.97 498.38,106.98 498.37,80.25 C498.35,51.80 498.35,51.55 497.98,51.35 C497.42,51.04 490.14,51.02 489.89,51.33 C489.75,51.50 489.69,53.02 489.71,56.19 C489.75,59.55 489.69,60.80 489.55,60.80 C489.42,60.80 488.10,59.55 486.59,58.03 C485.07,56.51 483.55,55.01 483.19,54.70 C481.27,53.05 476.78,50.79 474.52,50.32 C474.17,50.25 473.59,50.08 473.25,49.99 C470.91,49.27 466.44,49.03 463.65,49.52 Z M470.88,58.74 C471.93,58.90 473.07,59.14 473.39,59.28 C473.72,59.43 474.15,59.54 474.35,59.54 C474.73,59.54 475.55,59.84 476.56,60.37 C476.85,60.51 477.16,60.62 477.25,60.62 C477.36,60.62 478.14,61.04 478.99,61.56 C481.72,63.21 485.87,67.72 486.94,70.22 C486.99,70.37 487.17,70.78 487.34,71.13 C487.88,72.32 488.22,73.23 488.80,74.93 C488.93,75.27 489.15,76.50 489.27,77.65 C489.73,81.30 489.27,84.49 487.81,87.93 C487.66,88.26 487.55,88.64 487.55,88.76 C487.55,89.16 485.42,92.30 484.15,93.76 C479.71,98.89 474.55,101.37 468.38,101.37 C466.44,101.37 465.80,101.30 463.65,100.82 C463.07,100.72 460.15,99.43 459.48,99.01 C459.34,98.92 458.85,98.67 458.40,98.45 C455.95,97.24 452.15,93.40 450.83,90.77 C449.96,89.07 449.02,86.90 448.75,85.98 C447.91,83.13 448.02,76.78 448.98,73.84 C450.19,70.02 452.28,66.67 455.05,64.03 C456.19,62.96 457.75,61.71 457.95,61.71 C458.02,61.71 458.38,61.46 458.76,61.17 C459.14,60.86 459.56,60.62 459.70,60.62 C459.83,60.62 460.10,60.51 460.30,60.39 C460.63,60.17 461.10,60.02 463.65,59.26 C464.10,59.14 464.83,58.97 465.28,58.90 C465.73,58.83 466.46,58.72 466.91,58.63 C468.20,58.41 468.81,58.43 470.88,58.74 Z M525.04,95.39 C522.72,95.70 520.40,97.58 519.06,100.19 C517.92,102.42 517.94,103.85 519.12,105.80 C521.24,109.28 522.85,110.17 526.74,110.01 C529.57,109.90 530.02,109.72 531.52,108.25 C533.42,106.37 533.80,105.51 533.80,103.09 C533.82,100.81 533.42,99.77 531.87,98.02 C531.12,97.18 530.69,96.91 528.12,95.66 C527.52,95.37 526.07,95.25 525.04,95.39 Z M584.13,14.12 C583.71,14.59 583.44,15.33 583.17,16.76 C583.08,17.29 582.79,18.17 582.54,18.75 C581.32,21.45 581.11,21.96 580.73,22.96 C580.54,23.41 580.31,23.99 580.16,24.26 C580.02,24.51 579.91,24.89 579.91,25.07 C579.91,25.26 579.84,25.49 579.75,25.60 C579.66,25.69 579.40,26.22 579.19,26.76 C578.53,28.37 577.18,31.68 576.92,32.28 C576.80,32.57 576.42,33.48 576.11,34.27 C575.78,35.07 575.29,36.28 575.00,36.97 C574.71,37.66 574.48,38.28 574.48,38.37 C574.48,38.46 574.22,39.07 573.92,39.74 C573.08,41.57 572.92,41.97 572.58,42.88 C572.41,43.33 572.14,43.98 572.00,44.32 C570.71,47.31 570.13,48.72 570.13,48.87 C570.13,48.96 569.88,49.58 569.57,50.25 C569.28,50.93 568.92,51.71 568.79,52.02 C568.66,52.31 568.41,52.87 568.25,53.25 C568.08,53.63 567.96,54.03 567.96,54.16 C567.96,54.27 567.72,54.86 567.43,55.46 C567.16,56.06 566.78,56.91 566.60,57.36 C566.44,57.82 566.18,58.40 566.04,58.67 C565.89,58.92 565.79,59.28 565.79,59.45 C565.79,59.61 565.68,59.97 565.53,60.22 C565.40,60.50 565.15,61.02 564.99,61.38 C564.83,61.76 564.57,62.38 564.41,62.74 C564.25,63.12 563.99,63.65 563.87,63.92 C563.72,64.17 563.61,64.52 563.61,64.66 C563.61,64.82 563.25,65.73 562.80,66.67 C562.34,67.63 561.98,68.52 561.98,68.64 C561.98,68.77 561.86,69.04 561.71,69.24 C561.57,69.42 561.44,69.73 561.44,69.91 C561.44,70.11 561.33,70.47 561.20,70.73 C561.06,71.00 560.82,71.49 560.66,71.81 C560.50,72.16 560.35,72.54 560.35,72.70 C560.35,72.85 560.24,73.19 560.10,73.44 C559.43,74.73 557.09,80.40 557.09,80.72 C557.09,80.89 557.02,81.09 556.93,81.18 C556.84,81.28 556.48,82.08 556.10,82.99 C555.73,83.87 555.32,84.83 555.17,85.11 C555.03,85.36 554.92,85.70 554.92,85.87 C554.92,86.03 554.67,86.70 554.36,87.37 C553.07,90.19 552.75,90.97 552.75,91.21 C552.75,91.32 552.49,91.97 552.19,92.64 C551.50,94.11 551.23,94.72 550.88,95.66 C550.34,97.15 549.99,98.04 549.72,98.65 C549.58,99.00 549.34,99.52 549.22,99.83 C549.11,100.12 548.85,100.68 548.69,101.06 C548.53,101.44 548.40,101.86 548.40,102.00 C548.40,102.13 547.95,103.16 547.37,104.28 C546.81,105.41 546.30,106.58 546.21,106.89 C546.14,107.18 545.97,107.71 545.85,108.03 C545.38,109.15 545.61,109.26 548.73,109.17 C550.39,109.14 551.93,109.21 552.71,109.34 C554.85,109.72 555.66,108.96 556.82,105.42 C557.06,104.70 557.33,103.98 557.42,103.79 C557.64,103.38 558.67,100.86 559.36,99.10 C559.61,98.40 559.94,97.58 560.08,97.29 C560.73,95.79 560.90,95.36 560.90,95.14 C560.90,94.99 561.15,94.34 561.44,93.67 C561.75,93.00 561.98,92.33 561.98,92.19 C561.98,92.04 562.11,91.70 562.24,91.44 C562.53,90.92 563.56,88.28 564.05,86.83 C564.48,85.54 565.02,84.56 565.40,84.36 C566.02,84.02 603.98,84.09 604.34,84.42 C604.72,84.76 605.34,85.99 606.82,89.38 C606.97,89.71 607.07,90.09 607.07,90.23 C607.07,90.38 607.20,90.79 607.36,91.17 C608.07,92.82 608.21,93.15 608.40,93.49 C608.49,93.69 608.65,94.09 608.72,94.40 C608.88,95.07 609.21,95.99 609.57,96.84 C610.35,98.62 610.79,99.77 611.17,101.01 C611.33,101.55 611.55,102.13 611.62,102.27 C611.71,102.42 611.84,102.67 611.89,102.82 C611.95,102.96 612.11,103.36 612.25,103.69 C612.81,104.95 613.03,105.48 613.29,106.17 C614.50,109.43 614.06,109.21 619.79,109.28 C624.73,109.34 624.77,109.34 624.22,108.16 C624.08,107.87 623.84,107.33 623.70,106.98 C623.55,106.64 623.17,105.82 622.86,105.17 C622.56,104.52 622.12,103.50 621.92,102.91 C621.71,102.31 621.47,101.75 621.40,101.64 C621.27,101.46 620.35,99.27 619.80,97.84 C619.64,97.44 619.42,96.86 619.28,96.57 C619.15,96.26 618.66,95.08 618.21,93.94 C617.20,91.43 616.35,89.34 616.04,88.60 C615.91,88.29 615.66,87.70 615.49,87.24 C615.31,86.79 615.08,86.17 614.93,85.88 C614.41,84.65 613.41,82.19 613.03,81.18 C612.81,80.58 612.36,79.49 612.04,78.77 C611.69,78.04 611.42,77.39 611.42,77.34 C611.42,77.21 610.13,74.04 609.52,72.67 C608.92,71.29 608.70,70.75 608.70,70.58 C608.70,70.47 608.47,69.89 608.18,69.28 C607.91,68.64 607.40,67.49 607.07,66.69 C606.77,65.89 606.26,64.73 605.97,64.12 C605.68,63.48 605.44,62.90 605.44,62.81 C605.44,62.72 605.34,62.42 605.19,62.13 C605.05,61.85 604.81,61.29 604.67,60.89 C604.18,59.57 603.76,58.56 603.23,57.40 C602.96,56.78 602.73,56.20 602.73,56.10 C602.73,55.91 602.44,55.19 601.62,53.43 C601.33,52.80 601.10,52.22 601.10,52.13 C601.10,52.04 600.99,51.73 600.84,51.44 C600.70,51.17 600.45,50.57 600.28,50.12 C600.10,49.67 599.87,49.05 599.74,48.76 C599.59,48.45 599.25,47.60 598.96,46.86 C597.93,44.27 597.62,43.51 597.17,42.51 C596.32,40.65 596.23,40.43 595.59,38.86 C595.23,38.00 594.94,37.24 594.94,37.17 C594.94,37.12 594.74,36.63 594.51,36.12 C594.11,35.25 593.89,34.69 593.18,32.83 C593.02,32.43 592.79,31.83 592.64,31.52 C592.17,30.40 591.90,29.75 591.57,28.93 C591.41,28.48 591.03,27.61 590.74,26.98 C590.47,26.36 590.23,25.78 590.23,25.69 C590.23,25.60 590.11,25.29 589.96,25.00 C589.49,24.08 586.97,17.94 586.97,17.72 C586.97,17.60 586.86,17.27 586.74,17.02 C586.59,16.74 586.36,16.26 586.19,15.93 C586.03,15.59 585.89,15.22 585.89,15.10 C585.89,14.84 584.89,13.72 584.65,13.72 C584.56,13.72 584.33,13.90 584.13,14.12 Z M585.40,36.01 C585.67,36.41 585.89,36.83 585.89,36.94 C585.89,37.03 585.99,37.33 586.14,37.59 C586.74,38.67 587.52,40.54 587.52,40.85 C587.52,41.03 587.64,41.34 587.79,41.54 C587.93,41.72 588.06,42.02 588.06,42.19 C588.06,42.35 588.17,42.71 588.31,43.00 C588.77,43.87 589.15,44.81 589.15,45.09 C589.15,45.21 589.27,45.48 589.42,45.66 C589.56,45.86 589.69,46.17 589.69,46.37 C589.69,46.55 589.80,46.93 589.94,47.19 C590.09,47.46 590.34,48.04 590.50,48.49 C590.81,49.29 590.97,49.68 591.57,51.08 C591.74,51.46 591.86,51.88 591.86,52.02 C591.86,52.15 591.97,52.49 592.12,52.78 C592.26,53.05 592.51,53.61 592.68,54.01 C592.86,54.41 593.11,54.97 593.24,55.24 C593.38,55.53 593.49,55.90 593.49,56.06 C593.49,56.22 593.62,56.53 593.76,56.71 C593.91,56.91 594.04,57.20 594.04,57.38 C594.04,57.65 594.90,59.88 595.34,60.70 C595.43,60.88 595.72,61.64 595.95,62.38 C596.21,63.14 596.59,64.17 596.82,64.68 C597.04,65.19 597.39,65.96 597.55,66.42 C597.73,66.87 597.98,67.50 598.13,67.83 C598.27,68.16 598.38,68.54 598.38,68.68 C598.38,68.81 598.49,69.15 598.63,69.44 C598.76,69.71 599.00,70.24 599.14,70.58 C599.29,70.93 599.56,71.52 599.72,71.90 C599.88,72.28 600.01,72.70 600.01,72.85 C600.01,72.97 600.12,73.32 600.26,73.61 C600.81,74.68 600.97,75.51 600.72,75.69 C600.45,75.85 568.70,75.82 568.59,75.63 C568.56,75.58 568.75,75.04 569.06,74.42 C569.35,73.81 569.59,73.23 569.59,73.12 C569.59,73.01 569.81,72.50 570.06,71.98 C570.31,71.47 570.62,70.75 570.75,70.40 C570.87,70.06 571.42,68.70 571.92,67.41 C573.54,63.39 573.86,62.58 574.46,60.98 C574.79,60.13 575.33,58.79 575.65,58.00 C575.98,57.20 576.38,56.19 576.54,55.73 C577.12,54.07 577.37,53.36 577.54,53.05 C577.63,52.89 577.83,52.42 577.97,52.02 C578.32,51.12 579.15,49.03 579.96,47.04 C580.31,46.19 580.73,45.14 580.89,44.69 C581.30,43.49 581.61,42.71 582.07,41.70 C582.30,41.19 582.55,40.54 582.63,40.25 C582.72,39.94 582.95,39.25 583.17,38.71 C583.39,38.17 583.62,37.33 583.69,36.86 C583.82,36.01 584.29,35.27 584.71,35.27 C584.82,35.27 585.13,35.60 585.40,36.01 Z M635.70,19.04 C635.36,19.44 635.50,108.45 635.85,108.87 C636.19,109.28 644.31,109.23 644.79,108.81 C645.08,108.59 645.10,105.21 645.10,64.05 C645.10,19.53 645.10,19.53 644.70,19.32 C643.89,18.88 636.03,18.65 635.70,19.04 Z"/>
    </svg>